<svg id="car" xmlns="http://www.w3.org/2000/svg" width="32.997" height="32.997" viewBox="0 0 32.997 32.997">
  <path id="Path_1012" data-name="Path 1012" d="M66.693,120.773a80.334,80.334,0,0,0-22.236,0l-.2.04A16.174,16.174,0,0,0,42.4,126.4l.128.045.877.532a7.152,7.152,0,0,1,2.412,9.073,6.734,6.734,0,0,1-.915,1.427l-.111.16a14.27,14.27,0,0,0,3.493,3.748l.064-.063.4-.31a10.9,10.9,0,0,1,13.659,0l.4.31.061.063a14.231,14.231,0,0,0,3.406-3.6l-.316-.3a7.334,7.334,0,0,1,.466-9.487,6.01,6.01,0,0,1,1.148-.909l1.053-.64.125-.063a16.171,16.171,0,0,0-1.853-5.56Z" transform="translate(-39.077 -112.799)" fill="#4d4d4d"/>
  <path id="Path_1013" data-name="Path 1013" d="M180.389,176h0a4.389,4.389,0,0,1,4.389,4.389h0a4.389,4.389,0,0,1-4.389,4.389h0A4.389,4.389,0,0,1,176,180.389h0A4.389,4.389,0,0,1,180.389,176Z" transform="translate(-163.891 -163.891)" fill="#fbcc34"/>
  <g id="Group_1" data-name="Group 1" transform="translate(5.657 10.682)">
    <path id="Path_1014" data-name="Path 1014" d="M81.254,153.254h-.627a.627.627,0,1,1,0-1.254h.627a.627.627,0,1,1,0,1.254Z" transform="translate(-80 -152)" fill="#b3b3b3"/>
    <path id="Path_1015" data-name="Path 1015" d="M81.254,185.254h-.627a.627.627,0,0,1,0-1.254h.627a.627.627,0,0,1,0,1.254Z" transform="translate(-80 -181.492)" fill="#b3b3b3"/>
  </g>
  <g id="Group_2" data-name="Group 2" transform="translate(24.278 10.682)">
    <path id="Path_1016" data-name="Path 1016" d="M345.881,153.254h-1.254a.627.627,0,1,1,0-1.254h1.254a.627.627,0,1,1,0,1.254Z" transform="translate(-344 -152)" fill="#f8cf26"/>
    <path id="Path_1017" data-name="Path 1017" d="M345.881,185.254h-1.254a.627.627,0,1,1,0-1.254h1.254a.627.627,0,1,1,0,1.254Z" transform="translate(-344 -181.492)" fill="#f8cf26"/>
  </g>
  <path id="Path_1018" data-name="Path 1018" d="M192,187.607h-.614a3.775,3.775,0,0,1-3.775-3.775,3.775,3.775,0,0,1-3.775,3.775,3.775,3.775,0,0,1,3.775,3.775,3.775,3.775,0,0,1,3.775-3.775Z" transform="translate(-171.145 -171.109)" fill="#06aae9"/>
  <g id="Group_3" data-name="Group 3" transform="translate(7.92 10.682)">
    <path id="Path_1019" data-name="Path 1019" d="M113.254,153.254h-.627a.627.627,0,1,1,0-1.254h.627a.627.627,0,0,1,0,1.254Z" transform="translate(-112 -152)" fill="#b3b3b3"/>
    <path id="Path_1020" data-name="Path 1020" d="M113.254,185.254h-.627a.627.627,0,1,1,0-1.254h.627a.627.627,0,0,1,0,1.254Z" transform="translate(-112 -181.492)" fill="#b3b3b3"/>
  </g>
  <path id="Path_1021" data-name="Path 1021" d="M16.5,0A16.5,16.5,0,1,0,33,16.5,16.5,16.5,0,0,0,16.5,0ZM27.444,24.662A13.655,13.655,0,0,1,2.845,16.5a14.291,14.291,0,0,1,.171-2.168,13.654,13.654,0,0,1,26.961-.017,13.808,13.808,0,0,1,.176,2.185A13.592,13.592,0,0,1,27.444,24.662Z" fill="#333"/>
</svg>
