<svg xmlns="http://www.w3.org/2000/svg" width="33" height="33.003" viewBox="0 0 33 33.003">
  <g id="care" transform="translate(0.001)">
    <path id="Path_1083" data-name="Path 1083" d="M30.929,104.737a8.244,8.244,0,0,0-6.161-2.933,8.327,8.327,0,0,0-1.61.157q-.335.066-.663.16a7.844,7.844,0,0,0-4.52,3.333c-.215.362-.4.742-.582,1.121-.2.411-.29,1.04-.851,1.069-.526.028-.716-.547-.891-.939a8.033,8.033,0,0,0-2.168-2.949A8.316,8.316,0,0,0,8.145,101.8a8.244,8.244,0,0,0-6.161,2.933C-1.526,108.8.1,115.15,3.123,119.132c3.043,4.012,7.738,7.8,12.59,9.086a2.891,2.891,0,0,0,1.487,0c4.852-1.29,9.547-5.074,12.59-9.086,3.019-3.982,4.649-10.327,1.139-14.395Zm0,0" transform="translate(0 -95.312)" fill="#dc3c38"/>
    <path id="Path_1084" data-name="Path 1084" d="M254.75,119.124c-3.057,4.012-7.777,7.8-12.653,9.087a2.956,2.956,0,0,1-1.5,0l-.221-.06c4.8-1.344,9.421-5.076,12.432-9.027,3.036-3.982,4.673-10.327,1.145-14.394a8.422,8.422,0,0,0-5.25-2.875,8.043,8.043,0,0,1,7.189,2.875c3.528,4.067,1.891,10.412-1.145,14.394Zm0,0" transform="translate(-224.976 -95.305)" fill="#aa2537"/>
    <path id="Path_1085" data-name="Path 1085" d="M336.856,3.734h-2.217a.759.759,0,0,1-.759-.759V.759A.759.759,0,0,0,333.122,0h-3.093a.759.759,0,0,0-.759.759V2.975a.759.759,0,0,1-.759.759h-2.217a.759.759,0,0,0-.759.759V7.586a.759.759,0,0,0,.759.759h2.217a.759.759,0,0,1,.759.759V11.32a.759.759,0,0,0,.759.759h3.093a.759.759,0,0,0,.759-.759V9.1a.759.759,0,0,1,.759-.759h2.217a.759.759,0,0,0,.759-.759V4.493a.759.759,0,0,0-.759-.759Zm0,0" transform="translate(-304.615 0)" fill="#88b337"/>
    <path id="Path_1086" data-name="Path 1086" d="M426.822,4.5V7.59a.759.759,0,0,1-.76.759h-2.216a.759.759,0,0,0-.759.759v2.217a.758.758,0,0,1-.758.758h-1.407a.759.759,0,0,0,.76-.758V8.889A1.787,1.787,0,0,1,423.469,7.1h.8a.455.455,0,0,0,.454-.455V5.628a.454.454,0,0,0-.453-.454h-.8a1.787,1.787,0,0,1-1.787-1.787V.762A.759.759,0,0,0,420.922,0h1.407a.758.758,0,0,1,.758.758V2.979a.759.759,0,0,0,.759.759h2.216a.759.759,0,0,1,.76.759Zm0,0" transform="translate(-393.823 -0.004)" fill="#6a9924"/>
  </g>
</svg>
