<svg xmlns="http://www.w3.org/2000/svg" width="32.997" height="20.503" viewBox="0 0 32.997 20.503">
  <g id="education" transform="translate(-0.002 0.001)">
    <path id="Path_1087" data-name="Path 1087" d="M.423,8.422,16.5,15.609,32.576,8.422a.712.712,0,0,0,0-1.3L16.791.064a.713.713,0,0,0-.582,0L.423,7.121a.712.712,0,0,0,0,1.3Zm0,0" transform="translate(0 -0.002)" fill="#4d4d4d"/>
    <path id="Path_1088" data-name="Path 1088" d="M96.2,7.124,80.417.061a.711.711,0,0,0-.581,0l-1.17.524L93.28,7.124a.713.713,0,0,1,0,1.3l-1.536.687-.08-.059a22.325,22.325,0,0,0-11.5-3.988h-.08a22.325,22.325,0,0,0-11.5,3.988l-.576.427V10.2l12.114,5.42L92.24,10.2,96.2,8.426a.713.713,0,0,0,0-1.3Zm0,0" transform="translate(-63.625 0)" fill="#292929"/>
    <path id="Path_1089" data-name="Path 1089" d="M101.133,114.624c2.972-1.529,7.926-2.011,9.7-2.139a.713.713,0,0,0,.661-.711v-7.387a21,21,0,0,0-10.687-3.708,21,21,0,0,0-10.687,3.708v7.387a.713.713,0,0,0,.661.711c1.779.128,6.733.61,9.7,2.139a.7.7,0,0,0,.641,0Zm0,0" transform="translate(-84.312 -94.199)" fill="#4d4d4d"/>
    <path id="Path_1090" data-name="Path 1090" d="M109.36,144.173a1.425,1.425,0,0,1-1.234,1.413,24.473,24.473,0,0,0-6.7,1.714,1.431,1.431,0,0,1-1.225,0c-3.722-1.759-10.075-2.036-10.075-2.036v.827a.713.713,0,0,0,.661.711c1.779.128,6.733.61,9.7,2.139a.7.7,0,0,0,.641,0c2.972-1.529,7.926-2.011,9.7-2.139a.713.713,0,0,0,.661-.711v-7.387a16.693,16.693,0,0,0-2.137-1.343v6.811Zm0,0" transform="translate(-84.311 -128.517)" fill="#292929"/>
    <path id="Path_1091" data-name="Path 1091" d="M346.421,255.165l-1.135-2.985-1.134,2.985a.428.428,0,0,0,.4.58h1.469a.428.428,0,0,0,.4-.58Zm0,0" transform="translate(-321.946 -235.931)" fill="#fbcc34"/>
    <path id="Path_1092" data-name="Path 1092" d="M341.932,217.185a1.5,1.5,0,1,1-1.5-1.5A1.5,1.5,0,0,1,341.932,217.185Zm0,0" transform="translate(-317.094 -201.789)" fill="#fbcc34"/>
    <path id="Path_1093" data-name="Path 1093" d="M342.983,217.754a1.5,1.5,0,0,1-1.98,1.98,1.5,1.5,0,1,0,1.98-1.98Zm0,0" transform="translate(-319.027 -203.723)" fill="#e4b53f"/>
    <path id="Path_1094" data-name="Path 1094" d="M354.933,43.192V54.153a.535.535,0,1,1-1.07,0V42.714Zm0,0" transform="translate(-331.057 -39.96)" fill="#fbcc34"/>
  </g>
</svg>
