<svg xmlns="http://www.w3.org/2000/svg" width="619.226" height="556.458" viewBox="0 0 619.226 556.458">
  <g id="Group_1" data-name="Group 1" transform="translate(-1336.5 -232.403)">
    <path id="Path_3" data-name="Path 3" d="M140.753.207c4.7.146,10.034,9.179,13.22,14.146L196.1,84.327V97.192l-43.6,72.392c-3.791,6.106-6.913,11.563-14.21,11.563l-74.774.079c-7.3,0-12.092-4.8-16.515-11.794L3.639,97.472V83.91L47.063,12.373C50.576,5.978,54.534,0,61.831,0Z" transform="translate(1664.5 792.5) rotate(-90)" fill="#fff"/>
    <g id="Path_4" data-name="Path 4" transform="translate(1446.5 428.5) rotate(-90)" fill="#999" opacity="0.554">
      <path d="M140.753.207c4.7.146,10.034,9.179,13.22,14.146L196.1,84.327V97.192l-43.6,72.392c-3.791,6.106-6.913,11.563-14.21,11.563l-74.774.079c-7.3,0-12.092-4.8-16.515-11.794L3.639,97.472V83.91L47.063,12.373C50.576,5.978,54.534,0,61.831,0Z" stroke="none"/>
      <path d="M 61.82850646972656 1.000015258789062 L 61.82884216308594 1.000015258789062 C 58.78242492675781 1.000564575195312 56.1326904296875 2.146331787109375 53.72817993164062 4.502716064453125 C 51.44317626953125 6.741958618164062 49.595458984375 9.840240478515625 47.93907165527344 12.85482788085938 L 47.92868041992188 12.87373352050781 L 47.91748046875 12.89218139648438 L 4.638885498046875 84.18989562988281 L 4.638885498046875 97.19361877441406 L 47.84980773925781 168.9064178466797 C 50.27308654785156 172.7384338378906 52.47947692871094 175.3623504638672 54.79306030273438 177.1637115478516 C 57.43983459472656 179.2245330810547 60.29244995117188 180.2263031005859 63.51284790039062 180.2263031005859 L 138.2879028320312 180.1473388671875 C 141.2408752441406 180.1473388671875 143.6268310546875 179.1931304931641 145.7966003417969 177.1444396972656 C 147.8235473632812 175.2305603027344 149.4927978515625 172.5356903076172 151.2600250244141 169.6825866699219 C 151.3875122070312 169.4767913818359 151.5155792236328 169.2700500488281 151.6444091796875 169.0625610351562 L 195.0967712402344 96.91439056396484 L 195.0967712402344 84.60499572753906 L 153.1237640380859 14.88099670410156 C 152.8730926513672 14.49005126953125 152.6115570068359 14.07789611816406 152.3348236083984 13.64178466796875 C 150.7288208007812 11.11085510253906 148.7301330566406 7.9610595703125 146.6114044189453 5.440887451171875 C 144.297119140625 2.6881103515625 142.3201904296875 1.2637939453125 140.7353057861328 1.207168579101562 L 61.82850646972656 1.000015258789062 M 61.83113098144531 1.52587890625e-05 L 140.7532958984375 0.20721435546875 C 145.4505767822266 0.3529052734375 150.787353515625 9.3858642578125 153.9732971191406 14.35325622558594 L 196.0967712402344 84.32720947265625 L 196.0967712402344 97.1922607421875 L 152.4974365234375 169.5844573974609 C 148.7060089111328 175.6906585693359 145.5847473144531 181.1473388671875 138.2879028320312 181.1473388671875 L 63.51390075683594 181.2263031005859 C 56.21707153320312 181.2263031005859 51.4217529296875 176.4281616210938 46.99916076660156 169.4322662353516 L 3.638885498046875 97.47161102294922 L 3.638885498046875 83.91015625 L 47.06265258789062 12.373291015625 C 50.57644653320312 5.978179931640625 54.53427124023438 1.52587890625e-05 61.83113098144531 1.52587890625e-05 Z" stroke="none" fill="#707070"/>
    </g>
    <path id="Path_5" data-name="Path 5" d="M140.753.207c4.7.146,10.034,9.179,13.22,14.146L196.1,84.327V97.192l-43.6,72.392c-3.791,6.106-6.913,11.563-14.21,11.563l-74.774.079c-7.3,0-12.092-4.8-16.515-11.794L3.639,97.472V83.91L47.063,12.373C50.576,5.978,54.534,0,61.831,0Z" transform="translate(1336.5 610.5) rotate(-90)" fill="#fff"/>
    <path id="Path_6" data-name="Path 6" d="M140.753.207c4.7.146,10.034,9.179,13.22,14.146L196.1,84.327V97.192l-43.6,72.392c-3.791,6.106-6.913,11.563-14.21,11.563l-74.774.079c-7.3,0-12.092-4.8-16.515-11.794L3.639,97.472V83.91L47.063,12.373C50.576,5.978,54.534,0,61.831,0Z" transform="translate(1555.5 610.5) rotate(-90)" fill="#fff" opacity="0.307"/>
    <path id="Path_7" data-name="Path 7" d="M140.753.207c4.7.146,10.034,9.179,13.22,14.146L196.1,84.327V97.192l-43.6,72.392c-3.791,6.106-6.913,11.563-14.21,11.563l-74.774.079c-7.3,0-12.092-4.8-16.515-11.794L3.639,97.472V83.91L47.063,12.373C50.576,5.978,54.534,0,61.831,0Z" transform="translate(1445.5 792.5) rotate(-90)" fill="#fff"/>
    <path id="Path_8" data-name="Path 8" d="M140.753.207c4.7.146,10.034,9.179,13.22,14.146L196.1,84.327V97.192l-43.6,72.392c-3.791,6.106-6.913,11.563-14.21,11.563l-74.774.079c-7.3,0-12.092-4.8-16.515-11.794L3.639,97.472V83.91L47.063,12.373C50.576,5.978,54.534,0,61.831,0Z" transform="translate(1774.5 610.5) rotate(-90)" fill="#fff"/>
    <path id="Path_9" data-name="Path 9" d="M140.753.207c4.7.146,10.034,9.179,13.22,14.146L196.1,84.327V97.192l-43.6,72.392c-3.791,6.106-6.913,11.563-14.21,11.563l-74.774.079c-7.3,0-12.092-4.8-16.515-11.794L3.639,97.472V83.91L47.063,12.373C50.576,5.978,54.534,0,61.831,0Z" transform="translate(1665.5 428.5) rotate(-90)" fill="#fff"/>
  </g>
</svg>
