<svg xmlns="http://www.w3.org/2000/svg" width="32.999" height="31.231" viewBox="0 0 32.999 31.231">
  <g id="map" transform="translate(0 -1.5)">
    <path id="Path_1116" data-name="Path 1116" d="M29.463,28.118a3.533,3.533,0,0,0-3.483,2.945h-.053V7.5H15.452l-1.309,2.945L12.964,7.5H11.392l-.785,1.767L9.9,7.5H7.071V31.063H7.018a3.534,3.534,0,1,0-3.531,4.121v0H14.6l1.309-2.945,1.179,2.945H18.66l.785-1.767.707,1.767h9.359v0a3.533,3.533,0,0,0-.048-7.067Z" transform="translate(0 -2.456)" fill="#cfbc81"/>
    <g id="Group_16" data-name="Group 16" transform="translate(0 1.5)">
      <path id="Path_1117" data-name="Path 1117" d="M47.544,25.652a3.539,3.539,0,0,1,3.544,3.534V5.034a3.544,3.544,0,0,0-7.088,0V29.187A3.539,3.539,0,0,1,47.544,25.652Z" transform="translate(-18.09 -1.5)" fill="#977c43"/>
      <path id="Path_1118" data-name="Path 1118" d="M3.544,25.652a3.539,3.539,0,0,1,3.544,3.534V5.034A3.544,3.544,0,0,0,0,5.034V29.187A3.539,3.539,0,0,1,3.544,25.652Z" transform="translate(0 -1.5)" fill="#977c43"/>
    </g>
    <g id="Group_17" data-name="Group 17" transform="translate(11.18 15.031)">
      <path id="Path_1119" data-name="Path 1119" d="M20.377,26.367a4.234,4.234,0,0,1-.2-1.276.591.591,0,0,0-1.181,0,5.433,5.433,0,0,0,.25,1.631.591.591,0,0,0,.564.413.6.6,0,0,0,.177-.027A.591.591,0,0,0,20.377,26.367Z" transform="translate(-19 -24.5)" fill="#fff"/>
      <path id="Path_1120" data-name="Path 1120" d="M23.329,31.2A5.1,5.1,0,0,1,22,30.067a.591.591,0,1,0-.913.75,6.255,6.255,0,0,0,1.63,1.4.591.591,0,1,0,.608-1.013Z" transform="translate(-19.801 -26.69)" fill="#fff"/>
      <path id="Path_1121" data-name="Path 1121" d="M30.2,33.635a5.433,5.433,0,0,0-1.631-.25,5.974,5.974,0,0,1-1.336-.15.591.591,0,0,0-.264,1.151,7.185,7.185,0,0,0,1.6.18,4.252,4.252,0,0,1,1.276.2.591.591,0,0,0,.354-1.127Z" transform="translate(-22.076 -28.069)" fill="#fff"/>
      <path id="Path_1122" data-name="Path 1122" d="M36.715,37.22a6.294,6.294,0,0,0-1.4-1.63.59.59,0,1,0-.75.913A5.136,5.136,0,0,1,35.7,37.827a.59.59,0,0,0,1.012-.608Z" transform="translate(-25.284 -28.984)" fill="#fff"/>
      <path id="Path_1123" data-name="Path 1123" d="M38.887,41.474a.591.591,0,0,0-1.151.265,5.941,5.941,0,0,1,.15,1.335.591.591,0,0,0,1.181,0A7.158,7.158,0,0,0,38.887,41.474Z" transform="translate(-26.662 -31.26)" fill="#fff"/>
    </g>
    <path id="Path_1124" data-name="Path 1124" d="M20.672,17.628l-.835-.835-1.354,1.354-1.354-1.354-.835.835,1.354,1.354-1.354,1.354.835.835,1.354-1.354,1.354,1.354.835-.835-1.354-1.354Z" transform="translate(-6.696 -6.285)" fill="#4d4d4d"/>
    <g id="Group_18" data-name="Group 18" transform="translate(9.412 5.044)">
      <path id="Path_1125" data-name="Path 1125" d="M33,10.453a.591.591,0,1,0,1.181,0V7.5H33Z" transform="translate(-22.958 -7.5)" fill="#977c43"/>
      <path id="Path_1126" data-name="Path 1126" d="M37,7.5V9.272a.591.591,0,1,0,1.181,0V7.5Z" transform="translate(-24.596 -7.5)" fill="#977c43"/>
      <path id="Path_1127" data-name="Path 1127" d="M16.591,48.5a.591.591,0,0,0-.591.591v2.953h1.181V49.091A.591.591,0,0,0,16.591,48.5Z" transform="translate(-16 -24.357)" fill="#977c43"/>
      <path id="Path_1128" data-name="Path 1128" d="M20.591,51.5a.591.591,0,0,0-.591.591v1.181h1.181V52.091A.591.591,0,0,0,20.591,51.5Z" transform="translate(-17.637 -25.585)" fill="#977c43"/>
    </g>
  </g>
</svg>
