<svg xmlns="http://www.w3.org/2000/svg" width="28.873" height="32.998" viewBox="0 0 28.873 32.998">
  <g id="paint-roller" transform="translate(-32 0)">
    <path id="Path_1129" data-name="Path 1129" d="M47.973,64.244H34.061V59.092a1.032,1.032,0,0,1,1.031-1.031V56A3.1,3.1,0,0,0,32,59.092v6.183a1.031,1.031,0,0,0,1.031,1.031H46.943v7.214H49V65.275A1.031,1.031,0,0,0,47.973,64.244Z" transform="translate(0 -52.393)" fill="#dfdfdf"/>
    <path id="Path_1130" data-name="Path 1130" d="M244.122,328h-3.092A1.031,1.031,0,0,0,240,329.031v9.79a1.031,1.031,0,0,0,1.031,1.03h3.092a1.031,1.031,0,0,0,1.031-1.03v-9.79A1.031,1.031,0,0,0,244.122,328Z" transform="translate(-194.593 -306.853)" fill="#4d4d4d"/>
    <path id="Path_1131" data-name="Path 1131" d="M103.719,0H82.063A2.062,2.062,0,0,0,80,2.061V7.214a2.062,2.062,0,0,0,2.063,2.061h21.657a2.062,2.062,0,0,0,2.063-2.061V2.061A2.062,2.062,0,0,0,103.719,0Z" transform="translate(-44.908)" fill="#f5b445"/>
    <path id="Path_1132" data-name="Path 1132" d="M134.671,32.707v1.06c0,.39-.461.707-1.031.707H115.607c-1.992,0-3.607,1.108-3.607,2.474h21.641c1.138,0,2.061-.633,2.061-1.414V32h0C135.133,32,134.671,32.316,134.671,32.707Z" transform="translate(-74.829 -27.674)" fill="#f09820"/>
    <path id="Path_1133" data-name="Path 1133" d="M259.092,345.031v8.759h-2.061A1.03,1.03,0,0,0,256,354.82h3.092a1.031,1.031,0,0,0,1.031-1.031V344h0A1.031,1.031,0,0,0,259.092,345.031Z" transform="translate(-209.562 -321.822)" fill="#3f556b"/>
    <path id="Path_1134" data-name="Path 1134" d="M280,208.244h1.031V200h-.9a.129.129,0,0,0-.129.129Z" transform="translate(-232.016 -187.107)" fill="#aaa"/>
    <path id="Path_1135" data-name="Path 1135" d="M48,200.129v.9H61.912v-.9a.129.129,0,0,0-.129-.129H48.129A.129.129,0,0,0,48,200.129Z" transform="translate(-14.969 -187.11)" fill="#aaa"/>
    <path id="Path_1136" data-name="Path 1136" d="M48.129,109.153h.9V104h-.9a.129.129,0,0,0-.129.129v4.895A.129.129,0,0,0,48.129,109.153Z" transform="translate(-14.969 -97.296)" fill="#aaa"/>
  </g>
</svg>
