<svg xmlns="http://www.w3.org/2000/svg" width="32.915" height="26.511" viewBox="0 0 32.915 26.511">
  <path id="Path_1083" data-name="Path 1083" d="M30.929,104.737a8.244,8.244,0,0,0-6.161-2.933,8.327,8.327,0,0,0-1.61.157q-.335.066-.663.16a7.844,7.844,0,0,0-4.52,3.333c-.215.362-.4.742-.582,1.121-.2.411-.29,1.04-.851,1.069-.526.028-.716-.547-.891-.939a8.033,8.033,0,0,0-2.168-2.949A8.316,8.316,0,0,0,8.145,101.8a8.244,8.244,0,0,0-6.161,2.933C-1.526,108.8.1,115.15,3.123,119.132c3.043,4.012,7.738,7.8,12.59,9.086a2.891,2.891,0,0,0,1.487,0c4.852-1.29,9.547-5.074,12.59-9.086,3.019-3.982,4.649-10.327,1.139-14.395Zm0,0" transform="translate(0.001 -101.804)" fill="#dc3c38"/>
</svg>
