<svg xmlns="http://www.w3.org/2000/svg" width="429.213" height="401.755" viewBox="0 0 429.213 401.755">
  <g id="Group_1" data-name="Group 1" transform="translate(-739.616 -249.986)">
    <path id="Path_1" data-name="Path 1" d="M858.511,482.065l40.97-35.349V589.065l-40.97,7.665Z"/>
    <path id="Path_2" data-name="Path 2" d="M919.747,581.794,919.4,393.306,967,352.574l3.358,207.738Z"/>
    <path id="Path_3" data-name="Path 3" d="M995.982,544.854l51.161-36.5V249.986l-51.161,49.469Z"/>
    <path id="Path_4" data-name="Path 4" d="M1079.562,320.123c19.852-2.569,61.614,11.458,79.413,42.967s16.035,95.525-43.865,158.363S984.83,630.883,889.036,647.529,751.5,629.6,740.84,576.935s51.666-124.5,58.892-131.8,14.506.36,5.535,6.943-53.746,68.808-45.4,108.925,43.214,58.163,99.883,53.369,207.212-66.056,265.925-170.508c.216-.33.559-.866.9-1.4,45.132-91.53-31.592-108.062-44.548-107.583S1059.71,322.692,1079.562,320.123Z"/>
  </g>
</svg>
