<svg xmlns="http://www.w3.org/2000/svg" width="32.001" height="32" viewBox="0 0 32.001 32">
  <path id="puzzle" d="M28.834,16.535A3.163,3.163,0,0,0,26.2,17.942a.04.04,0,0,1-.006.011c-.017.025-.034.051-.05.078a.844.844,0,0,1-1.53-.49V7.392H14.468a.844.844,0,0,1-.477-1.54.7.7,0,0,1,.076-.046,3.166,3.166,0,1,0-3.518,0l.011.006.078.051a.844.844,0,0,1-.489,1.53H0V17.541a.844.844,0,0,0,1.53.49c.016-.028.034-.053.051-.078a.077.077,0,0,0,.006-.011,3.164,3.164,0,1,1,0,3.517.784.784,0,0,0-.047-.076A.844.844,0,0,0,0,21.861V32.007H10.15a.844.844,0,0,0,.489-1.53c-.028-.017-.052-.033-.078-.05a.058.058,0,0,0-.011-.007,3.164,3.164,0,1,1,3.518,0,.787.787,0,0,0-.076.047.844.844,0,0,0,.477,1.54H24.616V21.86a.844.844,0,0,1,1.54-.477.728.728,0,0,1,.046.076,3.166,3.166,0,1,0,2.632-4.924Z" transform="translate(0 -0.007)" fill="#f5b445"/>
</svg>
