<svg xmlns="http://www.w3.org/2000/svg" width="34" height="33.007" viewBox="0 0 34 33.007">
  <g id="recycle-sign" transform="translate(0 -8.001)">
    <path id="Path_1182" data-name="Path 1182" d="M121.622,11.143,119.665,8h-2.756a3.594,3.594,0,0,0-3.082,1.745L112,12.714l6.48,4.124Z" transform="translate(-103.809 0)" fill="#6a9923"/>
    <path id="Path_1183" data-name="Path 1183" d="M228.364,13.664l-2.267-3.9A3.319,3.319,0,0,0,223.151,8h-7.063l5.3,10.014-2.945,1.767,8.767,1,4.193-8.655Z" transform="translate(-200.344 0)" fill="#88b337"/>
    <path id="Path_1184" data-name="Path 1184" d="M343.069,176,336,180.125l2.946,5.3h4.713l1.231-1.988a3.593,3.593,0,0,0,.084-3.634Z" transform="translate(-311.426 -155.62)" fill="#6a9923"/>
    <path id="Path_1185" data-name="Path 1185" d="M205.891,266.946V264L200,270.481l5.891,7.658v-2.356H210.6a3.209,3.209,0,0,0,2.945-1.767l4.124-7.069Z" transform="translate(-185.441 -237.131)" fill="#88b337"/>
    <path id="Path_1186" data-name="Path 1186" d="M61.954,312l-1.434,3.306,1.793,3.1a3.738,3.738,0,0,0,3.176,1.836h2.356V312Z" transform="translate(-56.063 -281.597)" fill="#6a9923"/>
    <path id="Path_1187" data-name="Path 1187" d="M12.96,143.659,9.426,136,0,136.59l3.369,2.089L1.178,143.07a3.645,3.645,0,0,0,0,3.534l3.278,5.662,1.227-2.128,4.378-7.6Z" transform="translate(0 -118.565)" fill="#88b337"/>
  </g>
</svg>
