<svg xmlns="http://www.w3.org/2000/svg" width="25.606" height="33.003" viewBox="0 0 25.606 33.003">
  <g id="resume" transform="translate(-6.5 0)">
    <path id="Path_1022" data-name="Path 1022" d="M32.106,7.966,24.14,0H6.5V33H32.106Z" transform="translate(0)" fill="#cfbc81"/>
    <path id="Path_1023" data-name="Path 1023" d="M37.5,0V7.964h7.964Z" transform="translate(-13.358)" fill="#977c43"/>
    <g id="Group_4" data-name="Group 4" transform="translate(11.624 16.502)">
      <path id="Path_1024" data-name="Path 1024" d="M25.739,34h-9.67a.569.569,0,1,0,0,1.138h9.67a.569.569,0,1,0,0-1.138Z" transform="translate(-15.5 -31.156)" fill="#977c43"/>
      <path id="Path_1025" data-name="Path 1025" d="M40.619,29.569A.569.569,0,0,0,40.051,29H36.069a.569.569,0,0,0,0,1.138h3.982A.569.569,0,0,0,40.619,29.569Z" transform="translate(-24.123 -29)" fill="#977c43"/>
      <path id="Path_1026" data-name="Path 1026" d="M21.069,30.138h5.688a.569.569,0,0,0,0-1.138H21.069a.569.569,0,0,0,0,1.138Z" transform="translate(-17.656 -29)" fill="#977c43"/>
      <path id="Path_1033" data-name="Path 1033" d="M21.069,30.138h5.688a.569.569,0,0,0,0-1.138H21.069a.569.569,0,0,0,0,1.138Z" transform="translate(-15.943 -20.75)" fill="#4d4d4d"/>
      <path id="Path_1027" data-name="Path 1027" d="M16.069,30.145a.587.587,0,0,0,.4-.165.571.571,0,1,0-.973-.4.574.574,0,0,0,.165.4A.559.559,0,0,0,16.069,30.145Z" transform="translate(-15.5 -29.007)" fill="#977c43"/>
      <path id="Path_1028" data-name="Path 1028" d="M37.665,34.17a.585.585,0,0,0-.165.4.563.563,0,0,0,.165.4.577.577,0,0,0,.808,0,.563.563,0,0,0,.165-.4.569.569,0,0,0-.973-.4Z" transform="translate(-24.986 -31.161)" fill="#977c43"/>
      <path id="Path_1029" data-name="Path 1029" d="M42.665,34.17a.585.585,0,0,0-.165.4.563.563,0,0,0,.165.4.6.6,0,0,0,.4.165.578.578,0,0,0,.4-.171.56.56,0,0,0,.165-.4.569.569,0,0,0-.973-.4Z" transform="translate(-27.142 -31.161)" fill="#977c43"/>
    </g>
    <g id="Group_5" data-name="Group 5" transform="translate(11.816 22.218)">
      <path id="Path_1030" data-name="Path 1030" d="M19.358,39.113a3.763,3.763,0,0,0-1.818,3.175l-.706-.592c-.558-.468-1.367.333-.8.8l1.6,1.337a.575.575,0,0,0,.971-.4c.042-1.233.1-2.7,1.336-3.341C20.583,39.757,20.007,38.775,19.358,39.113Z" transform="translate(-15.839 -39.043)" fill="#4d4d4d"/>
    </g>
    <path id="Path_1032" data-name="Path 1032" d="M21.526,15.3l-1.428-.73a.292.292,0,0,1-.159-.26v-.437a2.4,2.4,0,0,0,1.359-1.7.758.758,0,0,0,.536-.721v-.379a.757.757,0,0,0-.408-.668c-.167-1.426-1.11-2-2.625-2-.072,0-.142,0-.211.009a2.279,2.279,0,0,1-1.464-.345,1.908,1.908,0,0,1-.433-.381.076.076,0,0,0-.135.055c.015.133.038.287.071.457.125.63.051.538-.193,1.131a3.92,3.92,0,0,0-.262,1.079.758.758,0,0,0-.406.667v.379a.758.758,0,0,0,.536.721,2.4,2.4,0,0,0,1.359,1.7v.435a.292.292,0,0,1-.163.262l-1.464.721a1.231,1.231,0,0,0-.536.6,5.663,5.663,0,0,0,6.59.007A1.235,1.235,0,0,0,21.526,15.3Z" transform="translate(-3.879 -3.301)" fill="#977c43"/>
  </g>
</svg>
