<svg xmlns="http://www.w3.org/2000/svg" width="14.027" height="33.002" viewBox="0 0 14.027 33.002">
  <g id="science" transform="translate(-128.534 0)">
    <g id="Layer_2_40_" transform="translate(128.534 0)">
      <g id="Group_19" data-name="Group 19" transform="translate(0 0)">
        <path id="Path_1151" data-name="Path 1151" d="M158.853,233.023h8.069c.029,0,.058,0,.086,0a6.633,6.633,0,0,0,.721-2.423h-9.594A6.608,6.608,0,0,0,158.853,233.023Z" transform="translate(-155.919 -213.602)" fill="none"/>
        <path id="Path_1152" data-name="Path 1152" d="M185.176,284.852l.032.013.032-.013a8.309,8.309,0,0,0,3.071-2.06H182.1A8.315,8.315,0,0,0,185.176,284.852Z" transform="translate(-178.195 -261.938)" fill="none"/>
        <path id="Path_1153" data-name="Path 1153" d="M159.235,181.512a6.642,6.642,0,0,0-.735,2.276h9.541a6.623,6.623,0,0,0-.729-2.266h-7.925A1.3,1.3,0,0,1,159.235,181.512Z" transform="translate(-156.256 -168.128)" fill="none"/>
        <path id="Path_1154" data-name="Path 1154" d="M182.984,137.011h6.076a8.34,8.34,0,0,0-3.006-1.99l-.032-.013-.032.013A8.334,8.334,0,0,0,182.984,137.011Z" transform="translate(-179.008 -125.051)" fill="none"/>
        <path id="Path_1155" data-name="Path 1155" d="M166.129,163.246a1.432,1.432,0,0,0,.159.01h8.273a7.094,7.094,0,0,0-1.113-1.488h-6.211A7.1,7.1,0,0,0,166.129,163.246Z" transform="translate(-163.314 -149.836)" fill="#f3c525"/>
        <path id="Path_1156" data-name="Path 1156" d="M165.513,262.919a7.061,7.061,0,0,0,1.085,1.488h6.346a7.058,7.058,0,0,0,1.082-1.485c-.03,0-.059,0-.09,0Z" transform="translate(-162.744 -243.525)" fill="#f3c525"/>
        <path id="Path_1157" data-name="Path 1157" d="M154.836,212.662v.131q0,.261.031.517H164.92q.027-.262.032-.528v-.131a6.325,6.325,0,0,0-.058-.741h-10A6.347,6.347,0,0,0,154.836,212.662Z" transform="translate(-152.867 -196.279)" fill="#f3c525"/>
        <path id="Path_1158" data-name="Path 1158" d="M137.467,23.914a8.536,8.536,0,0,0,5.095-7.4v-.15a8.532,8.532,0,0,0-5.1-7.393,8.766,8.766,0,0,0,2.828-2.99A7.863,7.863,0,0,0,141.2.685a1.068,1.068,0,0,0-1.213-.678c-.59.059-1,.458-.922.891a6.841,6.841,0,0,1-3.518,7.179A6.841,6.841,0,0,1,132.029.9c.08-.433-.333-.833-.922-.891a1.068,1.068,0,0,0-1.213.678,7.863,7.863,0,0,0,.908,5.293,8.766,8.766,0,0,0,2.828,2.99,8.536,8.536,0,0,0-5.1,7.4v.15a8.532,8.532,0,0,0,5.095,7.393,8.75,8.75,0,0,0-2.861,3.05,7.846,7.846,0,0,0-.848,5.362,1.028,1.028,0,0,0,1.064.675,1.458,1.458,0,0,0,.161-.009c.589-.065.994-.468.906-.9a6.81,6.81,0,0,1,3.5-7.289,6.81,6.81,0,0,1,3.5,7.289c-.088.433.318.836.906.9a1.459,1.459,0,0,0,.161.009,1.029,1.029,0,0,0,1.064-.675,7.846,7.846,0,0,0-.848-5.362A8.746,8.746,0,0,0,137.467,23.914Zm-1.951-1.01a8.2,8.2,0,0,1-3.028-2.031,6.951,6.951,0,0,1-1.046-1.467,6.417,6.417,0,0,1-.723-2.385q-.025-.253-.03-.51v-.129a6.446,6.446,0,0,1,.8-2.984,6.99,6.99,0,0,1,1.068-1.457,8.217,8.217,0,0,1,2.963-1.962l.032-.013.032.013a8.223,8.223,0,0,1,2.963,1.962,6.987,6.987,0,0,1,1.074,1.467,6.423,6.423,0,0,1,.789,2.964V16.5q0,.263-.03.521a6.436,6.436,0,0,1-.725,2.388,6.954,6.954,0,0,1-1.044,1.464A8.19,8.19,0,0,1,135.58,22.9l-.032.013Z" transform="translate(-128.534 0)" fill="#6a9923"/>
      </g>
    </g>
  </g>
</svg>
