<svg xmlns="http://www.w3.org/2000/svg" width="32.509" height="33.012" viewBox="0 0 32.509 33.012">
  <g id="tomato" transform="translate(-0.393 0)">
    <path id="Path_1034" data-name="Path 1034" d="M29.3,5.439c-1.629-1.056-4.69-2.527-7.63-1.168a.426.426,0,0,1-.605-.39V1.149A1.063,1.063,0,0,0,20.127,0H18.713a1.064,1.064,0,0,0-.943,1.149V4.043a.427.427,0,0,1-.51.425A10.265,10.265,0,0,0,10,5.623a.436.436,0,0,0,.3.8,8.867,8.867,0,0,1,4.424.059.436.436,0,0,1,.079.765,9.856,9.856,0,0,0-3.534,4.333.429.429,0,0,0,.67.5c1.346-1.122,3.562-2.641,5.44-2.4a.436.436,0,0,1,.386.437c-.019,1.275,0,5.605,1.038,7.245a.427.427,0,0,0,.71.023,11.973,11.973,0,0,0,2.042-7.182A.433.433,0,0,1,22,9.759a7.5,7.5,0,0,1,4.96,2.054.428.428,0,0,0,.721-.368,5.555,5.555,0,0,0-2.945-4.112.434.434,0,0,1,.1-.8,15.815,15.815,0,0,1,4.226-.3A.435.435,0,0,0,29.3,5.439Z" transform="translate(-3.355)" fill="#88b337"/>
    <path id="Path_1035" data-name="Path 1035" d="M26.491,9.876a.446.446,0,0,0-.2-.077c-.256-.031-.512-.061-.767-.1l-.274-.025a15.14,15.14,0,0,0-3.734.3.43.43,0,0,0-.112.793,5.507,5.507,0,0,1,2.958,4.077.429.429,0,0,1-.724.365,7.592,7.592,0,0,0-4.981-2.037.432.432,0,0,0-.445.443,11.776,11.776,0,0,1-2.051,7.122.432.432,0,0,1-.714-.022C14.4,19.1,14.383,14.8,14.4,13.539a.435.435,0,0,0-.388-.434C12.127,12.862,9.9,14.37,8.55,15.482a.43.43,0,0,1-.673-.494,9.811,9.811,0,0,1,3.547-4.294.429.429,0,0,0-.082-.759,4.133,4.133,0,0,0-.768-.207.47.47,0,0,0-.149,0,36.685,36.685,0,0,0-4.548.9.459.459,0,0,0-.178.092A14.214,14.214,0,0,0,.393,21.659c0,8.177,7.278,14.806,16.254,14.806S32.9,29.837,32.9,21.659A14.376,14.376,0,0,0,26.491,9.876Z" transform="translate(0 -3.453)" fill="#d13834"/>
    <path id="Path_1036" data-name="Path 1036" d="M4.96,32.572a.642.642,0,0,1-.554-.315,7.285,7.285,0,0,1-.937-2.666A.643.643,0,1,1,4.742,29.4a6.082,6.082,0,0,0,.771,2.2.643.643,0,0,1-.553.97Z" transform="translate(-1.095 -10.438)" fill="#ed7161"/>
    <path id="Path_1037" data-name="Path 1037" d="M4.231,24.694l-.045,0a.643.643,0,0,1-.6-.686,9.04,9.04,0,0,1,.522-2.466.643.643,0,1,1,1.208.442A7.715,7.715,0,0,0,4.872,24.1.643.643,0,0,1,4.231,24.694Z" transform="translate(-1.14 -7.64)" fill="#ed7161"/>
  </g>
</svg>
