<svg height="512pt" viewBox="0 -48 512 512" width="512pt" xmlns="http://www.w3.org/2000/svg"><path d="m507.605469 330.894531c-2.8125-2.8125-6.628907-4.394531-10.605469-4.394531h-25.566406v-256c0-8.285156-6.714844-15-15-15h-185.441406v-40.5c0-8.285156-6.714844-15-15-15h-240.988282c-8.28125 0-14.99999975 6.714844-14.99999975 15v180.796875c0 8.28125 6.71874975 15 14.99999975 15h25.5625v115.703125h-25.566406c-3.980469 0-7.796875 1.582031-10.609375 4.394531-2.8125 2.816407-4.39453125 6.632813-4.390625 10.613281l.00390625 10.015626c.01171875 35.828124 29.17187475 64.976562 64.99999975 64.976562h381.996094c35.839844 0 65-29.15625 65-64.996094v-10.003906c0-3.976562-1.578125-7.792969-4.394531-10.605469zm-477.601563-300.894531h210.988282v150.796875h-210.988282zm225.988282 180.796875c8.285156 0 15-6.714844 15-15v-110.296875h170.441406v240.535156h-29.433594v-45.007812c0-16.863282-9.332031-31.582032-23.097656-39.289063 4.082031-7.085937 6.433594-15.292969 6.433594-24.042969 0-26.648437-21.683594-48.332031-48.335938-48.332031-26.648438 0-48.332031 21.679688-48.332031 48.332031 0 8.75 2.347656 16.957032 6.429687 24.042969-13.765625 7.707031-23.097656 22.425781-23.097656 39.289063v45.007812h-211.433594v-115.238281zm72.675781 6.898437c0-10.109374 8.222656-18.332031 18.332031-18.332031s18.335938 8.222657 18.335938 18.332031c0 10.109376-8.226563 18.332032-18.335938 18.332032s-18.332031-8.222656-18.332031-18.332032zm-16.667969 63.332032c0-8.269532 6.730469-15 15-15h40c8.273438 0 15 6.730468 15 15v44.6875h-70zm135 105.472656h-381.996094c-17.601562 0-32.210937-13.0625-34.644531-30h451.285156c-2.433593 16.941406-17.042969 30-34.644531 30zm0 0"/><path d="m196.003906 60.003906h-121c-8.28125 0-15 6.714844-15 15 0 8.28125 6.71875 15 15 15h121c8.28125 0 15-6.71875 15-15 0-8.285156-6.71875-15-15-15zm0 0"/><path d="m156.003906 120.003906h-81c-8.28125 0-15 6.714844-15 15 0 8.28125 6.71875 15 15 15h81c8.28125 0 15-6.71875 15-15 0-8.285156-6.71875-15-15-15zm0 0"/></svg>