<svg id="Capa_1" enable-background="new 0 0 512 512" height="512" viewBox="0 0 512 512" width="512" xmlns="http://www.w3.org/2000/svg"><g><path d="m211.173 180.564-5.238 31.517c-.932 5.605 1.383 11.255 5.98 14.595s10.686 3.795 15.728 1.178l28.357-14.721 28.356 14.721c5.082 2.638 11.168 2.136 15.728-1.178 4.597-3.34 6.912-8.99 5.98-14.594l-5.238-31.517 22.763-22.419c4.048-3.987 5.496-9.919 3.74-15.322s-6.413-9.351-12.031-10.198l-31.594-4.758-14.288-28.576c-2.541-5.082-7.734-8.292-13.416-8.292s-10.875 3.21-13.417 8.292l-14.288 28.576-31.592 4.758c-5.618.846-10.276 4.794-12.032 10.198s-.308 11.335 3.74 15.322zm29.29-24.19c4.828-.727 8.999-3.758 11.183-8.125l4.354-8.708 4.354 8.708c2.184 4.366 6.355 7.397 11.183 8.125l9.627 1.45-6.937 6.832c-3.478 3.426-5.072 8.33-4.271 13.146l1.596 9.604-8.641-4.486c-4.332-2.249-9.489-2.25-13.822 0l-8.641 4.486 1.596-9.604c.801-4.816-.793-9.72-4.271-13.146l-6.937-6.832z"/><path d="m91.031 359.648c-.015.449-.031.898-.031 1.352 0 18.75 12.638 28.228 21 34.5 7.57 5.677 9 7.346 9 10.5s-1.43 4.823-9 10.5c-8.362 6.272-21 15.75-21 34.5 0 18.554 12.487 28.336 20.75 34.808 7.279 5.702 9.25 7.737 9.25 11.192 0 8.284 6.716 15 15 15s15-6.716 15-15c0-18.554-12.487-28.336-20.75-34.808-7.279-5.702-9.25-7.737-9.25-11.192 0-3.154 1.43-4.823 9-10.5 8.362-6.272 21-15.75 21-34.5s-12.638-28.228-21-34.5c-7.57-5.677-9-7.346-9-10.5 0-.509.035-.969.12-1.415 26.78-4.987 51.047-23.057 67.647-50.323 12.781 8.979 26.689 15.29 41.269 18.72-8.239 6.278-19.036 15.685-19.036 33.018 0 18.75 12.638 28.228 21 34.5 7.57 5.677 9 7.346 9 10.5s-1.43 4.823-9 10.5c-8.362 6.272-21 15.75-21 34.5 0 18.554 12.487 28.336 20.75 34.808 7.279 5.702 9.25 7.737 9.25 11.192 0 8.284 6.716 15 15 15s15-6.716 15-15c0-18.554-12.487-28.336-20.75-34.808-7.279-5.702-9.25-7.737-9.25-11.192 0-3.154 1.43-4.823 9-10.5 8.362-6.272 21-15.75 21-34.5s-12.638-28.228-21-34.5c-7.57-5.677-9-7.346-9-10.5s1.43-4.823 9-10.5c5.892-4.419 13.9-10.435 18.121-20.159 19.628-2.103 38.339-9.297 55.112-21.079 10.573 17.366 24.254 31 39.717 39.902-1.186 3.441-1.95 7.376-1.95 11.836 0 18.75 12.638 28.228 21 34.5 7.57 5.677 9 7.346 9 10.5s-1.43 4.823-9 10.5c-8.362 6.272-21 15.75-21 34.5 0 18.554 12.487 28.336 20.75 34.808 7.279 5.702 9.25 7.737 9.25 11.192 0 8.284 6.716 15 15 15s15-6.716 15-15c0-18.554-12.487-28.336-20.75-34.808-7.279-5.702-9.25-7.737-9.25-11.192 0-3.154 1.43-4.823 9-10.5 8.362-6.272 21-15.75 21-34.5s-12.638-28.228-21-34.5c-7.57-5.677-9-7.346-9-10.5 0-.471.018-.917.102-1.371 4.894.898 9.869 1.371 14.898 1.371 58.448 0 106-60.561 106-135s-47.552-135-106-135c-9.493 0-18.764 1.583-27.72 4.706-21.564-56.489-68.264-95.706-122.28-95.706s-100.716 39.217-122.279 95.706c-8.957-3.123-18.228-4.706-27.721-4.706-58.449 0-106 60.561-106 135 0 67.968 39.646 124.356 91.031 133.648zm314.969-238.648c46.29 0 76 54.965 76 105 0 49.341-29.271 105-76 105-23.406 0-45.701-15.881-59.86-42.049 30.189-33.157 44.86-78.135 44.86-122.951 0-14.303-1.479-28.19-4.258-41.441 6.252-2.36 12.696-3.559 19.258-3.559zm-150-91c61.973 0 105 67.341 105 136 0 81.09-52.758 135-105 135-64.174 0-105-69.919-105-135 0-67.413 42.149-136 105-136zm-150 91c6.563 0 13.007 1.199 19.258 3.559-2.779 13.251-4.258 27.138-4.258 41.441 0 44.846 14.689 89.812 44.86 122.951-14.158 26.168-36.453 42.049-59.86 42.049-46.202 0-76-54.825-76-105 0-49.814 29.568-105 76-105z"/></g></svg>