<svg height="512pt" viewBox="0 0 512 512" width="512pt" xmlns="http://www.w3.org/2000/svg"><path d="m512 152v100c0 11.046875-8.953125 20-20 20s-20-8.953125-20-20v-100c0-18.921875-13.421875-35.402344-31.917969-39.1875-10.820312-2.214844-17.796875-12.78125-15.582031-23.605469 2.214844-10.820312 12.78125-17.800781 23.601562-15.582031 37.027344 7.578125 63.898438 40.539062 63.898438 78.375zm-20 180c-11.046875 0-20 8.953125-20 20 0 22.054688-17.945312 40-40 40h-352c-22.054688 0-40-17.945312-40-40v-200c0-18.921875 13.421875-35.402344 31.917969-39.1875 10.820312-2.214844 17.796875-12.78125 15.582031-23.605469-2.214844-10.820312-12.785156-17.796875-23.601562-15.582031-37.027344 7.578125-63.898438 40.539062-63.898438 78.375v200c0 44.113281 35.886719 80 80 80h156v39.878906h-70c-11.046875 0-20 8.953125-20 20s8.953125 20 20 20h180c11.046875 0 20-8.953125 20-20s-8.953125-20-20-20h-70v-39.878906h156c44.113281 0 80-35.886719 80-80 0-11.046875-8.953125-20-20-20zm-376-192c0-77.195312 62.804688-140 140-140s140 62.804688 140 140-62.804688 140-140 140-140-62.804688-140-140zm40 0c0 55.140625 44.859375 100 100 100s100-44.859375 100-100-44.859375-100-100-100-100 44.859375-100 100zm60 20h20v20c0 11.046875 8.953125 20 20 20s20-8.953125 20-20v-20h20c11.046875 0 20-8.953125 20-20s-8.953125-20-20-20h-20v-20c0-11.046875-8.953125-20-20-20s-20 8.953125-20 20v20h-20c-11.046875 0-20 8.953125-20 20s8.953125 20 20 20zm0 0"/></svg>