<svg id="Capa_1" enable-background="new 0 0 512 512" height="512" viewBox="0 0 512 512" width="512" xmlns="http://www.w3.org/2000/svg"><g><path d="m497 419.969h-48.461c38.451-28.234 63.461-73.748 63.461-125 0-85.467-69.533-155-155-155s-155 69.533-155 155c0 51.252 25.011 96.766 63.461 125h-48.461c-8.284 0-15 6.716-15 15v32c0 24.813 20.187 45 45 45h220c24.813 0 45-20.187 45-45v-32c0-8.284-6.716-15-15-15zm-265-125c0-68.925 56.075-125 125-125s125 56.075 125 125-56.075 125-125 125-125-56.074-125-125zm250 172c0 8.271-6.729 15-15 15h-220c-8.271 0-15-6.729-15-15v-17h250z"/><path d="m332.251 362.175c5.858 5.858 15.355 5.858 21.213 0l70.71-70.71c5.858-5.858 5.858-15.355 0-21.213s-15.355-5.858-21.213 0l-70.71 70.71c-5.858 5.858-5.858 15.355 0 21.213z"/><path d="m311.038 319.749 70.71-70.71c5.858-5.858 5.858-15.355 0-21.213s-15.355-5.858-21.213 0l-70.71 70.71c-5.858 5.858-5.858 15.355 0 21.213s15.355 5.858 21.213 0z"/><path d="m230 35.057c0-6.034-3.617-11.481-9.179-13.823-67.251-28.312-144.391-28.312-211.642 0-5.562 2.342-9.179 7.789-9.179 13.823 0 27.468 5.331 54.264 15.843 79.641 10.337 24.953 25.196 47.325 44.157 66.531v275.778c0 30.323 24.673 54.993 55 54.993s55-24.67 55-54.993v-275.778c18.961-19.206 33.82-41.578 44.157-66.531 10.512-25.377 15.843-52.173 15.843-79.641zm-90 421.95c0 13.784-11.215 24.997-25 24.997s-25-11.214-25-24.997v-84.99h50zm0-114.987h-50v-151.981h50zm8.766-181.978h-67.532c-30.679-31.13-48.554-71.564-50.956-114.908 12.939-4.807 26.238-8.456 39.722-10.975v50.892c0 8.283 6.716 14.998 15 14.998s15-6.715 15-14.998v-54.6c9.989-.611 20.011-.611 30 0v54.6c0 8.283 6.716 14.998 15 14.998s15-6.715 15-14.998v-50.892c13.484 2.519 26.783 6.169 39.722 10.976-2.402 43.343-20.277 83.777-50.956 114.907z"/></g></svg>