<svg id="Capa_1" enable-background="new 0 0 512 512" height="512" viewBox="0 0 512 512" width="512" xmlns="http://www.w3.org/2000/svg"><g><g><path d="m256.042 512h-.028c-5.523 0-10-4.477-10-10s4.477-10 10-10 10.014 4.477 10.014 10-4.463 10-9.986 10z"/></g><path d="m414.061 369.245v-39.872c0-.055 0-.11-.001-.165-.456-27.735-10.892-48.256-31.903-62.735-17.493-12.055-39.509-17.987-60.8-23.723-6.067-1.635-11.896-3.205-17.501-4.88v-21.161c22.812-15.416 37.841-41.522 37.841-71.074v-10.712c1.161-.872 2.278-1.828 3.335-2.882 11.212-11.212 12.184-28.84 2.929-41.173v-40.107c-.001-27.99-22.772-50.761-50.761-50.761h-82.4c-27.989 0-50.76 22.771-50.76 50.761v40.108c-9.255 12.333-8.282 29.961 2.941 41.185 1.053 1.05 2.167 2.002 3.323 2.872v10.709c0 29.547 15.028 55.649 37.841 71.066v21.169c-5.605 1.675-11.435 3.246-17.501 4.88-21.291 5.736-43.307 11.668-60.8 23.723-21.012 14.479-31.447 35-31.903 62.735-.001.055-.001.11-.001.165v39.872c-4.657 4.703-7.54 11.167-7.54 18.294v28.459c0 14.345 11.67 26.016 26.015 26.016h24.915c1.312 0 2.609-.068 3.889-.191v46.6c0 13.001 10.564 23.578 23.549 23.578h42.319c5.523 0 10-4.477 10-10s-4.477-10-10-10h-42.319c-1.924 0-3.549-1.638-3.549-3.578v-54.29c9.914-7.337 16.355-19.111 16.355-32.364s-6.442-25.026-16.355-32.364v-30.083c0-1.924 1.625-3.549 3.549-3.549h46.662v60.865c0 3.697 2.04 7.092 5.303 8.828 1.473.784 3.086 1.172 4.696 1.172 1.956 0 3.906-.574 5.588-1.707l24.994-16.84 24.967 16.838c3.066 2.068 7.023 2.275 10.286.539 3.265-1.736 5.305-5.131 5.305-8.829v-60.865h46.662c1.939 0 3.577 1.625 3.577 3.549v30.063c-9.929 7.336-16.383 19.119-16.383 32.384s6.454 25.048 16.383 32.384v54.27c0 1.939-1.638 3.578-3.577 3.578h-42.319c-5.523 0-10 4.477-10 10s4.477 10 10 10h42.319c13 0 23.577-10.577 23.577-23.578v-46.597c1.271.122 2.558.189 3.861.189h24.915c14.345 0 26.015-11.67 26.015-26.016v-28.459c.002-7.128-2.881-13.593-7.538-18.296zm-230.021-318.484c0-16.962 13.799-30.761 30.76-30.761h82.4c16.961 0 30.76 13.799 30.76 30.761v22.4c-20.958-14.658-45.851-22.557-71.96-22.557s-51.002 7.898-71.96 22.557zm-2.929 67.139c-4.486-4.487-4.486-11.786-.001-16.273l.002-.001c20.004-20.004 46.6-31.021 74.888-31.021s54.884 11.017 74.888 31.021l.002.001c4.486 4.487 4.485 11.787.012 16.261-4.485 4.469-11.782 4.47-16.255.012-15.667-15.667-36.489-24.295-58.631-24.295s-42.964 8.628-58.619 24.283c-4.494 4.478-11.804 4.478-16.286.012zm9.193 27.735v-4.43c7.71-.257 15.345-3.306 21.222-9.163 11.889-11.889 27.688-18.437 44.488-18.437s32.6 6.547 44.501 18.449c5.863 5.843 13.482 8.886 21.181 9.145v4.437c0 36.234-29.465 65.712-65.682 65.712-36.232-.001-65.71-29.479-65.71-65.713zm93.551 81.042v18.538c0 15.352-12.489 27.842-27.841 27.842-15.367 0-27.869-12.49-27.869-27.842v-18.545c8.744 3.016 18.114 4.677 27.869 4.677 9.745 0 19.105-1.659 27.841-4.67zm-167.44 195.337c-3.317 0-6.015-2.699-6.015-6.016v-28.459c0-3.317 2.698-6.015 6.015-6.015h24.915c11.163 0 20.245 9.082 20.245 20.245s-9.082 20.245-20.245 20.245zm160.155-44.181-14.965-10.092c-3.378-2.279-7.801-2.28-11.179-.002l-14.997 10.104v-42.069h41.141zm66.662-62.06h-174.464c-12.985 0-23.549 10.564-23.549 23.549v22.393c-1.28-.123-2.577-.191-3.889-.191h-23.391v-32.064c.364-21.055 7.754-35.838 23.253-46.519 14.665-10.105 34.994-15.583 54.654-20.88 4.661-1.256 9.402-2.542 14.097-3.891 5.669 20.102 24.169 34.885 46.07 34.885 21.889 0 40.378-14.782 46.043-34.884 4.694 1.348 9.436 2.634 14.096 3.89 19.66 5.297 39.99 10.774 54.654 20.88 15.5 10.681 22.89 25.463 23.253 46.519v32.063h-23.389c-1.303 0-2.59.068-3.861.189v-22.39c.001-12.985-10.576-23.549-23.577-23.549zm58.369 100.226c0 3.317-2.698 6.016-6.015 6.016h-24.916c-3.235 0-6.284-.782-8.998-2.137-.238-.133-.485-.252-.735-.366-6.259-3.448-10.511-10.106-10.511-17.742 0-11.163 9.082-20.245 20.244-20.245h24.915c3.317 0 6.015 2.698 6.015 6.015v28.459z"/></g></svg>