<svg width="220" height="159" fill="none" xmlns="http://www.w3.org/2000/svg"><g clip-path="url(#clip0)"><g clip-path="url(#clip1)"><path d="M106.067 156.217L76.59 258.083l11.072 3.356 28.945-102.18a5.53 5.53 0 0 0-2.311-6.152c-3.081-1.998-7.207-.44-8.229 3.11z" fill="#353338"/><path d="M170.592 93.411l30.633-.82s5.14 23.647 3.814 23.833c-1.326.187-41.38.813-41.38.813l.756-10.313 6.177-13.513z" fill="#F4622F"/><path d="M153.512 21.612s2.755 7.51-1.281 11.104c-4.037 3.595-15.05.47-18.776 10.94-3.725 10.47-1.088 12.812-8.687 17.032-7.607 4.221-27.004 8.285-29.019 19.374-2.014 11.097 3.726 19.061-.622 26.094-4.347 7.032-22.656 7.815-24.834 17.502-2.17 9.687 23.271 31.559 23.271 31.559l56.4-40.351s13.71-4.616 14.206-5.37c.496-.753 5.347-14.84 6.414-16.085 1.066-1.245 3.318-59.032 3.318-59.032l-20.39-12.767z" fill="#fff"/><path d="M234.539 110.929v60.046l-137.997-.768-8.902-49.114c0-2.655 2.088-4.84 4.725-4.937l142.174-5.227z" fill="#C6B3B3"/><path d="M98.957 221.52l10.258-41.179s-59.266 2.044-70.443-.768c-11.176-2.811-4.843-21.939-4.843-21.939s86.566-2.58 91.898 1.081c11.784 8.099-7.621 61.829-7.621 61.829l-19.25.976z" fill="#FFB031"/><path d="M96.49 126.044c.793-.269 138.041-2.953 138.041-2.953l.037 2.558-138.026 2.707-.052-2.312zm-7.317 14.296c.977-.06 145.351-1.991 145.351-1.991l.022 2.334-145.358 1.849-.015-2.192zm7.391 15.437c.978-.06 137.96-1.223 137.96-1.223l.022 2.334-137.967 1.081-.014-2.192z" fill="#877A7A"/><path d="M119.636 127.148l-.252 13.349 2.57-.134v-13.215h-2.318zm37.705-.343l-.259 13.348 2.578-.134v-13.214h-2.319zm-17.242 14.593l-.489 14.84 2.578-.126.229-14.714h-2.318zm41.269-.506l-.489 14.84 2.577-.135.23-14.705h-2.318zm26.322-15.735l-.489 14.84 2.578-.127.229-14.713h-2.318z" fill="#877A7A"/><path d="M152.965 49.077l4.703 60.412s-5.392 1.521-7.577 2.878c-2.185 1.358-2.689 11.507-1.178 11.679 1.511.171 2.859-8.464 2.859-8.464s.504 8.292 2.859 7.613c2.355-.678 1.178-8.628 1.178-8.628l2.355-.507s0 7.786 2.355 7.279c2.355-.508 2.096-7.45 2.096-7.45s12.324.38 12.658-.806c.177-.634.755-2.848-4.17-3.512-2.348-.313-4.755-.351-4.755-.351l.037-60.65-13.42.507z" fill="#F9C3AF"/><path d="M169.014 42.962s-6.488 12.887-7.666 23.036c-1.177 10.157 9.073 13.878 9.073 13.878l.17 13.535 23.701-.336.17-15.399-10.754-36.548-14.694 1.834z" fill="#FFA894"/><path d="M183.109 43.268c-.045-.372-2.607-14.907-2.607-14.907l-11.443 3.349.2 7.733s-.46 7.107-.985 10.388c-1.097 6.808-3.43 15.533 9.265 15.011 12.961-.537 6.458-13.833 5.57-21.574z" fill="#F9C3AF"/><path d="M119.702 63.023l3.548 8.881 1.496 4.616-6.385-2.498s-4.244-2.088-3.184-5.742l1.059-3.654 3.466-1.604z" fill="#E8A595"/><path d="M73.48 83.978s-1.964 3.833-.83 6.3c2.695 5.892 2.192 7.645 2.192 7.645L62.606 93.38l2.34-7.561 8.533-1.842z" fill="#212023"/><path d="M169.244 36.759l-.052 4.198s13.473-.276 13.473-.432c0-.164-.215-3.267-.215-3.267l-13.206-.5z" fill="#353338"/><path d="M176.939 29.645c-4.644 4.079-7.903 4.079-7.903 4.079l.133 2.543c.008 0 6.511-.873 7.77-6.623z" fill="#E8A595"/><path d="M48.919 90.309L44 157.566l24.9 9.344 25.064-10.299L72.782 97.99l-5.599-5.593-2.503-1.455-15.761-.633z" fill="#EFEFEF"/><path d="M75.034 120.257c0 .432-2.296 34.341-2.296 34.341l20.494 1.588-1.578-11.544-1.577-11.835-15.043-12.55z" fill="#4153D6"/><path d="M163.518 3.864c-3.466.955-12.472 5.094-9.998 17.749 2.355 12.058 14.25 14.922 23.841 9.47 10.206-5.801 8.043-9.351 8.043-15.056 0-5.705-9.443-15.6-21.886-12.163z" fill="#F9C3AF"/><path d="M173.28 22.582a1.094 1.094 0 0 0-.252-.156c.067.194.059.41.022.611-.14.694-.644 1.253-1.222 1.656-1.474 1.029-3.399 1.178-4.969 2.066-.341.193-.667.417-1.022.581a1.88 1.88 0 0 1-.845.18c.252.364.711.603 1.148.737 1.385.418 2.911.187 4.237-.387.851-.366 1.651-.88 2.259-1.574.614-.7 1.022-1.596 1.044-2.528.007-.44-.082-.902-.4-1.186z" fill="#353338"/><path d="M166.859 26.766c1.57-.888 3.496-1.03 4.97-2.066.577-.403 1.081-.97 1.222-1.655a1.217 1.217 0 0 0-.023-.612 1.555 1.555 0 0 0-.437-.142c-1.029-.156-2.273.455-2.984 1.193-.719.746-1.474 1.171-2.482 1.514-.548.187-1.118.32-1.592.65-.474.327-.837.901-.711 1.468.03.15.096.284.178.403.289.015.578-.06.844-.18.356-.156.674-.387 1.015-.573z" fill="#fff"/><path d="M158.934 21.254c-.163.156-.341.335-.371.567-.044.447.474.708.904.835 1.592.47 3.207.947 4.866.97-.97-.5-1.941-1.007-2.911-1.507-.326-.164-.689-.41-.689-.776 0-.216.141-.41.274-.589.748-1.014 1.652-2.595 1.274-3.907-.296.156-.444.775-.607 1.073-.23.426-.504.828-.793 1.216-.585.76-1.251 1.454-1.947 2.118z" fill="#E8A595"/><path d="M159.875 16.974a1.858 1.858 0 0 0-3.422.567c.008 0 .008-.007.015-.015a1.854 1.854 0 0 1 2.563.65c.251.424.318.916.222 1.364.866-.53 1.148-1.678.622-2.566z" fill="#fff"/><path d="M73.657 56.558s.933 6.197-.733 10.671c-1.667 4.474-5.918-9.098-5.918-9.098l7.08-1.544" fill="#212023"/><path d="M156.467 17.534c-.007 0-.007.007-.014.015-.097.454-.037.94.222 1.364a1.863 1.863 0 0 0 2.562.649c.008 0 .008-.007.015-.015.097-.455.037-.94-.222-1.365a1.864 1.864 0 0 0-2.563-.648z" fill="#353338"/><path d="M169.081 14.692a1.858 1.858 0 0 0-3.422.567c.008 0 .008-.007.015-.015a1.854 1.854 0 0 1 2.563.649c.251.425.318.917.222 1.364a1.889 1.889 0 0 0 .622-2.565z" fill="#fff"/><path d="M165.667 15.244c-.008 0-.008.007-.015.014a1.86 1.86 0 0 0 .222 1.365 1.864 1.864 0 0 0 2.563.649c.007 0 .007-.007.014-.015.097-.455.037-.94-.222-1.365a1.86 1.86 0 0 0-2.562-.648z" fill="#353338"/><path d="M182.775 42.12c-.17-2.7-1.237-5.093-6.762-8.665-4.118-2.662.511-8.106 1.185-11.73.666-3.625.755-6.466-5.947-8.181-9.881-2.52-11.051-8.427-11.051-8.427.082-.425 7.288-5.056 17.42-.425 10.132 4.631 9.843 13.401 10.214 16.861.962 8.949 10.317 6.637 13.82 6.66 11.858.096 24.308 3.393 29.411 22.453 5.103 19.061-5.748 35.124 4.251 44.55 9.999 9.426 21.908 18.636 15.317 37.481" fill="#fff"/><path d="M164.037 6.534s.696 3.11-5.948 7.017c-4.999 2.946-4.355 8.061-4.577 8.061-.222 0-3.592-11.29 7.599-17.136" fill="#fff"/><path d="M70.45 59.294c.94 3.14 2.918 8.747 4.422 12.744 1.533 4.072 1.2 12.655-5.696 15.519C62.281 90.42 54.763 84.223 53.66 77.4c-.193-1.193-2.733-2.625-3.015-3.855-1.326-5.802-.918-11.432.615-13.834 1.859-2.908 7.592-6.264 11.22-6.77 3.637-.508 6.889 2.743 7.97 6.353z" fill="#F9C3AF"/><path d="M53.66 77.4l-4.742 12.91s4.214 9.3 9.94 9.426c5.724.12 5.473-3.766 6.94-6.779.792-1.625 2.843-7.815 2.843-7.815l-14.983-7.74z" fill="#F9C3AF"/><path d="M53.659 77.4s2.318 10.359 14.08 10.515l-1.445 3.818c0 .008-13.576-.067-12.635-14.333z" fill="#E8A595"/><path d="M57.155 68.899a1.613 1.613 0 0 0 1.214 1.924c.452.104.897 0 1.252-.246h-.015a1.611 1.611 0 0 1-1.214-1.924c.088-.418.34-.761.666-.977a1.612 1.612 0 0 0-1.903 1.223z" fill="#fff"/><path d="M65.703 177.724l16.872-19.896 16.375 9.68 8.888-10.053s-11.013-15.824-20.308-18.792c-.141.552-2 7.293-9.903 13.274L59.72 172.728a3.668 3.668 0 0 0 .17 5.108c1.474 1.402 4.444 1.387 5.814-.112z" fill="#43464C"/><path d="M87.53 138.663a9.94 9.94 0 0 0-1.659-.396c-4.051-.589-9.51 2.573-9.91 7.987-.192 2.648 1.667 5.683 1.667 5.683 7.91-5.989 9.761-12.723 9.902-13.274z" fill="#9B8C8C"/><path d="M107.89 157.485s-7.266-2.789-9.466 1.089c-2.2 3.878.526 8.941.526 8.941l8.94-10.03z" fill="#353338"/><path d="M105.402 160.334s-4.4-3.848-4.466-3.722c-.067.127-.889.366-.889.366l4.747 3.915.608-.559zm-2.267 2.55l-4.711-4.311-.37.94 4.444 4.086.637-.715z" fill="#6E737A"/><path d="M106.275 156.903l-7.947 9.255-.378-1.402 7.31-7.994 1.015.141z" fill="#6E737A"/><path d="M59.6 70.585h.014c.326-.224.57-.56.667-.977a1.613 1.613 0 0 0-1.215-1.924h-.015a1.611 1.611 0 0 0 .548 2.9z" fill="#353338"/><path d="M66.539 66.856a1.613 1.613 0 0 0 1.214 1.924c.452.105.896 0 1.252-.246h-.015a1.611 1.611 0 0 1-1.215-1.924c.09-.418.341-.76.667-.977a1.6 1.6 0 0 0-1.903 1.223z" fill="#fff"/><path d="M68.983 68.534h.014c.326-.224.57-.56.667-.977a1.613 1.613 0 0 0-1.215-1.924h-.014a1.62 1.62 0 0 0-.667.977 1.614 1.614 0 0 0 1.215 1.924z" fill="#353338"/><path d="M61.22 76.32l6.94 2.11s-5.688 1.469-6.94-2.11zm4.956-7.219c.681.418 1.451.641 2.177.962.2.09.407.194.548.358.252.313.23.768.111 1.148-.377 1.179-1.496 1.94-2.533 2.603-.052.037-.118.075-.177.06-.156-.023-.163-.254-.104-.403.148-.365.4-.671.615-1 .207-.328.377-.723.31-1.103-.036-.239-.17-.462-.303-.664a5.801 5.801 0 0 0-1.052-1.163c-.333-.276-.703-.522-.977-.85-.185-.224-.89-1.835-.252-1.604.266.097.489.627.674.843.274.32.6.597.963.813z" fill="#E8A595"/><path d="M68.487 153.83c1.548.007 6.977.305 7.258.335 0 0-1.185 1.231-2.4 2.767-1.022 1.29 3.993 4.773 5.926 4.817.548.015 2.414-.626 2.414-.626l-.437 2.558a3.311 3.311 0 0 1-1.392 2.185l-2.111 1.469-.06.872a4.023 4.023 0 0 1-2.206 3.334l-1.178.589-.14.47a3.299 3.299 0 0 1-2.69 2.334 8.614 8.614 0 0 1-4.902-.746l-.297-.142a13.453 13.453 0 0 1-5.828-5.324l-6.355-11.41 8.31-4.661 6.088 1.179z" fill="#FBBB9D"/><path d="M56.91 65.618c-.792.231-2.095.463-1.925 1.372.17.91 1.63.276 2.533.12.66-.112 2.696-.135 2.548-1.328-.148-1.193-2.4-.388-3.155-.164zm10.088-2.275c-.792.232-2.222.5-2.051 1.402.17.903 1.755.24 2.659.082.659-.111 2.695-.134 2.547-1.327-.148-1.193-2.4-.373-3.155-.157z" fill="#353338"/><path d="M69.138 48.712c-7.34-1.328-21.7.969-24.982 8.001-3.125 6.69-.125 11.313 2.911 16.444 1.563 2.632 2.955 7.494.06 10.127-2.519 2.289-10.673 2.595-10.784 12.856l12.694-5.876 3.452-9.479-.015-.022 1.222-3.43s-5.073-10.642-.593-15.25c0 0 9.184 2.699 11.08.283 1.215-1.544.386-2.826-.37-3.55 1.511 1.096 4.814 3.147 7.347 2.237 3.392-1.215 5.318-11.014-2.022-12.341z" fill="#353338"/><path d="M32.906 150.041l2.703-26.98-4.184 11.872 31.847 15.377-5.895 15.489s-44.031-13.267-47.157-22.685c-3.125-9.419 14.213-39.464 18.538-42.649 6.415-4.728 20.168-10.156 20.168-10.156l-2.659 60.12-13.36-.388zM66.295 91.74s10.065 1.857 12.68 5.623c2.8 4.027 12.294 30.12 24.174 26.242 11.88-3.877 17.005-35.69 17.524-35.75.518-.06 14.339 3.64 14.568 4.139.237.507-4.103 44.878-30.225 49.091-23.375 3.774-30.078-17.718-30.078-17.718" fill="#5A66FF"/><path d="M119.584 58.324s-4.911 4.75-5.333 8.837c-.385 3.721 1.548 7.636 2.585 10.41.8 2.133 3.837 10.284 3.837 10.284l9.139 2.476-5.066-13.632s-5.54-7.346-5.636-8.158c-.096-.813 2.022-5.802 2.022-5.802l-1.548-4.415z" fill="#F9C3AF"/><path d="M79.204 161.764c.919-1.021 2.548-2.945 3.355-3.9 1.563 1.477 4.43 4.079 4.622 4.601.23.627-1.489 3.319-7.873-.693-.008-.008-.09.007-.104-.008z" fill="#FBBB9D"/><path d="M51.844 59.652c.245.052 3.533 12.372 1.844 17.681-1.696 5.31-2.955 7.995-2.955 7.995l-2.318-17.995 1.592-8.65 1.837.97z" fill="#353338"/><path d="M129.901 45.886c-.311.037-11.435 1.767-11.939 4.705-.503 2.938 3.577 26.324 7.851 26.675 4.273.35 15.191-3.17 15.405-4.042.215-.872-11.591 1.357-11.398.276.192-1.089 10.947-2.349 10.25-3.758-.688-1.41-10.932.64-11.146-.291-.215-.932 9.443-2.49 9.184-3.848-.26-1.357-9.199.738-9.414-.194-.215-.932 8.355-3.52 7.71-4.504-.644-.992-9.45 1.536-9.991.537-.541-1 9.339-3.438 8.68-4.534-.659-1.097-9.517 1.864-9.732.932-.215-.932 8.984-3.721 8.473-4.512-.511-.79-8.954 1.268-9.117.753-.163-.514 8.11-3.08 7.814-3.795-.297-.709-8.629 1.334-8.703.7-.074-.633 8.406-4.183 8.347-4.705-.067-.552-2.274-.395-2.274-.395z" fill="#FFB031"/><path d="M132.167 90.913s.541-5.235-.214-11.992c-.408-3.661 1.703-14.184-1.452-14.437-2.615-.209-3.637 4.057-4.074 6.003-.392 1.775-1.673 6.018-1.673 6.018l-3.089 1.797 3.844 10.866 6.658 1.745z" fill="#F9C3AF"/><path d="M176.502 64.775l-1.755-4.116 2.118 2.401 1.807-2.819-1.133 4.601-1.037-.067z" fill="#E8A595"/><path d="M169.014 42.962c0-.365-.192-6.39-7.687-6.517-7.496-.127-10.955 8.874-11.073 12.647l18.109-.164.651-5.966zm13.828-.662c.052-.165.992-6.019 6.806-6.302 6.807-.328 13.635 3.952 13.524 12.409l-19.086-.328-1.244-5.78z" fill="#FFA894"/><path d="M206.143 104.911c-2.185-15.653-6.999-56.66-6.999-56.66l-13.406-.225 10.214 61.247s-7.807.343-8.392 2.476c-.585 2.133 1.267 9.888 2.918 9.299 1.652-.589.386-8.218.386-8.218s1.54 7.659 3.303 7.182c1.763-.478 1.526-7.107 1.526-7.107s.237 7.815 2.355 7.107c2.118-.709 2.103-7.644 2.103-7.644s5.859.947 6.466-1.425c.407-1.625-.289-4.69-.474-6.032z" fill="#F9C3AF"/><path d="M200.121 54.88s-1.822 10.082-2.126 20.947c-.296 10.865 3.896 17.204 8.095 23.543 4.2 6.338 5.614 11.566 1.096 19.068-6.384 10.589-32.758 29.941-21.96 46.548 10.799 16.608 25.664 15.288 20.872 36.422-4.8 21.134 9.872 45.452 9.872 45.452s45.705-26.996 60.207-105.014c11.865-63.849-44.379-49.53-41.498-70.725 5.251-38.628-19.042-40.053-19.042-40.053" fill="#fff"/><path d="M150.12 156.216l-31.773 110.062 11.606.806 30.707-107.818a5.531 5.531 0 0 0-2.311-6.152c-3.089-2.006-7.214-.447-8.229 3.102z" fill="#353338"/><path d="M35.603 123.062c.022-.015 5.77-11.022 4.458-11.425-1.474-.447-4.57 7.122-4.57 7.122s1.03-8.457-.733-8.009c-1.763.447-3.34 24.184-3.34 24.184l3.059 1.319 1.126-13.191z" fill="#4153D6"/><path d="M207.202 64.663c-.304.306-2.459 16.801 5.94 23.714-3.274-10.828-5.94-23.714-5.94-23.714zm1.54-28.763c.408 0 20.886.41 19.457 15.05-9.117-6.802-19.457-15.05-19.457-15.05zm-97.431 37.183c-.57 0-11.517 6.428-10.947 16.413 6.044-8.262 10.947-16.413 10.947-16.413zm34.388 8.784a15.981 15.981 0 0 1-9.162 4.55c3.311-3.446 6.718-7.592 10.584-10.404 1.392-1.014 2.585-1.245 1.977.738-.57 1.887-2.044 3.751-3.399 5.116zm4.176 11.417c-1.414 2.252-3.399 4.08-5.421 5.787-1.526 1.29-3.103 2.543-4.392 4.064-2.74 3.229-4.333 7.338-3.792 11.559 2.2 0 4.073-.253 6.31-.328-.503-3.729.548-7.114 2.711-10.187 1.792-2.55 4.199-4.6 5.932-7.188 1.919-2.871 3.304-9.188.556-10.202-.193 2.371-.615 4.452-1.904 6.495zm-9.509-52.886a10.064 10.064 0 0 0-3.155 6.711c.652-2.013 2.363-3.482 4.11-4.653.786-.522 5.933-3.237 5.385-4.407-.704-1.514-5.629 1.685-6.34 2.349zm75.82 16.972c3.318 3.811 3.777 9.337 3.407 14.386-.371 5.048-1.407 10.156-.474 15.13 1.318 7.025 6.829 13.073 13.665 15.004-.697-1.901-2.222-3.348-3.555-4.877-4.422-5.086-6.977-11.775-7.066-18.531-.045-3.37.496-6.727.481-10.105-.015-3.37-.666-6.905-2.777-9.515-1.281-1.581-4.933-4.765-7.096-4.422 1.193.924 2.415 1.782 3.415 2.93zm-19.953 84.677c-3.252 3.401-6.059 7.51-6.688 12.193-.63 4.676 1.407 9.948 5.658 11.939-2.347-5.257-2.422-11.499-.2-16.809 1.252-3.005 3.178-5.645 5.192-8.173.882-1.104 5.488-5.399 4.289-6.749-2.948 1.939-5.8 5.041-8.251 7.599z" fill="#F2E7E7"/><path d="M175.191 40.83s-1.266 2.364-1.526 3.453c-.251 1.089.252 3.259 2.252 2.968 2-.291 1.489-2.394 1.363-2.879-.119-.477-2.089-3.542-2.089-3.542z" fill="#fff"/><path d="M201.462 164.352c1.651 3.431 4.91 6.033 8.606 6.876-.829-1.216-1.792-2.327-2.666-3.512-1.037-1.402-1.955-2.901-2.785-4.438-.792-1.469-1.326-3.378-2.444-4.631-3.155-3.519-1.356 4.37-.711 5.705z" fill="#F2E7E7"/></g></g><defs><clipPath id="clip0"><path d="M0 0h220v159H0V0z" fill="#fff"/></clipPath><clipPath id="clip1"><path fill="#fff" d="M-2-14.816h282.073v281.893H-2z"/></clipPath></defs></svg>