<svg width="220" height="160" fill="none" xmlns="http://www.w3.org/2000/svg"><g clip-path="url(#clip0)"><g clip-path="url(#clip1)"><path d="M218.372 70.43c-.101-3.108-2.315-6.115-7.252-6.815-4.937-.704-4.79-4.036-4.79-4.036h-21.715s.147 3.337-4.791 4.036c-4.937.704-7.151 3.707-7.252 6.815-.101 3.109.101 12.831.101 12.831l18.537.96-.032.444 4.294-.225 4.294.225-.032-.444 18.537-.96s.202-9.722.101-12.83z" fill="#FF6F43"/><path d="M186.645 78.38c.367-.242 3.655-3.758 3.655-3.758l2.439-.123-.854 10.916-2.228-.261.864-7.972-2.48 2.235-1.396-1.037zm7.679.858s4.901.288 4.497 4.014l2.131-.06s.059-4.53-4.497-5.046l.175-2.409 4.786.229.174-2.007-6.687.174-.579 5.105z" fill="#43464C"/><path d="M110.091 28.598s-8.336 35.493-22.505 50.234l21.871 13.517s13.535-28.272 10.164-46.73" fill="#FFB031"/><path d="M152.607 51.013s.345 5.791.533 6.358c.188.567 15.464 29.085 15.464 29.085s-49.322 18.572-49.129 18.005c.188-.567-2.476-39.04-2.476-39.04l35.608-14.408z" fill="#FFB031"/><path d="M126.864 79.051l3.812 11.519 15.386-1.49-8.033-17.48c0-.004-10.214 6.907-11.165 7.451z" fill="#fff"/><path d="M180.426 80.396c-13.057-2.067-31.773-4.128-39.131 6.097-3.802.137-6.728.33-8.487.599-6.738 1.033-10.215 4.196-12.015 7.35-5.167-.667-9.429-.772-12.015 0-6.012 1.797-13.388 14.673-18.973 28.363l-28.857 2.468c-2.223.169-4.014.658-5.401 1.353-3.51 1.765-4.432 4.882-3.28 7.661 2.21 5.339 8.768 10.829 20.31 10.445l.46-.014c2.337-.11 5.68-.311 9.773-.576-.551 2.35-.955 4.498-1.19 6.367-.496 3.963-.225 6.656 1.084 7.241 2.559 1.142 6.619.631 10.927-1.801 4.33-2.446 8.905-6.838 12.456-13.453 7.137-.53 14.825-1.11 22.592-1.709-.032.279-.06.558-.055.846.036 8.118 4.951 10.773 37.721 9.608 6.301-.224 23.217-1.321 38.525-2.359 36.13-2.449 16.424-22.946 20.566-38.995 2.168-8.406 3.431-17.616 3.5-27.06-6.894-.04-35.071-.306-48.51-2.431zm-65.82 40.283c1.975-5.265 2.683-7.025 2.683-7.025l11.656 5.8-14.339 1.225z" fill="#FBBB9D"/><path d="M85.69 135.667c.169-.352 8.34 10.678 1.101 22.608 0 0-4.886.613-5.346-1.609-.68-3.291.496-13.297 4.244-20.999z" fill="#FFE6DC"/><path d="M74.772 124.094s-6.77 13.749-22.165 11.157c0 0-3.123-5.06 2.292-8.364 5.02-3.058 19.873-2.793 19.873-2.793z" fill="#F2D6CC"/><path d="M114.5 120.67s-5.695 16.382-8.281 21.744l6.627-.411s1.86-13.809 1.654-21.333zm81.932 7.098s-45.805 2.011-45.13 2.011c.675 0 45.805-8.045 45.805-8.045l-.675 6.034zm-67.809-8.268l37.271-3.575-48.574-2.194 11.303 5.769z" fill="#F7AB8D"/><path d="M136.615 134.191s13.76-2.56 14.022 6.609c.238 8.251-8.3 8.521-15.538 8.402-7.238-.119-6.595-7.528-6.577-8.237.037-1.193.023-5.001 8.093-6.774z" fill="#FFE6DC"/><path d="M130.028 140.768c0-.133.799-4.251 6.274-4.717l-6.274 4.717z" fill="#fff"/><path d="M87.586 78.833s4.042-4.814 5.07-6.304l20.154 11.898-3.211 8.022-22.013-13.616z" fill="#426B99"/><path d="M84.174 143.026s-3.266 11.981-1.153 12.872 1.153-12.872 1.153-12.872z" fill="#fff"/><path d="M170.275 135.416s-.982 9.453 1.103 8.991c2.085-.462.826-8.516.73-9.489-.179-1.769-1.562-1.463-1.833.498z" fill="#F7AB8D"/><path d="M129.745.452l-2.649 2.868c-.279.304.085.68.667.68H222c-1.304-1.094-2.134-2.063-5.02-4h-85.956c-.533 0-1.018.169-1.279.452zm-.008 10.887l-2.642 2.15c-.278.23.085.511.665.511H234c-1.034-.816-2.249-2.024-3.47-3h-99.518c-.531 0-1.015.13-1.275.339zm.017-5l-2.658 2.15c-.28.23.085.511.669.511H229c-1.411-.939-2.05-1.608-4.203-3h-93.76c-.535 0-1.022.13-1.283.339zm-.009 15.113l-2.649 2.868c-.279.305.085.68.667.68H243c-.952-1.399-1.485-2.716-2.577-4H131.024c-.533 0-1.018.174-1.279.452z" fill="#F2F2FF"/><path d="M127.939 35.586l-.896 1.074c-.211.256.064.572.505.572h93.134c-.294-.554-.386-1.098-.652-1.646h-92.091z" fill="#AAAABC"/><path d="M129.748 16.339l-2.652 2.15c-.279.23.085.511.667.511H239c-.996-.939-1.955-2.07-2.987-3H131.029c-.534 0-1.02.127-1.281.339z" fill="#F2F2FF"/><path d="M129.05 32.606l-2.007 2.409c-.211.256.064.571.505.571h.391l1.111-1.334c.193-.234.565-.38.969-.38h89.322c-.225-.526-.39-1.102-.735-1.645h-88.587c-.404 0-.771.146-.969.379z" fill="#E7E7F2"/><path d="M249.051 34H130.756c-.535 0-1.028.17-1.284.443L128 36h122c-.322-.677-.535-1.264-.949-2zm-119.302-6.661l-2.653 2.15c-.279.23.085.511.668.511H247c-.813-1.065-1.378-2.004-2.204-3H131.03c-.535 0-1.02.13-1.281.339z" fill="#F2F2FF"/><path d="M92.331 97.687l.271-.512c-.147.069.16-.215.175-.38.046-.475.091-.95.142-1.426.069-.676.133-1.357.344-2.002.207-.644.575-1.261 1.126-1.654.326-.233.74-.37 1.125-.288.165-.22.349-.42.57-.58.353-.252.808-.408 1.221-.275.436.137 1.31 5.883-1.81 6.207-.79.7-2.057 1.116-3.164.91z" fill="#BC725E"/><path d="M174.708 135.11s-.983 9.453 1.102 8.991c2.085-.462.827-8.516.731-9.489-.18-1.769-1.562-1.459-1.833.498zm-53.911-40.723l34.015 2.642-30.584-6.523s-3.275 2.482-3.431 3.88z" fill="#F7AB8D"/><path d="M86.658 100.261s1.557.804 3.247 1.645c.584.293 1.227-.283 1.002-.891-.474-1.266-2.21-2.633-2.21-2.633l-2.039 1.879z" fill="#BC725E"/><path d="M141.3 86.433l32.081 3.602-28.641-7.03c0 .005-3.284 2.651-3.44 3.428z" fill="#F7AB8D"/><path d="M61.219 120.194c.285-.256 81.752-81.353 94.635-94.285a3.107 3.107 0 0 1 4.465.069 3.075 3.075 0 0 1-.106 4.306l-95.251 92.744-3.743-2.834z" fill="#43464C"/><path d="M50.425 125.167s-.16 4.105 4.281 5.838c.372-.005 6.903-3.922 12.318-10.134-.78-1.646-2.365-3.826-2.365-3.826s-5.512 3.862-14.234 8.122z" fill="#636870"/><path d="M107.983 70.189c-.027.077-2.145 2.418-4.143 4.63-.408.452-.73.969-.96 1.531a10.568 10.568 0 0 0-.748 3.168c3.325-2.615 4.363-3.716 4.363-3.716l1.488-5.614z" fill="#BC725E"/><path d="M119.382 67.825c-.868-.617-4.873-3.25-6.311-4.265-.794 1.02-1.658 1.856-2.489 2.844-3.426 4.059-4.63 7.062-6.283 12.277-.565 1.778-1.405 7.602-1.318 8.594 1.35 1.179 3.445-2.158 3.697-3.758.248-1.572.666-5.147.974-5.937-.542 1.353-2.251 7.281-.184 7.14 1.314-.092 2.113-1.893 2.251-3.182-.028.407 2.884 1.691 3.49-1.522-.22.763 1.888 1.362 3.257-2.052.923-2.77 2.14-8.489 2.916-10.139z" fill="#DB9982"/><path d="M145.561 49.752L111.877 61.75l6.385 21.813s33.913-18.837 38.713-32.134c4.799-13.297-14.449-24.802-24.407-26.255-7.693-1.12-12.557-.078-13.498.251l-8.979 3.168s9.76 32.851 10.095 32.851" fill="#FFB031"/><path d="M91.357 81.158c-.551 1.253-2.218 3.986-2.627 4.85-.648 1.371-1.667 2.692-1.902 4.187l-1.125 5.65s4.4-4.01 6.008-5.545c.813.407 1.488 2.679-.092 4.713-1.29 1.659-1.75 4.242-.882 4.493.845.64 1.74-1.746 3.536-3.51 2.462-4.54 2.862-8.246 2.89-11.259-1.098-.763-3.624-2.258-5.806-3.579z" fill="#DB9982"/><path d="M110.303 29.196l10.164 27.088 9.53-6.368L119.07 25.43l-8.767 3.766z" fill="#fff"/><path d="M95.463 13.252c.092 2.322.592 4.599.932 6.898.538 3.652 5.048 9.924 13.264 5.494 2.324-1.252 1.268-2.825 1.902-5.384.634-2.556.431-5.257-.152-7.826-.206-.905-.459-1.805-.905-2.619-.62-1.129-1.593-2.048-2.705-2.701-2.737-1.614-6.393-1.56-9.048.182-2.654 1.742-3.417 2.793-3.288 5.956z" fill="#DB9982"/><path d="M107.496 25.274s1.672 2.912 3.743 6.358c.46.764 4.483 1.38 6.678-1.892 1.631-2.427 1.148-4.31 1.148-4.31s-7.031-7.063-7.49-8.722c-.46-1.664-3.937-2.646-3.937-2.646l-.142 11.212z" fill="#DB9982"/><path d="M108.093 26.427s3.247-1.692 4.414-3.57c2.25-3.62 1.791-7.08 1.791-7.08l3.417 4.794s-1.268 1.824-3.234 3.561c-2.535 2.226-6.388 2.295-6.388 2.295z" fill="#BC725E"/><path d="M101.277 9.088s2.117 3.803 6.191 4.119c0 0 2.021 6.299 6.614 7.213l3.22 3.167s5.46-3.13 4.151-9.082c-1.635-7.423-8.584-6.276-8.584-6.276s-5.208-6.034-12.92-2.436c-7.334 3.423-4.519 7.61-4.519 7.61l5.847-4.315z" fill="#56413B"/><path d="M100.869 17.773c-.239.526-.584 1.02-.694 1.586a2.048 2.048 0 0 0 .707 1.938 2.069 2.069 0 0 0 2.053.297c-.776-.077-1.446-.745-1.525-1.517-.036-.37.046-.745.106-1.116.078-.48.106-.978.041-1.462-.032-.22-.206-1.211-.523-1.161.027.53.064.928-.165 1.435z" fill="#BC725E"/><path d="M106.573 20.123s-.009 2.372-3.022 3.012l3.022-3.012z" fill="#AD4831"/><path d="M104.915 12.758c.248.11.211.476-.051.549-.822.224-3.146.823-3.242.398-.12-.517.317-.791 1.355-.97.693-.118 1.524-.16 1.938.024zm-6.287 1.815c-.616.17-2.6.718-2.526.032.073-.686 2.957-1.252 3.136-.644.079.27-.404.553-.61.612z" fill="#56413B"/><path d="M99.422 16.832a1.095 1.095 0 0 0-2.182-.137 1.096 1.096 0 0 1 1.7.914c0 .045-.01.091-.014.137.298-.197.496-.535.496-.914z" fill="#fff"/><path d="M97.842 16.512c-.22 0-.427.068-.602.178-.004.046-.013.091-.013.137a1.095 1.095 0 0 0 1.699.914c.004-.045.014-.091.014-.137 0-.603-.492-1.092-1.098-1.092z" fill="#282120"/><path d="M104.91 15.909a1.095 1.095 0 0 0-2.181-.137c.174-.114.381-.178.601-.178.606 0 1.098.489 1.098 1.092 0 .046-.009.091-.014.137.299-.197.496-.535.496-.914z" fill="#fff"/><path d="M103.33 15.588c-.22 0-.427.069-.601.178-.005.046-.014.092-.014.137 0 .604.491 1.093 1.098 1.093.22 0 .427-.069.601-.178.005-.046.014-.092.014-.138 0-.603-.491-1.092-1.098-1.092z" fill="#282120"/><path d="M131.622 35.531c.34 0 8.414 6.902 8.414 6.902l-6.026 4.754-2.388-11.656zm21.518 21.84s-10.725 11.528-15.111 14.23l2.687 5.837c0-.005 11.271-11.496 12.424-20.067z" fill="#DD901F"/><path d="M112.19 64.584l6.761-6.408 6.361 21.707-7.045 3.68-6.077-18.979z" fill="#426B99"/><path d="M204.492 97.28s-6.085 3.497-.193 8.068l.193-8.068z" fill="#964130"/><path d="M212.208 91.648c-.983.677-2.576 1.989-2.719 3.474-.156 1.66 1.805 2.866 2.719 3.332.271.138.336.074.166-.164-.455-.64-1.296-2.011-1.342-3.387-.036-1.125.731-2.304 1.309-3.03.35-.435.313-.53-.133-.225zm.836 12.41c-.983.677-2.576 1.989-2.719 3.474-.156 1.66 1.805 2.866 2.719 3.333.271.137.335.073.166-.165-.455-.64-1.296-2.011-1.342-3.387-.036-1.124.731-2.304 1.309-3.031.349-.434.313-.53-.133-.224z" fill="#D37959"/><path d="M184.615 59.575l.547-45.106h18.233l2.885 45.097-21.665.009zm-4.308 10.069l-.119 2.428 30.583.365.124-2.55-30.588-.243z" fill="#43464C"/><path d="M187.871 14.454l-.358 45.143 2.709-.019-1.074-45.115-1.277-.009z" fill="#595F68"/><path d="M166.515 37.086v4.128a3.09 3.09 0 0 0 3.095 3.08 3.09 3.09 0 0 0 3.096-3.08v-4.128h-6.191zm3.081 5.951a1.864 1.864 0 0 1-1.869-1.86c0-1.029.836-1.86 1.869-1.86 1.034 0 1.87.831 1.87 1.86 0 1.028-.836 1.86-1.87 1.86z" fill="#AAAABC"/><path d="M55.515 133.363c.17-.055 4.932 2.683 12.359-4.214 4.372-4.059-12.36 4.214-12.36 4.214z" fill="#fff"/></g></g><defs><clipPath id="clip0"><path d="M0 0h220v160H0V0z" fill="#fff"/></clipPath><clipPath id="clip1"><path fill="#fff" d="M44-19h176v185H44z"/></clipPath></defs></svg>
