<svg id="Capa_1" enable-background="new 0 0 512 512" height="512" viewBox="0 0 512 512" width="512" xmlns="http://www.w3.org/2000/svg"><g><path d="m469.784 284.22 2.165-25.974c.349-4.18-1.069-8.315-3.91-11.402-2.841-3.088-6.845-4.844-11.039-4.844h-200c-4.194 0-8.198 1.756-11.038 4.843-2.841 3.087-4.259 7.222-3.91 11.402l2.165 25.974c-24.336 6.922-42.217 29.333-42.217 55.858 0 40.899 22.055 76.739 54.893 96.267l3.63 43.564c1.501 17.995 16.822 32.092 34.879 32.092h123.195c18.058 0 33.378-14.097 34.879-32.093l3.63-43.563c32.839-19.529 54.894-55.368 54.894-96.267 0-26.525-17.881-48.936-42.216-55.857zm-237.784 55.857c0-10.685 6.002-19.993 14.81-24.737l6.664 79.965c-13.329-14.576-21.474-33.967-21.474-55.228zm191.58 137.338c-.214 2.571-2.403 4.585-4.982 4.585h-123.196c-2.579 0-4.769-2.014-4.982-4.584l-2.37-28.44c8.308 1.974 16.97 3.024 25.873 3.024h86.154c8.903 0 17.565-1.051 25.873-3.024zm5.046-60.556c-8.895 3.318-18.512 5.141-28.549 5.141h-86.154c-10.037 0-19.655-1.823-28.549-5.141l-12.072-144.859h167.396zm31.901-21.553 6.664-79.966c8.808 4.743 14.81 14.051 14.81 24.737-.001 21.261-8.146 40.653-21.474 55.229z"/><path d="m190 407v-30c0-21.375-14.986-39.305-35-43.866v-16.134c0-19.555-12.541-36.228-30-42.42v-259.58c0-8.284-6.716-15-15-15s-15 6.716-15 15v259.58c-17.459 6.192-30 22.865-30 42.42v16.134c-20.014 4.561-35 22.491-35 43.866v30c0 29.019-9.589 57.786-27 81-3.409 4.545-3.957 10.626-1.416 15.708 2.54 5.082 7.734 8.292 13.416 8.292h190c5.682 0 10.876-3.21 13.416-8.292 2.541-5.082 1.993-11.163-1.416-15.708-17.411-23.214-27-51.981-27-81zm-95-90c0-8.271 6.729-15 15-15s15 6.729 15 15v15h-30zm4.777 165 8.667-30.955c2.234-7.978-2.423-16.256-10.4-18.489-7.978-2.234-16.255 2.423-18.489 10.4l-10.932 39.044h-26.691c11.761-23.129 18.068-48.981 18.068-75v-30c0-8.271 6.729-15 15-15h70c8.271 0 15 6.729 15 15v30c0 26.019 6.307 51.871 18.068 75z"/><path d="m302 167c0 30.327 24.673 55 55 55 12.983 0 25.199-4.499 34.941-12.635 4.804 1.74 9.874 2.635 15.059 2.635 24.813 0 45-20.187 45-45s-20.187-45-45-45c-5.185 0-10.255.896-15.059 2.635-9.743-8.137-21.958-12.635-34.941-12.635-30.327 0-55 24.673-55 55zm55-25c7.855 0 15.124 3.699 19.942 10.148 2.393 3.202 5.965 5.316 9.922 5.875 3.963.562 7.977-.486 11.16-2.902 1.876-1.423 4.957-3.12 8.976-3.12 8.271 0 15 6.729 15 15s-6.729 15-15 15c-4.019 0-7.1-1.697-8.976-3.12-3.184-2.415-7.197-3.46-11.16-2.902-3.958.558-7.529 2.673-9.922 5.875-4.818 6.447-12.087 10.146-19.942 10.146-13.785 0-25-11.215-25-25s11.215-25 25-25z"/><path d="m297 90c24.813 0 45-20.187 45-45s-20.187-45-45-45-45 20.187-45 45 20.187 45 45 45zm0-60c8.271 0 15 6.729 15 15s-6.729 15-15 15-15-6.729-15-15 6.729-15 15-15z"/></g></svg>