<svg id="Capa_1" enable-background="new 0 0 512 512" height="512" viewBox="0 0 512 512" width="512" xmlns="http://www.w3.org/2000/svg"><g><path d="m497 241.5h-35.576c30.821-24.859 50.576-62.913 50.576-105.5 0-74.715-60.785-135.5-135.5-135.5s-135.5 60.785-135.5 135.5c0 42.587 19.755 80.641 50.576 105.5h-35.076c-8.284 0-15 6.716-15 15v105h-225.5c-8.284 0-15 6.716-15 15v60 60c0 8.284 6.716 15 15 15h240.5 240.5c8.284 0 15-6.716 15-15v-60-60-60-60c0-8.284-6.716-15-15-15zm-225.5 90h210.5v30h-210.5zm0 60h210.5v30h-210.5zm-.5-255.5c0-58.173 47.327-105.5 105.5-105.5s105.5 47.327 105.5 105.5-47.327 105.5-105.5 105.5-105.5-47.327-105.5-105.5zm.5 135.5h210.5v30h-210.5zm-240.5 120h210.5v30h-210.5zm0 60h210.5v30h-210.5zm451 30h-210.5v-30h210.5z"/><path d="m25.607 297.107 49.893-49.893 34.894 34.893c5.857 5.858 15.355 5.858 21.213 0l49.393-49.394v8.787c0 8.284 6.716 15 15 15s15-6.716 15-15v-44.995c.004-8.33-6.784-15.009-15.005-15.005h-43.995c-8.284 0-15 6.716-15 15s6.716 15 15 15h7.787l-38.787 38.787-34.894-34.893c-5.857-5.858-15.355-5.858-21.213 0l-60.5 60.5c-5.858 5.858-5.858 15.355 0 21.213 5.857 5.857 15.356 5.858 21.214 0z"/><path d="m392.456 121.248c-7.443-2.631-12.903-4.805-17.182-6.841-2.294-1.091-9.753-4.987-9.427-9.293.227-2.988 3.234-6.246 5.573-6.95 9.241-2.782 15.212 1.565 16.167 2.331l1.205 1.111c6.088 5.617 15.577 5.236 21.196-.852 5.617-6.088 5.236-15.578-.853-21.196l-1.398-1.291c-3.363-3.102-9.259-6.849-16.909-9.075v-1.266c0-8.284-6.716-15-15-15s-15 6.716-15 15v2.17c-13.472 4.967-23.808 18.414-24.896 32.748-.574 7.565.854 26.476 26.452 38.653 5.242 2.495 11.62 5.048 20.071 8.036 7.434 2.627 8.19 7.958 7.517 11.967-.75 4.465-4.596 12.039-14.244 12.104-10.015.062-12.367-.304-19.678-5.087-6.934-4.535-16.23-2.592-20.765 4.341s-2.592 16.229 4.341 20.764c7.976 5.218 14.291 7.804 21.201 9.016v1.437c0 8.284 6.716 15 15 15s15-6.716 15-15v-3.132c14.754-5.333 26-18.237 28.729-34.47 3.386-20.124-7.506-38.299-27.1-45.225zm-5.059-20.931.152.141c-.101-.088-.15-.139-.152-.141z"/></g></svg>