<svg id="Capa_1" enable-background="new 0 0 512 512" height="512" viewBox="0 0 512 512" width="512" xmlns="http://www.w3.org/2000/svg"><g><path d="m377.05 306.339-53.875-53.875 40.704-40.704 31.82 31.82c6.61 6.61 15.4 10.252 24.749 10.252s18.138-3.642 24.749-10.252l56.568-56.569c13.646-13.646 13.646-35.851 0-49.497l-127.279-127.279c-13.646-13.646-35.85-13.646-49.498 0l-56.568 56.569c-13.646 13.646-13.646 35.851 0 49.497l31.819 31.819-40.704 40.704-53.874-53.875c10.953-36.731 1.087-76.694-26.416-104.197-28.322-28.322-69.582-37.98-107.677-25.206-4.613 1.547-8.189 5.235-9.593 9.894-1.404 4.658-.461 9.709 2.529 13.547l41.73 53.563-23.684 23.685-53.563-41.732c-3.838-2.991-8.889-3.933-13.546-2.529-4.659 1.404-8.347 4.979-9.894 9.593-12.776 38.096-3.118 79.355 25.206 107.678 27.503 27.504 67.467 37.371 104.198 26.417l53.875 53.874-54.594 54.594c-2.812-2.805-6.62-4.38-10.592-4.38-3.978 0-7.793 1.58-10.606 4.394l-95.459 95.46c-11.334 11.331-17.575 26.398-17.575 42.424s6.241 31.094 17.574 42.426v.001c11.697 11.697 27.061 17.545 42.426 17.545s30.729-5.848 42.426-17.545l95.459-95.46c5.858-5.857 5.858-15.355 0-21.213l-.014-.014 54.593-54.593 53.874 53.874c-10.953 36.731-1.087 76.694 26.416 104.198 20.056 20.057 46.597 30.754 73.91 30.753 11.258 0 22.649-1.818 33.768-5.547 4.613-1.547 8.189-5.235 9.593-9.894s.461-9.709-2.529-13.547l-41.73-53.563 23.684-23.684 53.563 41.73c3.837 2.989 8.887 3.931 13.546 2.529 4.659-1.404 8.347-4.979 9.894-9.593 12.776-38.096 3.118-79.355-25.206-107.678-27.503-27.502-67.465-37.366-104.197-26.414zm-88.881-214.787c0-.772.19-2.261 1.465-3.535l56.568-56.569c1.274-1.274 2.762-1.465 3.536-1.465s2.261.19 3.536 1.465l127.279 127.279c1.274 1.274 1.464 2.762 1.464 3.536 0 .772-.19 2.261-1.465 3.535l-56.568 56.569c-1.274 1.274-2.762 1.465-3.536 1.465s-2.261-.19-3.536-1.465l-127.279-127.279c-1.274-1.274-1.464-2.761-1.464-3.536zm-138.665 86.236c-4.262-4.263-10.662-5.558-16.249-3.292-28.008 11.372-59.917 4.908-81.29-16.465-14.777-14.777-22.434-34.498-21.92-54.674l44.521 34.688c5.97 4.649 14.472 4.126 19.825-1.227l42.426-42.427c5.353-5.353 5.878-13.854 1.227-19.825l-34.686-44.521c20.166-.513 39.896 7.145 54.673 21.921 21.373 21.372 27.835 53.28 16.464 81.288-2.268 5.586-.971 11.986 3.292 16.249l60.534 60.535-28.285 28.284zm-68.291 295.454c-11.697 11.694-30.73 11.696-42.426-.001-5.666-5.666-8.787-13.2-8.787-21.213s3.121-15.547 8.787-21.213l84.853-84.854 42.426 42.427zm74.232-137.901 166.008-166.008 21.214 21.214-166.009 166.008zm326.509 73.301-44.521-34.687c-5.972-4.651-14.474-4.127-19.825 1.227l-42.426 42.426c-5.353 5.353-5.878 13.854-1.227 19.825l34.687 44.521c-20.166.529-39.897-7.144-54.673-21.92-21.373-21.373-27.835-53.281-16.464-81.289 2.268-5.586.971-11.986-3.292-16.249l-60.534-60.534 28.285-28.285 60.534 60.535c4.263 4.264 10.663 5.56 16.249 3.292 28.009-11.372 59.917-4.908 81.29 16.464 14.775 14.777 22.431 34.498 21.917 54.674z"/></g></svg>