<svg id="_x31__x2C_5" enable-background="new 0 0 24 24" height="512" viewBox="0 0 24 24" width="512" xmlns="http://www.w3.org/2000/svg"><path d="m3.5 22h-2.75c-.414 0-.75-.336-.75-.75v-8.5c0-.414.336-.75.75-.75 3.506 0 5.138 1.217 5.205 1.269.242.185.349.498.269.792l-2 7.386c-.088.326-.385.553-.724.553zm-2-1.5h1.426l1.698-6.271c-.523-.247-1.545-.615-3.124-.707z"/><path d="m13 24c-2.405 0-7.009-2-9.539-3.191-.375-.177-.536-.624-.359-.999.177-.373.624-.535.998-.359 4.112 1.938 7.356 3.049 8.9 3.049 2.028 0 6.632-2.191 9.045-3.455-.278-.159-.692-.295-1.295-.295-.878 0-1.964.362-3.013.711-1.163.388-2.365.789-3.487.789-2.107 0-4.889-1.002-5.006-1.045-.39-.142-.591-.572-.449-.961.143-.39.573-.589.961-.449.026.01 2.652.955 4.494.955.878 0 1.964-.362 3.013-.711 1.163-.388 2.365-.789 3.487-.789 2.479 0 3.168 1.651 3.196 1.722.141.351-.003.752-.334.935-.302.167-7.455 4.093-10.612 4.093z"/><path d="m16.5 19.84c-.414 0-.75-.336-.75-.75v-.45c0-.591-.421-1.107-1-1.225l-9.631-1.97c-.405-.083-.667-.479-.584-.885s.48-.665.885-.584l9.631 1.97c1.274.26 2.199 1.394 2.199 2.695v.45c0 .413-.336.749-.75.749z"/><path d="m15.751 10.5c-.057 0-.113-.006-.17-.019-.403-.093-.655-.496-.562-.899l1.5-6.5c.094-.405.499-.653.899-.563.403.093.655.496.562.899l-1.5 6.5c-.08.348-.388.582-.729.582z"/><path d="m19.75 9.5c-.205 0-.409-.083-.558-.248-.277-.308-.252-.782.056-1.06l1.881-1.692-1.881-1.692c-.308-.277-.333-.751-.056-1.06.278-.307.752-.332 1.06-.056l2.5 2.25c.158.143.248.346.248.558s-.09.415-.248.558l-2.5 2.25c-.144.129-.323.192-.502.192z"/><path d="m13.25 9.5c-.179 0-.358-.063-.502-.192l-2.5-2.25c-.158-.143-.248-.346-.248-.558s.09-.415.248-.558l2.5-2.25c.308-.277.781-.252 1.06.056.277.308.252.782-.056 1.06l-1.881 1.692 1.881 1.692c.308.277.333.751.056 1.06-.149.165-.353.248-.558.248z"/></svg>