<?xml version="1.0" encoding="iso-8859-1"?>
<!-- Generator: Adobe Illustrator 19.0.0, SVG Export Plug-In . SVG Version: 6.00 Build 0)  -->
<svg version="1.1" id="Capa_1" xmlns="http://www.w3.org/2000/svg" xmlns:xlink="http://www.w3.org/1999/xlink" x="0px" y="0px"
	 viewBox="0 0 512 512" style="enable-background:new 0 0 512 512;" xml:space="preserve">
<g>
	<g>
		<path d="M407.224,301.367c-35.435,0-64.27,28.835-64.27,64.27c0,35.435,28.83,64.27,64.27,64.27s64.27-28.83,64.27-64.27
			S442.659,301.367,407.224,301.367z M407.224,397.497c-17.574,0-31.865-14.291-31.865-31.865s14.291-31.865,31.865-31.865
			c17.569,0,31.86,14.291,31.86,31.865C439.083,383.206,424.793,397.497,407.224,397.497z"/>
	</g>
</g>
<g>
	<g>
		<path d="M131.24,301.367c-35.44,0-64.27,28.835-64.27,64.27c0,35.435,28.83,64.27,64.27,64.27c35.44,0,64.27-28.835,64.27-64.27
			C195.51,330.202,166.681,301.367,131.24,301.367z M131.24,397.497c-17.574,0-31.865-14.291-31.865-31.865
			s14.296-31.865,31.865-31.865c17.569,0,31.865,14.291,31.865,31.865C163.105,383.206,148.815,397.497,131.24,397.497z"/>
	</g>
</g>
<g>
	<g>
		<path d="M509.786,223.514l-46.447-79.392c-2.906-4.969-8.236-8.02-13.988-8.02H310.008v32.405h130.047l39.54,67.581v113.347
			h-24.304v32.405h40.506c8.949,0,16.203-7.253,16.202-16.203V231.696C512,228.818,511.238,225.993,509.786,223.514z"/>
	</g>
</g>
<g>
	<g>
		<rect x="178.768" y="349.435" width="180.928" height="32.405"/>
	</g>
</g>
<g>
	<g>
		<path d="M310.008,82.093H16.203C7.253,82.093,0,89.346,0,98.295v267.342c0,8.949,7.253,16.203,16.203,16.203h60.489v-32.405
			H32.405V114.498h261.401v251.139h32.405V98.295C326.211,89.346,318.958,82.093,310.008,82.093z"/>
	</g>
</g>
<g>
	<g>
		<rect x="310.008" y="216.574" width="185.784" height="32.405"/>
	</g>
</g>
<g>
	<g>
		<path d="M245.198,146.363h-93.975c-8.949,0-16.203,7.253-16.203,16.203c0,8.949,7.253,16.203,16.203,16.203h93.975
			c8.949,0,16.203-7.253,16.203-16.203C261.401,153.616,254.148,146.363,245.198,146.363z"/>
	</g>
</g>
<g>
	<g>
		<path d="M245.198,204.152H80.473c-8.949,0-16.203,7.253-16.203,16.203s7.253,16.203,16.203,16.203h164.726
			c8.949,0,16.203-7.253,16.203-16.203S254.148,204.152,245.198,204.152z"/>
	</g>
</g>
<g>
	<g>
		<path d="M245.198,261.401h-44.287c-8.949,0-16.203,7.253-16.203,16.203c0,8.949,7.253,16.203,16.203,16.203h44.287
			c8.949,0,16.203-7.253,16.203-16.203C261.401,268.654,254.148,261.401,245.198,261.401z"/>
	</g>
</g>
<g>
</g>
<g>
</g>
<g>
</g>
<g>
</g>
<g>
</g>
<g>
</g>
<g>
</g>
<g>
</g>
<g>
</g>
<g>
</g>
<g>
</g>
<g>
</g>
<g>
</g>
<g>
</g>
<g>
</g>
</svg>
