<svg width="18" height="18" viewBox="0 0 18 18" fill="none" xmlns="http://www.w3.org/2000/svg">
<path d="M12.2145 8.35716H9.64307V5.78572C9.64307 5.43067 9.35526 5.14285 9.0002 5.14285C8.64515 5.14285 8.35733 5.43067 8.35733 5.78572V8.35716H5.78594C5.43088 8.35716 5.14307 8.64498 5.14307 9.00003C5.14307 9.35508 5.43088 9.64286 5.78594 9.64286H8.35737V12.2143C8.35737 12.5693 8.64519 12.8572 9.00024 12.8572C9.35529 12.8572 9.64307 12.5693 9.64307 12.2143V9.64286H12.2145C12.5696 9.64286 12.8574 9.35504 12.8574 8.99999C12.8574 8.64494 12.5695 8.35716 12.2145 8.35716Z" fill="white"/>
</svg>
