<svg width="20" height="20" viewBox="0 0 20 20" fill="none" xmlns="http://www.w3.org/2000/svg">
<path d="M16.4285 0H3.57141C1.59994 0.00234375 0.00234375 1.59994 0 3.57141V16.4285C0.00234375 18.4 1.59994 19.9976 3.57141 20H16.4285C18.4 19.9976 19.9976 18.4 20 16.4285V3.57141C19.9976 1.59994 18.4 0.00234375 16.4285 0ZM18.5714 16.4285C18.5714 17.612 17.612 18.5714 16.4285 18.5714H3.57141C2.38794 18.5714 1.42856 17.612 1.42856 16.4285V3.57141C1.42856 2.38794 2.38794 1.42856 3.57141 1.42856H16.4285C17.612 1.42856 18.5714 2.38794 18.5714 3.57141V16.4285Z" fill="#FF6B01"/>
<path d="M13.5715 9.28572H10.7144V6.42856C10.7144 6.03406 10.3946 5.71426 10.0001 5.71426C9.60556 5.71426 9.28576 6.03406 9.28576 6.42856V9.28572H6.42865C6.03415 9.28572 5.71436 9.60551 5.71436 10C5.71436 10.3945 6.03415 10.7143 6.42865 10.7143H9.28581V13.5714C9.28581 13.9659 9.6056 14.2857 10.0001 14.2857C10.3946 14.2857 10.7144 13.9659 10.7144 13.5714V10.7143H13.5715C13.966 10.7143 14.2858 10.3945 14.2858 9.99997C14.2858 9.60547 13.966 9.28572 13.5715 9.28572Z" fill="#FF6B01"/>
</svg>
