<svg width="333" height="102" viewBox="0 0 333 102" fill="none" xmlns="http://www.w3.org/2000/svg">
<path d="M319.524 101.058H12.8506C5.75413 101.058 0 95.313 0 88.2172V12.8411C0 5.74524 5.75413 0 12.8506 0H319.524C326.618 0 332.364 5.74524 332.364 12.8411V88.2172C332.364 95.313 326.618 101.058 319.524 101.058Z" fill="#282828"/>
<path d="M20.6394 41.2877C15.2407 50.6457 18.6698 64.8436 24.6372 73.4531C27.6105 77.76 30.6193 81.6175 34.7509 81.6175L34.9871 81.6091C36.9254 81.538 38.3283 80.9379 39.6769 80.3651C41.2054 79.7149 42.7758 79.0417 45.2472 79.0417C47.5932 79.0417 49.0901 79.694 50.5349 80.3192C51.9671 80.9317 53.435 81.5715 55.6032 81.5297C60.2576 81.4481 63.1117 77.2812 65.6271 73.5995C68.2595 69.7651 69.5726 66.0354 70.0243 64.6074L70.0388 64.5572L69.7586 63.9175L69.721 63.8924C68.9014 63.5621 61.7255 60.3759 61.6439 51.6869C61.577 44.637 67.0363 40.9051 68.1278 40.2256L68.18 40.1964L68.4079 39.8577L68.3264 39.4583C64.5566 33.9514 58.7898 33.1235 56.4647 33.021L55.434 32.9688C52.697 32.9688 50.0855 33.9994 47.9841 34.8253C46.531 35.3939 45.2827 35.8957 44.4129 35.8957C43.4469 35.8957 42.1859 35.394 40.7244 34.8128C38.7778 34.0455 36.5656 33.1674 34.2259 33.1674H34.0566C28.614 33.2427 23.4726 36.3536 20.6394 41.2877V41.2877Z" fill="#FEFEFE"/>
<path d="M56.4648 17.8496C53.1695 17.9813 49.2157 20.0178 46.8551 22.7839C44.8478 25.1067 42.8866 28.9786 43.4031 32.8945L43.8819 33.3461L44.553 33.3755C47.7772 33.3755 51.2585 31.5899 53.6253 28.7194C56.126 25.6899 57.3952 21.8012 57.0126 18.3139L56.4648 17.8496Z" fill="#FEFEFE"/>
<path d="M94.3945 33.3722H100.644C105.654 33.3722 109.037 30.0771 109.037 25.4755C109.037 20.8718 105.654 17.5791 100.644 17.5791H94.3945V33.3722ZM95.5445 32.3352V18.616H100.554C105.023 18.616 107.887 21.4593 107.887 25.4755C107.887 29.4917 105.023 32.3352 100.554 32.3352H95.5445V32.3352ZM117.273 33.462C120.658 33.462 123.163 30.9804 123.163 27.4827C123.163 23.9871 120.658 21.5052 117.273 21.5052C113.89 21.5052 111.385 23.9871 111.385 27.4827C111.385 30.9804 113.89 33.462 117.273 33.462ZM117.273 32.4481C114.565 32.4481 112.535 30.4389 112.535 27.4827C112.535 24.5286 114.565 22.5194 117.273 22.5194C119.981 22.5194 122.013 24.5286 122.013 27.4827C122.013 30.4389 119.981 32.4481 117.273 32.4481ZM142.117 21.5953L138.147 32.0863L134.153 21.5953H133.183L129.166 32.1094L125.239 21.5953H124.156L128.625 33.3722H129.662L133.655 23.1506L137.628 33.3722H138.688L143.156 21.5953H142.117V21.5953ZM151.528 21.5052C149.293 21.5052 147.648 22.4963 146.857 24.1437V21.5953H145.774V33.3722H146.903V27.1001C146.903 24.3027 148.595 22.5194 151.369 22.5194C153.761 22.5194 155.183 23.918 155.183 26.5815V33.3722H156.312V26.4896C156.312 23.1968 154.393 21.5052 151.528 21.5052ZM160.96 33.3722H162.089V16.6299H160.96V33.3722ZM171.452 33.462C174.838 33.462 177.342 30.9804 177.342 27.4827C177.342 23.9871 174.838 21.5052 171.452 21.5052C168.069 21.5052 165.564 23.9871 165.564 27.4827C165.564 30.9804 168.069 33.462 171.452 33.462ZM171.452 32.4481C168.745 32.4481 166.714 30.4389 166.714 27.4827C166.714 24.5286 168.745 22.5194 171.452 22.5194C174.16 22.5194 176.192 24.5286 176.192 27.4827C176.192 30.4389 174.16 32.4481 171.452 32.4481ZM184.811 21.5052C182.984 21.5052 181.269 22.1367 180.096 23.1737L180.661 23.9869C181.631 23.1067 183.097 22.4963 184.721 22.4963C187.023 22.4963 188.219 23.6713 188.219 25.8581V26.8073H184.18C180.907 26.8073 179.78 28.3189 179.78 30.1002C179.78 32.1093 181.382 33.462 184.023 33.462C186.076 33.462 187.519 32.6279 188.263 31.2731V33.3722H189.346V25.9041C189.346 22.9938 187.722 21.5052 184.811 21.5052V21.5052ZM184.18 32.5379C182.103 32.5379 180.907 31.5887 180.907 30.0563C180.907 28.7015 181.765 27.6854 184.203 27.6854H188.219V29.8974C187.542 31.5888 186.166 32.5379 184.18 32.5379V32.5379ZM203.339 16.6299V24.3236C202.389 22.5423 200.631 21.5052 198.532 21.5052C195.215 21.5052 192.71 23.9411 192.71 27.4827C192.71 31.0034 195.215 33.462 198.532 33.462C200.654 33.462 202.435 32.425 203.362 30.5977V33.3722H204.465V16.6299H203.339V16.6299ZM198.598 32.4481C195.891 32.4481 193.86 30.4389 193.86 27.4827C193.86 24.5286 195.891 22.5194 198.598 22.5194C201.306 22.5194 203.339 24.5286 203.339 27.4827C203.339 30.4389 201.306 32.4481 198.598 32.4481ZM219.627 33.462C223.012 33.462 225.517 30.9804 225.517 27.4827C225.517 23.9871 223.012 21.5052 219.627 21.5052C216.244 21.5052 213.739 23.9871 213.739 27.4827C213.739 30.9804 216.244 33.462 219.627 33.462ZM219.627 32.4481C216.919 32.4481 214.889 30.4389 214.889 27.4827C214.889 24.5286 216.919 22.5194 219.627 22.5194C222.334 22.5194 224.367 24.5286 224.367 27.4827C224.367 30.4389 222.334 32.4481 219.627 32.4481ZM234.769 21.5052C232.534 21.5052 230.888 22.4963 230.098 24.1437V21.5953H229.015V33.3722H230.144V27.1001C230.144 24.3027 231.835 22.5194 234.61 22.5194C237.002 22.5194 238.424 23.918 238.424 26.5815V33.3722H239.553V26.4896C239.553 23.1968 237.633 21.5052 234.769 21.5052ZM255.368 31.8374C254.896 32.266 254.241 32.492 253.541 32.492C252.098 32.492 251.352 31.6577 251.352 30.1461V22.5653H255.099V21.5953H251.352V19.0215H250.225V21.5953H248.059V22.5653H250.225V30.259C250.225 32.2431 251.352 33.462 253.428 33.462C254.308 33.462 255.256 33.1923 255.843 32.6278L255.368 31.8374V31.8374ZM264.733 21.5052C262.544 21.5052 260.92 22.4524 260.108 24.0539V16.6299H258.979V33.3722H260.108V27.1001C260.108 24.3027 261.8 22.5194 264.575 22.5194C266.967 22.5194 268.388 23.918 268.388 26.5815V33.3722H269.517V26.4896C269.517 23.1968 267.598 21.5052 264.733 21.5052ZM284.139 27.4388C284.139 23.9411 281.747 21.5052 278.521 21.5052C275.295 21.5052 272.88 23.9871 272.88 27.4827C272.88 30.9804 275.385 33.462 278.95 33.462C280.731 33.462 282.356 32.8076 283.395 31.5449L282.74 30.8005C281.837 31.9064 280.461 32.4481 278.972 32.4481C276.152 32.4481 274.099 30.5518 273.986 27.7545H284.116C284.116 27.6416 284.139 27.5287 284.139 27.4388V27.4388ZM278.521 22.4963C281.026 22.4963 282.876 24.3236 283.033 26.8743H274.006C274.188 24.3027 276.016 22.4963 278.521 22.4963Z" fill="#FEFEFE"/>
<path d="M113.799 74.5349H119.043L106.859 47.5438H101.922L89.7764 74.5349H94.943L97.6046 68.2879H111.099L113.799 74.5349V74.5349ZM99.3003 64.3552L104.352 52.5574L109.441 64.3552H99.3003ZM133.426 53.7136C130.611 53.7136 128.22 54.6774 126.601 56.6447V53.9456H122.012V82.0153H126.833V72.0281C128.491 73.9181 130.804 74.8046 133.426 74.8046C139.441 74.8046 143.876 70.6399 143.876 64.2402C143.876 57.8782 139.441 53.7136 133.426 53.7136ZM132.886 70.6795C129.415 70.6795 126.756 68.1728 126.756 64.2402C126.756 60.3076 129.415 57.8009 132.886 57.8009C136.357 57.8009 138.979 60.3076 138.979 64.2402C138.979 68.1728 136.357 70.6795 132.886 70.6795ZM159.878 53.7136C157.063 53.7136 154.671 54.6774 153.053 56.6447V53.9456H148.463V82.0153H153.285V72.0281C154.943 73.9181 157.256 74.8046 159.878 74.8046C165.893 74.8046 170.328 70.6399 170.328 64.2402C170.328 57.8782 165.893 53.7136 159.878 53.7136ZM159.338 70.6795C155.867 70.6795 153.208 68.1728 153.208 64.2402C153.208 60.3076 155.867 57.8009 159.338 57.8009C162.809 57.8009 165.431 60.3076 165.431 64.2402C165.431 68.1728 162.809 70.6795 159.338 70.6795ZM194.39 74.9195C201.792 74.9195 205.302 71.2189 205.302 66.8995C205.302 56.9917 189.299 60.7321 189.299 54.9868C189.299 52.9421 190.996 51.3238 195.159 51.3238C197.512 51.3238 200.173 52.0181 202.603 53.4439L204.184 49.549C201.831 48.0081 198.438 47.1592 195.199 47.1592C187.795 47.1592 184.324 50.8597 184.324 55.2167C184.324 65.2416 200.366 61.4261 200.366 67.2466C200.366 69.2516 198.593 70.7569 194.39 70.7569C191.072 70.7569 187.641 69.5234 185.481 67.7881L183.745 71.681C185.983 73.6086 190.185 74.9195 194.39 74.9195V74.9195ZM220.842 69.9856C220.108 70.5626 219.144 70.8343 218.142 70.8343C216.292 70.8343 215.289 69.7535 215.289 67.7485V57.9557H220.802V54.1003H215.289V49.3963H210.469V54.1003H207.075V57.9557H210.469V67.8634C210.469 72.4149 213.051 74.8046 217.563 74.8046C219.299 74.8046 221.034 74.3424 222.191 73.4162L220.842 69.9856ZM234.721 74.8046C241.124 74.8046 245.711 70.4099 245.711 64.2402C245.711 58.0706 241.124 53.7136 234.721 53.7136C228.398 53.7136 223.771 58.0706 223.771 64.2402C223.771 70.4099 228.398 74.8046 234.721 74.8046ZM234.721 70.6795C231.252 70.6795 228.63 68.1728 228.63 64.2402C228.63 60.3076 231.252 57.8009 234.721 57.8009C238.232 57.8009 240.854 60.3076 240.854 64.2402C240.854 68.1728 238.232 70.6795 234.721 70.6795ZM254.928 56.952V53.9456H250.338V74.5349H255.16V64.5475C255.16 60.3452 257.472 58.1876 261.135 58.1876C261.483 58.1876 261.83 58.2252 262.254 58.3026V53.7136C258.823 53.7136 256.316 54.7944 254.928 56.952V56.952ZM285.507 64.3552C285.507 57.9158 281.112 53.7136 275.096 53.7136C268.966 53.7136 264.454 58.1103 264.454 64.2402C264.454 70.3702 268.926 74.8046 275.828 74.8046C279.376 74.8046 282.268 73.6484 284.119 71.4511L281.536 68.4823C280.071 69.9855 278.258 70.7173 275.945 70.7173C272.357 70.7173 269.852 68.7896 269.273 65.7831H285.43C285.469 65.319 285.507 64.742 285.507 64.3552ZM275.096 57.5688C278.258 57.5688 280.533 59.6136 280.92 62.5824H269.236C269.698 59.5739 271.972 57.5688 275.096 57.5688V57.5688Z" fill="#FEFEFE"/>
</svg>
