<svg width="204" height="62" viewBox="0 0 204 62" fill="none" xmlns="http://www.w3.org/2000/svg">
<path d="M196.018 61.9962H7.88347C3.52998 61.9962 0 58.4717 0 54.1186V7.87763C0 3.52453 3.52998 0 7.88347 0H196.018C200.37 0 203.895 3.52453 203.895 7.87763V54.1186C203.895 58.4717 200.37 61.9962 196.018 61.9962Z" fill="#282828"/>
<path d="M12.6615 25.329C9.3496 31.0698 11.4532 39.7798 15.1141 45.0615C16.9381 47.7037 18.7839 50.0701 21.3185 50.0701L21.4634 50.065C22.6525 50.0214 23.5131 49.6532 24.3405 49.3018C25.2781 48.9029 26.2415 48.4899 27.7577 48.4899C29.1969 48.4899 30.1152 48.8901 31.0015 49.2736C31.8801 49.6494 32.7806 50.0419 34.1108 50.0163C36.9661 49.9662 38.717 47.41 40.2601 45.1513C41.875 42.7991 42.6806 40.511 42.9577 39.635L42.9666 39.6041L42.7947 39.2117L42.7716 39.1963C42.2688 38.9937 37.8666 37.039 37.8166 31.7086C37.7755 27.3837 41.1246 25.0943 41.7942 24.6774L41.8263 24.6595L41.9661 24.4517L41.9161 24.2067C39.6034 20.8284 36.0656 20.3205 34.6393 20.2577L34.007 20.2256C32.3279 20.2256 30.7258 20.8579 29.4367 21.3645C28.5452 21.7134 27.7794 22.0212 27.2458 22.0212C26.6532 22.0212 25.8797 21.7134 24.9831 21.3569C23.7889 20.8862 22.4318 20.3475 20.9964 20.3475H20.8926C17.5537 20.3936 14.3996 22.3021 12.6615 25.329Z" fill="#FEFEFE"/>
<path d="M34.6395 10.9502C32.618 11.031 30.1924 12.2803 28.7443 13.9772C27.5129 15.4022 26.3097 17.7775 26.6266 20.1798L26.9203 20.4569L27.332 20.4749C29.31 20.4749 31.4456 19.3795 32.8976 17.6185C34.4317 15.76 35.2103 13.3744 34.9756 11.235L34.6395 10.9502Z" fill="#FEFEFE"/>
<path d="M57.9082 20.473H61.7422C64.8155 20.473 66.891 18.4516 66.891 15.6287C66.891 12.8044 64.8155 10.7844 61.7422 10.7844H57.9082V20.473ZM58.6137 19.8369V11.4206H61.687C64.4282 11.4206 66.1855 13.1648 66.1855 15.6287C66.1855 18.0925 64.4282 19.8369 61.687 19.8369H58.6137ZM71.9435 20.5282C74.0202 20.5282 75.5569 19.0058 75.5569 16.86C75.5569 14.7156 74.0202 13.193 71.9435 13.193C69.8681 13.193 68.3314 14.7156 68.3314 16.86C68.3314 19.0058 69.8681 20.5282 71.9435 20.5282ZM71.9435 19.9062C70.2824 19.9062 69.0369 18.6736 69.0369 16.86C69.0369 15.0477 70.2824 13.8152 71.9435 13.8152C73.6046 13.8152 74.8514 15.0477 74.8514 16.86C74.8514 18.6736 73.6046 19.9062 71.9435 19.9062ZM87.1846 13.2483L84.7487 19.6842L82.2988 13.2483H81.7036L79.2395 19.6984L76.8306 13.2483H76.1662L78.9073 20.473H79.5435L81.9934 14.2024L84.4306 20.473H85.0809L87.8221 13.2483H87.1846ZM92.958 13.193C91.5868 13.193 90.5773 13.801 90.0925 14.8117V13.2483H89.428V20.473H90.1207V16.6253C90.1207 14.9092 91.1584 13.8152 92.8606 13.8152C94.328 13.8152 95.2001 14.6732 95.2001 16.3072V20.473H95.8928V16.2508C95.8928 14.2307 94.7153 13.193 92.958 13.193ZM98.7443 20.473H99.4369V10.2021H98.7443V20.473ZM105.181 20.5282C107.258 20.5282 108.794 19.0058 108.794 16.86C108.794 14.7156 107.258 13.193 105.181 13.193C103.105 13.193 101.569 14.7156 101.569 16.86C101.569 19.0058 103.105 20.5282 105.181 20.5282ZM105.181 19.9062C103.52 19.9062 102.274 18.6736 102.274 16.86C102.274 15.0477 103.52 13.8152 105.181 13.8152C106.842 13.8152 108.089 15.0477 108.089 16.86C108.089 18.6736 106.842 19.9062 105.181 19.9062ZM113.376 13.193C112.255 13.193 111.203 13.5804 110.484 14.2166L110.83 14.7155C111.425 14.1755 112.324 13.801 113.321 13.801C114.733 13.801 115.467 14.5218 115.467 15.8634V16.4457H112.989C110.981 16.4457 110.29 17.373 110.29 18.4658C110.29 19.6983 111.272 20.5282 112.892 20.5282C114.152 20.5282 115.037 20.0164 115.494 19.1853V20.473H116.158V15.8916C116.158 14.1062 115.162 13.193 113.376 13.193ZM112.989 19.9613C111.715 19.9613 110.981 19.379 110.981 18.4388C110.981 17.6077 111.507 16.9844 113.003 16.9844H115.467V18.3414C115.051 19.379 114.207 19.9613 112.989 19.9613ZM124.742 10.2021V14.922C124.16 13.8293 123.081 13.193 121.793 13.193C119.759 13.193 118.222 14.6873 118.222 16.86C118.222 19.0199 119.759 20.5282 121.793 20.5282C123.095 20.5282 124.188 19.892 124.756 18.771V20.473H125.433V10.2021H124.742ZM121.834 19.9062C120.173 19.9062 118.928 18.6736 118.928 16.86C118.928 15.0477 120.173 13.8152 121.834 13.8152C123.495 13.8152 124.742 15.0477 124.742 16.86C124.742 18.6736 123.495 19.9062 121.834 19.9062ZM134.734 20.5282C136.811 20.5282 138.348 19.0058 138.348 16.86C138.348 14.7156 136.811 13.193 134.734 13.193C132.659 13.193 131.122 14.7156 131.122 16.86C131.122 19.0058 132.659 20.5282 134.734 20.5282ZM134.734 19.9062C133.073 19.9062 131.828 18.6736 131.828 16.86C131.828 15.0477 133.073 13.8152 134.734 13.8152C136.395 13.8152 137.642 15.0477 137.642 16.86C137.642 18.6736 136.395 19.9062 134.734 19.9062ZM144.024 13.193C142.652 13.193 141.643 13.801 141.158 14.8117V13.2483H140.494V20.473H141.186V16.6253C141.186 14.9092 142.224 13.8152 143.926 13.8152C145.394 13.8152 146.266 14.6732 146.266 16.3072V20.473H146.958V16.2508C146.958 14.2307 145.781 13.193 144.024 13.193ZM156.661 19.5315C156.371 19.7945 155.969 19.9331 155.54 19.9331C154.655 19.9331 154.197 19.4212 154.197 18.4939V13.8433H156.495V13.2483H154.197V11.6693H153.505V13.2483H152.176V13.8433H153.505V18.5632C153.505 19.7804 154.197 20.5282 155.47 20.5282C156.01 20.5282 156.592 20.3627 156.952 20.0164L156.661 19.5315ZM162.406 13.193C161.063 13.193 160.066 13.7741 159.569 14.7566V10.2021H158.876V20.473H159.569V16.6253C159.569 14.9092 160.606 13.8152 162.309 13.8152C163.776 13.8152 164.648 14.6732 164.648 16.3072V20.473H165.341V16.2508C165.341 14.2307 164.163 13.193 162.406 13.193ZM174.311 16.8331C174.311 14.6873 172.843 13.193 170.864 13.193C168.885 13.193 167.403 14.7156 167.403 16.86C167.403 19.0058 168.94 20.5282 171.127 20.5282C172.22 20.5282 173.217 20.1267 173.854 19.352L173.453 18.8954C172.899 19.5739 172.054 19.9062 171.141 19.9062C169.411 19.9062 168.151 18.7428 168.082 17.0267H174.297C174.297 16.9575 174.311 16.8883 174.311 16.8331ZM170.864 13.801C172.401 13.801 173.536 14.922 173.632 16.4868H168.095C168.206 14.9092 169.328 13.801 170.864 13.801Z" fill="#FEFEFE"/>
<path d="M69.8121 45.7248H73.0291L65.5549 29.1666H62.5264L55.0752 45.7248H58.2447L59.8776 41.8925H68.1561L69.8121 45.7248ZM60.9179 39.4799L64.0169 32.2423L67.139 39.4799H60.9179ZM81.8528 32.9516C80.1263 32.9516 78.6589 33.5428 77.6661 34.7497V33.0939H74.8506V50.3138H77.8084V44.187C78.8256 45.3464 80.2443 45.8903 81.8528 45.8903C85.5431 45.8903 88.2638 43.3354 88.2638 39.4094C88.2638 35.5065 85.5431 32.9516 81.8528 32.9516ZM81.5219 43.3597C79.3926 43.3597 77.761 41.8219 77.761 39.4094C77.761 36.9968 79.3926 35.4591 81.5219 35.4591C83.6511 35.4591 85.2596 36.9968 85.2596 39.4094C85.2596 41.8219 83.6511 43.3597 81.5219 43.3597ZM98.0802 32.9516C96.3537 32.9516 94.8863 33.5428 93.8935 34.7497V33.0939H91.078V50.3138H94.036V44.187C95.0531 45.3464 96.4717 45.8903 98.0802 45.8903C101.771 45.8903 104.491 43.3354 104.491 39.4094C104.491 35.5065 101.771 32.9516 98.0802 32.9516ZM97.7493 43.3597C95.62 43.3597 93.9885 41.8219 93.9885 39.4094C93.9885 36.9968 95.62 35.4591 97.7493 35.4591C99.8786 35.4591 101.487 36.9968 101.487 39.4094C101.487 41.8219 99.8786 43.3597 97.7493 43.3597ZM119.253 45.9608C123.793 45.9608 125.947 43.6906 125.947 41.0408C125.947 34.9626 116.129 37.2572 116.129 33.7327C116.129 32.4783 117.171 31.4856 119.725 31.4856C121.168 31.4856 122.8 31.9115 124.291 32.7862L125.261 30.3967C123.818 29.4515 121.736 28.9307 119.749 28.9307C115.207 28.9307 113.078 31.2008 113.078 33.8737C113.078 40.0237 122.919 37.683 122.919 41.2537C122.919 42.4837 121.831 43.4072 119.253 43.4072C117.217 43.4072 115.112 42.6504 113.787 41.5859L112.722 43.9741C114.095 45.1566 116.673 45.9608 119.253 45.9608ZM135.48 42.934C135.03 43.288 134.438 43.4546 133.824 43.4546C132.689 43.4546 132.073 42.7916 132.073 41.5616V35.554H135.456V33.1889H132.073V30.3031H129.116V33.1889H127.035V35.554H129.116V41.6321C129.116 44.4243 130.701 45.8903 133.469 45.8903C134.533 45.8903 135.598 45.6068 136.307 45.0386L135.48 42.934ZM143.994 45.8903C147.922 45.8903 150.736 43.1943 150.736 39.4094C150.736 35.6245 147.922 32.9516 143.994 32.9516C140.116 32.9516 137.277 35.6245 137.277 39.4094C137.277 43.1943 140.116 45.8903 143.994 45.8903ZM143.994 43.3597C141.867 43.3597 140.258 41.8219 140.258 39.4094C140.258 36.9968 141.867 35.4591 143.994 35.4591C146.148 35.4591 147.757 36.9968 147.757 39.4094C147.757 41.8219 146.148 43.3597 143.994 43.3597ZM156.39 34.9383V33.0939H153.575V45.7248H156.533V39.5979C156.533 37.0199 157.952 35.6963 160.199 35.6963C160.412 35.6963 160.625 35.7193 160.885 35.7668V32.9516C158.78 32.9516 157.242 33.6146 156.39 34.9383ZM175.15 39.4799C175.15 35.5295 172.454 32.9516 168.763 32.9516C165.003 32.9516 162.235 35.6488 162.235 39.4094C162.235 43.1699 164.978 45.8903 169.212 45.8903C171.389 45.8903 173.163 45.181 174.298 43.833L172.714 42.0117C171.815 42.9339 170.703 43.3829 169.284 43.3829C167.083 43.3829 165.546 42.2003 165.191 40.3559H175.103C175.127 40.0712 175.15 39.7172 175.15 39.4799ZM168.763 35.3166C170.703 35.3166 172.098 36.5711 172.336 38.3923H165.168C165.452 36.5467 166.847 35.3166 168.763 35.3166Z" fill="#FEFEFE"/>
</svg>
