<svg width="10" height="10" viewBox="0 0 10 10" fill="none" xmlns="http://www.w3.org/2000/svg">
<g clip-path="url(#clip0)">
<path d="M5.3902 7.77795L9.84025 3.32782C9.94325 3.22489 10 3.0875 10 2.94099C10 2.79449 9.94325 2.65709 9.84025 2.55417L9.51261 2.22645C9.29911 2.0132 8.95212 2.0132 8.73895 2.22645L5.00207 5.96333L1.26105 2.2223C1.15804 2.11937 1.02072 2.06255 0.874301 2.06255C0.727717 2.06255 0.590401 2.11937 0.487313 2.2223L0.159754 2.55002C0.0567469 2.65303 -2.69695e-07 2.79034 -2.76098e-07 2.93685C-2.82502e-07 3.08335 0.0567469 3.22075 0.159754 3.32367L4.61386 7.77795C4.7172 7.88112 4.85516 7.93778 5.00183 7.93746C5.14906 7.93778 5.28695 7.88112 5.3902 7.77795Z" fill="black"/>
</g>
<defs>
<clipPath id="clip0">
<rect width="10" height="10" fill="white" transform="translate(10) rotate(90)"/>
</clipPath>
</defs>
</svg>
