<svg width="10" height="5" viewBox="0 0 10 5" fill="none" xmlns="http://www.w3.org/2000/svg">
<path d="M5.3902 4.86424L9.84025 1.07685C9.94325 0.989247 10 0.872312 10 0.747627C10 0.622941 9.94325 0.506006 9.84025 0.418408L9.51261 0.139492C9.29911 -0.0419999 8.95212 -0.042 8.73895 0.139492L5.00207 3.31986L1.26105 0.135963C1.15804 0.048365 1.02072 -7.2324e-07 0.874301 -7.35034e-07C0.727717 -7.46841e-07 0.590401 0.0483649 0.487313 0.135963L0.159754 0.414878C0.056747 0.502545 -2.52575e-07 0.619412 -2.55533e-07 0.744097C-2.58491e-07 0.868782 0.056747 0.985718 0.159754 1.07332L4.61386 4.86424C4.7172 4.95205 4.85516 5.00028 5.00183 5C5.14906 5.00028 5.28695 4.95205 5.3902 4.86424Z" fill="white"/>
</svg>
