<svg width="49" height="49" viewBox="0 0 49 49" fill="none" xmlns="http://www.w3.org/2000/svg">
<path d="M14.9297 24.5C14.9297 25.5571 15.7866 26.4141 16.8438 26.4141H22.5859V32.1562C22.5859 33.2134 23.4429 34.0703 24.5 34.0703C25.5571 34.0703 26.4141 33.2134 26.4141 32.1562V26.4141H32.1562C33.2134 26.4141 34.0703 25.5571 34.0703 24.5C34.0703 23.4429 33.2134 22.5859 32.1562 22.5859H26.4141V16.8438C26.4141 15.7866 25.5571 14.9297 24.5 14.9297C23.4429 14.9297 22.5859 15.7866 22.5859 16.8438V22.5859H16.8438C15.7866 22.5859 14.9297 23.4429 14.9297 24.5Z" fill="white"/>
<path d="M15.3522 5.91445L17.828 4.88889C18.8045 4.48426 19.2684 3.36463 18.8638 2.38798C18.4591 1.41133 17.3396 0.947266 16.3629 1.35219L13.8871 2.37774C12.9106 2.78237 12.4467 3.902 12.8513 4.87865C13.2546 5.85205 14.3724 6.32004 15.3522 5.91445Z" fill="white"/>
<path d="M24.5 0C23.4429 0 22.5859 0.856926 22.5859 1.91406C22.5859 2.9712 23.4429 3.82812 24.5 3.82812C35.9248 3.82812 45.1719 13.0738 45.1719 24.5C45.1719 35.9248 35.9262 45.1719 24.5 45.1719C13.0752 45.1719 3.82812 35.9262 3.82812 24.5C3.82812 23.4429 2.9712 22.5859 1.91406 22.5859C0.856926 22.5859 0 23.4429 0 24.5C0 38.0404 10.9577 49 24.5 49C38.0404 49 49 38.0423 49 24.5C49 10.9596 38.0423 0 24.5 0Z" fill="white"/>
<path d="M8.93558 10.8301L10.8304 8.9353C11.5779 8.18777 11.5779 6.97578 10.8304 6.22834C10.0829 5.4809 8.87089 5.4808 8.12345 6.22834L6.22862 8.12317C5.48108 8.8707 5.48108 10.0827 6.22862 10.8301C6.97597 11.5775 8.18805 11.5777 8.93558 10.8301Z" fill="white"/>
<path d="M2.38712 18.8628C3.36587 19.2682 4.48435 18.8014 4.88803 17.8271L5.91358 15.3512C6.31822 14.3746 5.85434 13.2549 4.87779 12.8503C3.90095 12.4458 2.78151 12.9095 2.37687 13.8861L1.35132 16.3618C0.946687 17.3386 1.41056 18.4582 2.38712 18.8628Z" fill="white"/>
</svg>
