<svg width="24" height="24" viewBox="0 0 24 24" fill="none" xmlns="http://www.w3.org/2000/svg">
<g clip-path="url(#clip0)">
<path d="M23.1888 4.72787L15.9169 12.0005L23.1888 19.2727C24.2704 20.3548 24.2704 22.1076 23.1888 23.1897C22.6483 23.7301 21.9398 24.0005 21.2316 24.0005C20.5222 24.0005 19.8135 23.7305 19.2735 23.1897L12.0001 15.9166L4.72715 23.1896C4.18677 23.73 3.47814 24.0005 2.7693 24.0005C2.06067 24.0005 1.35252 23.7305 0.811654 23.1896C-0.27 22.108 -0.27 20.3551 0.811654 19.2727L8.08332 12.0004L0.811241 4.72787C-0.270414 3.64622 -0.270414 1.893 0.811241 0.811351C1.89269 -0.269474 3.64487 -0.269474 4.72674 0.811351L12 8.08396L19.2727 0.811351C20.3547 -0.269474 22.1071 -0.269474 23.1884 0.811351C24.2704 1.893 24.2704 3.64622 23.1888 4.72787Z" fill="#ACACAC"/>
</g>
<defs>
<clipPath id="clip0">
<rect width="24" height="24" fill="white"/>
</clipPath>
</defs>
</svg>
