<svg width="28" height="28" viewBox="0 0 28 28" fill="none" xmlns="http://www.w3.org/2000/svg">
<path d="M10.2014 15.4474C10.2014 15.0967 9.91692 14.8125 9.56588 14.8125H7.34809C6.99745 14.8125 6.71289 15.0967 6.71289 15.4474V17.6649C6.71289 18.0161 6.99745 18.3004 7.34809 18.3004H9.56588C9.91692 18.3004 10.2014 18.0161 10.2014 17.6649V15.4474Z" fill="#B11B75"/>
<path d="M15.744 15.4474C15.744 15.0967 15.4595 14.8125 15.1091 14.8125H12.8911C12.5404 14.8125 12.2559 15.0967 12.2559 15.4474V17.6649C12.2559 18.0161 12.5404 18.3004 12.8911 18.3004H15.1091C15.4595 18.3004 15.744 18.0161 15.744 17.6649V15.4474Z" fill="#B11B75"/>
<path d="M21.2874 15.4474C21.2874 15.0967 21.0028 14.8125 20.6522 14.8125H18.4344C18.0833 14.8125 17.7988 15.0967 17.7988 15.4474V17.6649C17.7988 18.0161 18.0833 18.3004 18.4344 18.3004H20.6522C21.0028 18.3004 21.2874 18.0161 21.2874 17.6649V15.4474Z" fill="#B11B75"/>
<path d="M10.2014 20.9907C10.2014 20.6394 9.91692 20.3555 9.56588 20.3555H7.34809C6.99745 20.3555 6.71289 20.6394 6.71289 20.9907V23.2078C6.71289 23.5588 6.99745 23.843 7.34809 23.843H9.56588C9.91692 23.843 10.2014 23.5588 10.2014 23.2078V20.9907Z" fill="#B11B75"/>
<path d="M15.744 20.9907C15.744 20.6394 15.4595 20.3555 15.1091 20.3555H12.8911C12.5404 20.3555 12.2559 20.6394 12.2559 20.9907V23.2078C12.2559 23.5588 12.5404 23.843 12.8911 23.843H15.1091C15.4595 23.843 15.744 23.5588 15.744 23.2078V20.9907Z" fill="#B11B75"/>
<path d="M21.2874 20.9907C21.2874 20.6394 21.0028 20.3555 20.6524 20.3555H18.4344C18.0833 20.3555 17.7988 20.6394 17.7988 20.9907V23.2078C17.7988 23.5588 18.0833 23.843 18.4344 23.843H20.6524C21.0028 23.843 21.2874 23.5588 21.2874 23.2078V20.9907Z" fill="#B11B75"/>
<path d="M25.2528 3.11763V6.50469C25.2528 8.0356 24.0108 9.26929 22.4802 9.26929H20.7311C19.2003 9.26929 17.9419 8.0356 17.9419 6.50469V3.10547H10.0585V6.50469C10.0585 8.0356 8.80011 9.26929 7.26954 9.26929H5.52014C3.98951 9.26929 2.74762 8.0356 2.74762 6.50469V3.11763C1.40984 3.15795 0.310547 4.26493 0.310547 5.62554V25.4753C0.310547 26.8615 1.4341 28 2.8203 28H25.1801C26.5642 28 27.6898 26.8592 27.6898 25.4753V5.62554C27.6898 4.26493 26.5906 3.15795 25.2528 3.11763ZM24.4404 24.2392C24.4404 24.8383 23.9547 25.3243 23.3554 25.3243H4.59717C3.99788 25.3243 3.51216 24.8383 3.51216 24.2392V13.9861C3.51216 13.3868 3.99782 12.9008 4.59717 12.9008H23.3553C23.9546 12.9008 24.4404 13.3868 24.4404 13.9861L24.4404 24.2392Z" fill="#B11B75"/>
<path d="M5.51438 7.45354H7.24444C7.76957 7.45354 8.19534 7.02839 8.19534 6.50327V0.950614C8.19534 0.425433 7.76957 0 7.24444 0H5.51438C4.9892 0 4.56348 0.425433 4.56348 0.950614V6.50327C4.56348 7.02839 4.9892 7.45354 5.51438 7.45354Z" fill="#B11B75"/>
<path d="M20.7087 7.45354H22.4387C22.9635 7.45354 23.3893 7.02839 23.3893 6.50327V0.950614C23.3893 0.425433 22.9636 0 22.4387 0H20.7087C20.1836 0 19.7578 0.425433 19.7578 0.950614V6.50327C19.7578 7.02839 20.1836 7.45354 20.7087 7.45354Z" fill="#B11B75"/>
</svg>
