<svg width="15" height="15" viewBox="0 0 15 15" fill="none" xmlns="http://www.w3.org/2000/svg">
<g clip-path="url(#clip0)">
<path d="M14.3526 4.80238C14.6601 5.19448 14.8075 5.61481 14.7887 6.04768C14.7698 6.52447 14.5565 6.89774 14.3809 7.12673C14.5848 7.63488 14.6632 8.43476 13.9825 9.05583C13.4838 9.51067 12.6368 9.71455 11.4637 9.65809C10.6387 9.62045 9.94863 9.46675 9.9204 9.46048H9.91727C9.76043 9.43225 9.59418 9.39774 9.42479 9.3601C9.41225 9.56085 9.44675 10.0596 9.81689 11.1826C10.256 12.5188 10.2309 13.5414 9.73533 14.2252C9.21463 14.9435 8.38339 15 8.13872 15C7.90346 15 7.68703 14.9028 7.53333 14.724C7.18515 14.3193 7.22592 13.5728 7.26984 13.2277C6.85578 12.1173 5.69518 9.39461 4.71338 8.63865C4.69456 8.6261 4.67887 8.61041 4.66319 8.59473C4.37461 8.29046 4.18013 7.9611 4.04838 7.67252C3.86331 7.7729 3.65315 7.82936 3.4273 7.82936H1.51388C0.792422 7.82936 0.208984 7.24279 0.208984 6.52447V1.42723C0.208984 0.705772 0.795559 0.122335 1.51388 0.122335H3.4273C3.70648 0.122335 3.96683 0.210164 4.18013 0.360728L4.91727 0.2729C5.03019 0.257215 7.03772 0.00313854 9.09857 0.0439167C9.47185 0.0156851 9.82316 9.53674e-07 10.1494 9.53674e-07C10.7109 9.53674e-07 11.2002 0.0439157 11.608 0.131745C12.5678 0.335635 13.2234 0.743414 13.5559 1.34254C13.81 1.8005 13.81 2.25533 13.7692 2.54392C14.3934 3.10853 14.5032 3.73275 14.4813 4.1719C14.4687 4.42597 14.4122 4.64241 14.3526 4.80238ZM1.51388 0.969261C1.2598 0.969261 1.05591 1.17629 1.05591 1.42723V6.5276C1.05591 6.78168 1.26294 6.98557 1.51388 6.98557H3.4273C3.68138 6.98557 3.88527 6.77855 3.88527 6.5276V1.43036C3.88527 1.17629 3.67824 0.972397 3.4273 0.972397H1.51388V0.969261ZM13.5496 5.16939C13.4179 5.03137 13.3928 4.82121 13.4932 4.65809C13.4932 4.65496 13.6218 4.43538 13.6375 4.13425C13.6594 3.72334 13.4618 3.35947 13.0478 3.04893C12.9003 2.93601 12.8407 2.74153 12.9035 2.56587C12.9035 2.56274 13.0383 2.14868 12.8188 1.75659C12.6086 1.38018 12.1412 1.11042 11.4323 0.95985C10.8646 0.837517 10.0929 0.81556 9.14562 0.890842C9.13308 0.890842 9.11739 0.890842 9.10171 0.890842C7.08477 0.846928 5.04587 1.11041 5.02392 1.11355H5.02078L4.70397 1.15119C4.72279 1.23902 4.7322 1.33313 4.7322 1.42723V6.5276C4.7322 6.66249 4.71024 6.79423 4.6726 6.91656C4.72906 7.12673 4.8859 7.5941 5.25604 7.99247C6.66444 9.10916 8.04148 12.8764 8.10108 13.0395C8.12617 13.1054 8.13245 13.1775 8.1199 13.2497C8.06658 13.601 8.0854 14.0307 8.16068 14.1593C8.32693 14.1562 8.77548 14.1092 9.04525 13.7359C9.3652 13.2936 9.35265 12.5031 9.0076 11.4555C8.48063 9.85885 8.43671 9.01819 8.8539 8.64806C9.06093 8.46299 9.33697 8.45358 9.53772 8.52572C9.72906 8.56964 9.91099 8.60728 10.0835 8.63551C10.0961 8.63865 10.1117 8.64178 10.1243 8.64492C11.0873 8.85508 12.8125 8.98369 13.4116 8.43789C13.9198 7.97365 13.559 7.35885 13.5183 7.29297C13.4022 7.11732 13.4367 6.88833 13.5936 6.74718C13.5967 6.74404 13.926 6.4335 13.9417 6.01631C13.9543 5.73714 13.8225 5.45169 13.5496 5.16939Z" fill="black"/>
</g>
<defs>
<clipPath id="clip0">
<rect width="15" height="15" fill="white" transform="matrix(1 0 0 -1 0 15)"/>
</clipPath>
</defs>
</svg>
