<svg width="40" height="41" viewBox="0 0 40 41" fill="none" xmlns="http://www.w3.org/2000/svg">
<path d="M0 10.2197C0 4.69688 4.47715 0.219727 10 0.219727H30C35.5228 0.219727 40 4.69688 40 10.2197V30.2197C40 35.7426 35.5228 40.2197 30 40.2197H10C4.47715 40.2197 0 35.7426 0 30.2197V10.2197Z" fill="#282828"/>
<path d="M10.0343 16.2977C7.96164 19.7602 9.27815 25.0134 11.5692 28.1989C12.7107 29.7924 13.8659 31.2197 15.4521 31.2197L15.5428 31.2166C16.2869 31.1903 16.8255 30.9683 17.3433 30.7563C17.9301 30.5158 18.533 30.2667 19.4819 30.2667C20.3826 30.2667 20.9573 30.5081 21.512 30.7393C22.0618 30.966 22.6254 31.2027 23.4578 31.1872C25.2447 31.1571 26.3405 29.6153 27.3062 28.2531C28.3169 26.8344 28.821 25.4544 28.9944 24.926L29 24.9074L28.8924 24.6708L28.878 24.6615C28.5633 24.5392 25.8083 23.3603 25.777 20.1454C25.7513 17.537 27.8473 16.1562 28.2663 15.9048L28.2864 15.8939L28.3739 15.7686L28.3426 15.6209C26.8952 13.5833 24.6812 13.277 23.7886 13.2391L23.3928 13.2197C22.3421 13.2197 21.3394 13.6011 20.5327 13.9066C19.9748 14.117 19.4955 14.3027 19.1616 14.3027C18.7907 14.3027 18.3066 14.1171 17.7455 13.902C16.9981 13.6181 16.1488 13.2932 15.2505 13.2932H15.1855C13.096 13.3211 11.122 14.4721 10.0343 16.2977Z" fill="white"/>
<path d="M23.7765 7.21973C22.5792 7.27063 21.1425 8.05763 20.2847 9.12657C19.5554 10.0242 18.8428 11.5205 19.0304 13.0338L19.2044 13.2084L19.4483 13.2197C20.6198 13.2197 21.8848 12.5297 22.7448 11.4204C23.6535 10.2496 24.1146 8.74684 23.9756 7.39915L23.7765 7.21973Z" fill="white"/>
</svg>
