<svg width="20" height="20" viewBox="0 0 20 20" fill="none" xmlns="http://www.w3.org/2000/svg">
<path d="M15.3125 20H10.5859C8.00125 20 5.89844 17.8972 5.89844 15.3125V14.4922C5.89844 14.0607 6.2482 13.7109 6.67969 13.7109C7.11117 13.7109 7.46094 14.0607 7.46094 14.4922V15.3125C7.46094 17.0356 8.86281 18.4375 10.5859 18.4375H15.3125C17.0356 18.4375 18.4375 17.0356 18.4375 15.3125V4.6875C18.4375 2.96438 17.0356 1.5625 15.3125 1.5625H10.5859C8.86281 1.5625 7.46094 2.96438 7.46094 4.6875V5.46875C7.46094 5.90023 7.11117 6.25 6.67969 6.25C6.2482 6.25 5.89844 5.90023 5.89844 5.46875V4.6875C5.89844 2.10281 8.00125 0 10.5859 0H15.3125C17.8972 0 20 2.10281 20 4.6875V15.3125C20 17.8972 17.8972 20 15.3125 20Z" fill="#00366D"/>
<path d="M10.0391 13.75C9.83875 13.75 9.63852 13.6735 9.4859 13.5205C9.18121 13.215 9.18187 12.7203 9.48738 12.4156L11.2955 10.6122C11.4426 10.4657 11.5234 10.2712 11.5234 10.0644C11.5234 9.85841 11.4432 9.66454 11.2973 9.51829L9.49164 7.74489C9.18383 7.44255 9.17934 6.94794 9.48168 6.64009C9.78402 6.33223 10.2786 6.32778 10.5865 6.63012L12.3946 8.40594C12.3961 8.40731 12.3974 8.40868 12.3988 8.41005C12.8419 8.8518 13.0859 9.43934 13.0859 10.0644C13.0859 10.6894 12.8419 11.2769 12.3988 11.7187L10.5907 13.522C10.4383 13.674 10.2386 13.75 10.0391 13.75V13.75ZM10 10C10 9.56852 9.65023 9.21876 9.21875 9.21876H0.78125C0.349766 9.21876 0 9.56852 0 10C0 10.4315 0.349766 10.7813 0.78125 10.7813H9.21875C9.65023 10.7813 10 10.4315 10 10Z" fill="#00366D"/>
</svg>
