<svg width="204" height="62" viewBox="0 0 204 62" fill="none" xmlns="http://www.w3.org/2000/svg">
<path d="M196.013 61.9962H7.87833C3.52485 61.9962 0 58.4717 0 54.1186V7.87763C0 3.52453 3.52485 0 7.87833 0H196.013C200.365 0 203.895 3.52453 203.895 7.87763V54.1186C203.895 58.4717 200.365 61.9962 196.013 61.9962Z" fill="#282828"/>
<path d="M64.6507 20.473H65.4113L60.9539 10.7844H60.2484L55.791 20.473H56.553L57.7843 17.7462H63.4038L64.6507 20.473ZM58.0614 17.1511L60.5948 11.5591L63.1409 17.1511H58.0614ZM71.6811 13.2483L68.7745 19.7111L65.8948 13.2483H65.1611L68.4141 20.473H69.1208L72.3878 13.2483H71.6811ZM76.1115 13.193C74.9905 13.193 73.9387 13.5804 73.2191 14.2166L73.5654 14.7155C74.1606 14.1755 75.0598 13.801 76.0564 13.801C77.4687 13.801 78.2023 14.5218 78.2023 15.8634V16.4457H75.7242C73.7168 16.4457 73.0254 17.373 73.0254 18.4658C73.0254 19.6983 74.008 20.5282 75.628 20.5282C76.8876 20.5282 77.7726 20.0164 78.2293 19.1853V20.473H78.8938V15.8916C78.8938 14.1062 77.8971 13.193 76.1115 13.193ZM75.7242 19.9613C74.4505 19.9613 73.7168 19.379 73.7168 18.4388C73.7168 17.6077 74.2426 16.9844 75.7383 16.9844H78.2023V18.3414C77.7867 19.379 76.9428 19.9613 75.7242 19.9613ZM82.0928 11.4899C82.4109 11.4899 82.6597 11.2411 82.6597 10.923C82.6597 10.6177 82.4109 10.3689 82.0928 10.3689C81.7747 10.3689 81.5246 10.6318 81.5246 10.9357C81.5246 11.241 81.7747 11.4899 82.0928 11.4899ZM81.7464 20.473H82.4391V13.2483H81.7464V20.473ZM85.3598 20.473H86.0525V10.2021H85.3598V20.473ZM91.409 13.193C90.2879 13.193 89.2361 13.5804 88.5165 14.2166L88.8629 14.7155C89.4581 14.1755 90.3572 13.801 91.3539 13.801C92.7661 13.801 93.4999 14.5218 93.4999 15.8634V16.4457H91.0217C89.0143 16.4457 88.3229 17.373 88.3229 18.4658C88.3229 19.6983 89.3054 20.5282 90.9255 20.5282C92.1851 20.5282 93.0702 20.0164 93.5268 19.1853V20.473H94.1912V15.8916C94.1912 14.1062 93.1945 13.193 91.409 13.193ZM91.0217 19.9613C89.748 19.9613 89.0142 19.379 89.0142 18.4388C89.0142 17.6077 89.5401 16.9844 91.0357 16.9844H93.4999V18.3414C93.0843 19.379 92.2403 19.9613 91.0217 19.9613ZM100.67 13.193C99.3977 13.193 98.3176 13.8151 97.7366 14.8951V10.2021H97.044V20.473H97.7084V18.771C98.2753 19.8779 99.3695 20.5282 100.67 20.5282C102.706 20.5282 104.243 19.0199 104.243 16.86C104.243 14.6873 102.706 13.193 100.67 13.193ZM100.629 19.9062C98.9679 19.9062 97.7225 18.6736 97.7225 16.86C97.7225 15.0477 98.9679 13.8152 100.629 13.8152C102.29 13.8152 103.55 15.0477 103.55 16.86C103.55 18.6736 102.29 19.9062 100.629 19.9062ZM106.387 20.473H107.08V10.2021H106.387V20.473ZM116.119 16.8331C116.119 14.6873 114.652 13.193 112.672 13.193C110.693 13.193 109.212 14.7156 109.212 16.86C109.212 19.0058 110.748 20.5282 112.935 20.5282C114.028 20.5282 115.025 20.1267 115.662 19.352L115.261 18.8954C114.707 19.5739 113.863 19.9062 112.949 19.9062C111.219 19.9062 109.959 18.7428 109.89 17.0267H116.105C116.105 16.9575 116.119 16.8883 116.119 16.8331ZM112.672 13.801C114.209 13.801 115.344 14.922 115.44 16.4868H109.903C110.015 14.9092 111.136 13.801 112.672 13.801ZM124.645 20.5282C126.722 20.5282 128.258 19.0058 128.258 16.86C128.258 14.7156 126.722 13.193 124.645 13.193C122.57 13.193 121.033 14.7156 121.033 16.86C121.033 19.0058 122.57 20.5282 124.645 20.5282ZM124.645 19.9062C122.984 19.9062 121.738 18.6736 121.738 16.86C121.738 15.0477 122.984 13.8152 124.645 13.8152C126.306 13.8152 127.553 15.0477 127.553 16.86C127.553 18.6736 126.306 19.9062 124.645 19.9062ZM133.934 13.193C132.563 13.193 131.554 13.801 131.069 14.8117V13.2483H130.404V20.473H131.097V16.6253C131.097 14.9092 132.135 13.8152 133.837 13.8152C135.304 13.8152 136.177 14.6732 136.177 16.3072V20.473H136.869V16.2508C136.869 14.2307 135.692 13.193 133.934 13.193ZM146.572 19.5315C146.282 19.7945 145.88 19.9331 145.451 19.9331C144.565 19.9331 144.107 19.4212 144.107 18.4939V13.8433H146.406V13.2483H144.107V11.6693H143.416V13.2483H142.087V13.8433H143.416V18.5632C143.416 19.7804 144.108 20.5282 145.381 20.5282C145.921 20.5282 146.502 20.3627 146.863 20.0164L146.572 19.5315ZM152.317 13.193C150.974 13.193 149.977 13.7741 149.48 14.7566V10.2021H148.787V20.473H149.48V16.6253C149.48 14.9092 150.517 13.8152 152.219 13.8152C153.687 13.8152 154.559 14.6732 154.559 16.3072V20.473H155.252V16.2508C155.252 14.2307 154.074 13.193 152.317 13.193ZM164.222 16.8331C164.222 14.6873 162.754 13.193 160.775 13.193C158.796 13.193 157.314 14.7156 157.314 16.86C157.314 19.0058 158.851 20.5282 161.038 20.5282C162.131 20.5282 163.127 20.1267 163.765 19.352L163.363 18.8954C162.809 19.5739 161.965 19.9062 161.052 19.9062C159.322 19.9062 158.062 18.7428 157.993 17.0267H164.207C164.207 16.9575 164.222 16.8883 164.222 16.8331ZM160.775 13.801C162.312 13.801 163.447 14.922 163.543 16.4868H158.006C158.117 14.9092 159.238 13.801 160.775 13.801Z" fill="#FEFEFE"/>
<path d="M66.8185 42.4893C65.7782 43.0896 64.6456 43.3218 63.4899 43.3218C60.0689 43.3218 57.6408 40.9169 57.6408 37.6348C57.6408 34.2821 60.069 31.9478 63.513 31.9478C65.2472 31.9478 66.7031 32.5262 67.9755 33.7973L69.87 31.9478C68.3449 30.2137 66.0797 29.312 63.3745 29.312C58.3117 29.312 54.6123 32.8033 54.6123 37.6348C54.6123 42.4663 58.3116 45.9562 63.3283 45.9562C65.6166 45.9562 67.9755 45.2636 69.6622 43.8989V37.45H66.8185V42.4893ZM78.8874 45.8869C82.7239 45.8869 85.4754 43.2525 85.4754 39.5535C85.4754 35.8545 82.7239 33.2419 78.8874 33.2419C75.0957 33.2419 72.3213 35.8545 72.3213 39.5535C72.3213 43.2525 75.0957 45.8869 78.8874 45.8869ZM78.8874 43.4141C76.8056 43.4141 75.2343 41.9109 75.2343 39.5535C75.2343 37.1949 76.8056 35.6929 78.8874 35.6929C80.991 35.6929 82.5624 37.1949 82.5624 39.5535C82.5624 41.9109 80.991 43.4141 78.8874 43.4141ZM93.7988 45.8869C97.6353 45.8869 100.387 43.2525 100.387 39.5535C100.387 35.8545 97.6353 33.2419 93.7988 33.2419C90.0071 33.2419 87.2327 35.8545 87.2327 39.5535C87.2327 43.2525 90.0071 45.8869 93.7988 45.8869ZM93.7988 43.4141C91.7169 43.4141 90.1457 41.9109 90.1457 39.5535C90.1457 37.1949 91.7169 35.6929 93.7988 35.6929C95.9024 35.6929 97.4737 37.1949 97.4737 39.5535C97.4737 41.9109 95.9024 43.4141 93.7988 43.4141ZM112.663 33.3817V35.0221C111.645 33.7973 110.12 33.2419 108.386 33.2419C104.849 33.2419 102.144 35.6006 102.144 39.1829C102.144 42.7665 104.849 45.17 108.386 45.17C110.051 45.17 111.506 44.639 112.524 43.5296V44.176C112.524 46.6732 111.322 47.9212 108.594 47.9212C106.884 47.9212 105.126 47.344 104.04 46.4423L102.744 48.615C104.155 49.7706 106.444 50.3721 108.756 50.3721C113.079 50.3721 115.414 48.3379 115.414 43.8527V33.3817H112.663ZM108.826 42.7202C106.628 42.7202 105.057 41.2876 105.057 39.1829C105.057 37.1026 106.628 35.6929 108.826 35.6929C110.999 35.6929 112.57 37.1026 112.57 39.1829C112.57 41.2876 110.999 42.7202 108.826 42.7202ZM119.205 45.7254H122.095V28.5732H119.205V45.7254ZM137.493 39.6228C137.493 35.7622 134.857 33.2419 131.25 33.2419C127.575 33.2419 124.87 35.8776 124.87 39.5535C124.87 43.2282 127.552 45.8869 131.69 45.8869C133.816 45.8869 135.551 45.1931 136.66 43.8759L135.111 42.0957C134.232 42.9973 133.146 43.4372 131.759 43.4372C129.609 43.4372 128.106 42.2816 127.76 40.4783H137.446C137.47 40.2 137.493 39.8537 137.493 39.6228ZM131.25 35.5545C133.146 35.5545 134.51 36.7793 134.741 38.5595H127.736C128.013 36.7562 129.377 35.5545 131.25 35.5545ZM153.583 29.5442H146.924V45.7254H149.93V41.0554H153.583C157.836 41.0554 160.472 38.8597 160.472 35.2992C160.472 31.7169 157.836 29.5442 153.583 29.5442ZM153.444 38.5133H149.93V32.0863H153.444C156.079 32.0863 157.444 33.265 157.444 35.2992C157.444 37.3347 156.079 38.5133 153.444 38.5133ZM163.431 45.7254H166.321V28.5732H163.431V45.7254ZM174.829 33.2419C172.841 33.2419 170.922 33.751 169.604 34.7681L170.738 36.8716C171.661 36.1085 173.095 35.6468 174.482 35.6468C176.539 35.6468 177.556 36.6408 177.556 38.3287V38.5133H174.366C170.621 38.5133 169.234 40.1307 169.234 42.188C169.234 44.3389 171.015 45.8869 173.835 45.8869C175.685 45.8869 177.025 45.2866 177.719 44.2221V45.7254H180.446V38.4903C180.446 34.9298 178.389 33.2419 174.829 33.2419ZM174.436 43.7834C172.957 43.7834 172.078 43.1127 172.078 42.0725C172.078 41.1708 172.609 40.4321 174.574 40.4321H177.556V41.8647C177.072 43.1357 175.847 43.7834 174.436 43.7834ZM192.701 33.3817L188.794 42.5125L184.91 33.3817H181.905L187.291 45.7715L187.083 46.2576C186.529 47.4824 185.927 47.9673 184.91 47.9673C184.124 47.9673 183.338 47.6441 182.783 47.1118L181.628 49.2396C182.413 49.9553 183.708 50.3721 184.933 50.3721C186.991 50.3721 188.563 49.5167 189.696 46.7194L195.476 33.3817H192.701Z" fill="#FEFEFE"/>
<path d="M49.0607 30.2022L41.2914 25.7207L34.9023 31.8977L40.7386 37.545L49.0607 32.7404C49.5173 32.4762 49.7892 32.003 49.7892 31.4732C49.7892 30.9474 49.5173 30.4689 49.0607 30.2022Z" fill="#EDDE3F"/>
<path d="M39.9742 24.9608L31.4223 20.0241L12.6885 10.4238L33.8479 30.88L39.9742 24.9608Z" fill="#8DC475"/>
<path d="M13 53.0694L31.458 42.9023L39.4223 38.3003L33.8476 32.916L13 53.0694Z" fill="#CB4455"/>
<path d="M11.4392 11.2568L11.416 52.5624L32.7974 31.8949L11.4392 11.2568Z" fill="#8DC8F4"/>
</svg>
