<svg width="333" height="102" viewBox="0 0 333 102" fill="none" xmlns="http://www.w3.org/2000/svg">
<path d="M320.151 101.058H13.478C6.38149 101.058 0.635742 95.313 0.635742 88.2172V12.8411C0.635742 5.74524 6.38149 0 13.478 0H320.151C327.245 0 333 5.74524 333 12.8411V88.2172C333 95.313 327.245 101.058 320.151 101.058Z" fill="#7675D0"/>
<path d="M106.021 33.3722H107.261L99.9949 17.5791H98.845L91.5791 33.3722H92.8212L94.8284 28.9272H103.988L106.021 33.3722ZM95.28 27.9572L99.4095 18.8419L103.56 27.9572H95.28ZM117.481 21.5953L112.743 32.1302L108.049 21.5953H106.853L112.156 33.3722H113.308L118.633 21.5953H117.481ZM124.703 21.5052C122.876 21.5052 121.161 22.1367 119.988 23.1737L120.553 23.9869C121.523 23.1067 122.989 22.4963 124.613 22.4963C126.915 22.4963 128.111 23.6713 128.111 25.8581V26.8073H124.072C120.799 26.8073 119.672 28.3189 119.672 30.1002C119.672 32.1093 121.274 33.462 123.915 33.462C125.968 33.462 127.411 32.6279 128.155 31.2731V33.3722H129.238V25.9041C129.238 22.9938 127.614 21.5052 124.703 21.5052ZM124.072 32.5379C121.995 32.5379 120.799 31.5887 120.799 30.0563C120.799 28.7015 121.657 27.6854 124.095 27.6854H128.111V29.8974C127.434 31.5888 126.058 32.5379 124.072 32.5379ZM134.453 18.7289C134.971 18.7289 135.377 18.3234 135.377 17.8049C135.377 17.3073 134.971 16.9016 134.453 16.9016C133.934 16.9016 133.527 17.3302 133.527 17.8257C133.527 18.3233 133.934 18.7289 134.453 18.7289ZM133.888 33.3722H135.017V21.5953H133.888V33.3722ZM139.778 33.3722H140.907V16.6299H139.778V33.3722ZM149.639 21.5052C147.812 21.5052 146.097 22.1367 144.924 23.1737L145.489 23.9869C146.459 23.1067 147.925 22.4963 149.549 22.4963C151.851 22.4963 153.047 23.6713 153.047 25.8581V26.8073H149.008C145.735 26.8073 144.608 28.3189 144.608 30.1002C144.608 32.1093 146.21 33.462 148.851 33.462C150.904 33.462 152.347 32.6279 153.091 31.2731V33.3722H154.174V25.9041C154.174 22.9938 152.549 21.5052 149.639 21.5052ZM149.008 32.5379C146.931 32.5379 145.735 31.5887 145.735 30.0563C145.735 28.7015 146.593 27.6854 149.03 27.6854H153.047V29.8974C152.37 31.5888 150.994 32.5379 149.008 32.5379ZM164.735 21.5052C162.661 21.5052 160.901 22.5193 159.953 24.2797V16.6299H158.824V33.3722H159.907V30.5977C160.832 32.402 162.615 33.462 164.735 33.462C168.054 33.462 170.559 31.0034 170.559 27.4827C170.559 23.9411 168.054 21.5052 164.735 21.5052ZM164.668 32.4481C161.961 32.4481 159.93 30.4389 159.93 27.4827C159.93 24.5286 161.961 22.5194 164.668 22.5194C167.376 22.5194 169.429 24.5286 169.429 27.4827C169.429 30.4389 167.376 32.4481 164.668 32.4481ZM174.054 33.3722H175.183V16.6299H174.054V33.3722ZM189.918 27.4388C189.918 23.9411 187.526 21.5052 184.3 21.5052C181.074 21.5052 178.658 23.9871 178.658 27.4827C178.658 30.9804 181.163 33.462 184.728 33.462C186.51 33.462 188.134 32.8076 189.174 31.5449L188.519 30.8005C187.616 31.9064 186.24 32.4481 184.751 32.4481C181.931 32.4481 179.877 30.5518 179.765 27.7545H189.895C189.895 27.6416 189.918 27.5287 189.918 27.4388ZM184.3 22.4963C186.805 22.4963 188.655 24.3236 188.812 26.8743H179.786C179.968 24.3027 181.795 22.4963 184.3 22.4963ZM203.816 33.462C207.201 33.462 209.706 30.9804 209.706 27.4827C209.706 23.9871 207.201 21.5052 203.816 21.5052C200.433 21.5052 197.928 23.9871 197.928 27.4827C197.928 30.9804 200.433 33.462 203.816 33.462ZM203.816 32.4481C201.108 32.4481 199.078 30.4389 199.078 27.4827C199.078 24.5286 201.108 22.5194 203.816 22.5194C206.524 22.5194 208.556 24.5286 208.556 27.4827C208.556 30.4389 206.524 32.4481 203.816 32.4481ZM218.958 21.5052C216.723 21.5052 215.078 22.4963 214.287 24.1437V21.5953H213.204V33.3722H214.333V27.1001C214.333 24.3027 216.025 22.5194 218.8 22.5194C221.192 22.5194 222.613 23.918 222.613 26.5815V33.3722H223.742V26.4896C223.742 23.1968 221.823 21.5052 218.958 21.5052ZM239.558 31.8374C239.085 32.266 238.431 32.492 237.731 32.492C236.288 32.492 235.541 31.6577 235.541 30.1461V22.5653H239.288V21.5953H235.541V19.0215H234.414V21.5953H232.248V22.5653H234.414V30.259C234.414 32.2431 235.541 33.462 237.618 33.462C238.498 33.462 239.445 33.1923 240.033 32.6278L239.558 31.8374ZM248.923 21.5052C246.734 21.5052 245.109 22.4524 244.298 24.0539V16.6299H243.169V33.3722H244.298V27.1001C244.298 24.3027 245.989 22.5194 248.764 22.5194C251.156 22.5194 252.578 23.918 252.578 26.5815V33.3722H253.707V26.4896C253.707 23.1968 251.787 21.5052 248.923 21.5052ZM268.329 27.4388C268.329 23.9411 265.937 21.5052 262.71 21.5052C259.484 21.5052 257.069 23.9871 257.069 27.4827C257.069 30.9804 259.574 33.462 263.139 33.462C264.92 33.462 266.545 32.8076 267.584 31.5449L266.93 30.8005C266.026 31.9064 264.651 32.4481 263.162 32.4481C260.341 32.4481 258.288 30.5518 258.175 27.7545H268.306C268.306 27.6416 268.329 27.5287 268.329 27.4388ZM262.71 22.4963C265.215 22.4963 267.066 24.3236 267.223 26.8743H258.196C258.378 24.3027 260.205 22.4963 262.71 22.4963Z" fill="#FEFEFE"/>
<path d="M109.554 69.2614C107.858 70.2398 106.012 70.6183 104.128 70.6183C98.5519 70.6183 94.5939 66.6982 94.5939 61.3481C94.5939 55.883 98.552 52.0779 104.166 52.0779C106.993 52.0779 109.366 53.0208 111.44 55.0927L114.528 52.0779C112.042 49.2513 108.35 47.7813 103.94 47.7813C95.6875 47.7813 89.6572 53.4724 89.6572 61.3481C89.6572 69.2238 95.6874 74.9126 103.865 74.9126C107.595 74.9126 111.44 73.7836 114.19 71.5591V61.047H109.554V69.2614ZM129.227 74.7997C135.481 74.7997 139.966 70.5054 139.966 64.4758C139.966 58.4462 135.481 54.1874 129.227 54.1874C123.047 54.1874 118.524 58.4462 118.524 64.4758C118.524 70.5054 123.047 74.7997 129.227 74.7997ZM129.227 70.7688C125.834 70.7688 123.273 68.3185 123.273 64.4758C123.273 60.631 125.834 58.1826 129.227 58.1826C132.656 58.1826 135.218 60.631 135.218 64.4758C135.218 68.3185 132.656 70.7688 129.227 70.7688ZM153.534 74.7997C159.788 74.7997 164.273 70.5054 164.273 64.4758C164.273 58.4462 159.788 54.1874 153.534 54.1874C147.353 54.1874 142.831 58.4462 142.831 64.4758C142.831 70.5054 147.353 74.7997 153.534 74.7997ZM153.534 70.7688C150.14 70.7688 147.579 68.3185 147.579 64.4758C147.579 60.631 150.14 58.1826 153.534 58.1826C156.963 58.1826 159.524 60.631 159.524 64.4758C159.524 68.3185 156.963 70.7688 153.534 70.7688ZM184.285 54.4153V57.0893C182.625 55.0927 180.139 54.1874 177.312 54.1874C171.547 54.1874 167.137 58.0323 167.137 63.8717C167.137 69.7131 171.547 73.631 177.312 73.631C180.026 73.631 182.399 72.7655 184.057 70.957V72.0107C184.057 76.0814 182.098 78.1157 177.65 78.1157C174.863 78.1157 171.999 77.1748 170.228 75.705L168.116 79.2466C170.416 81.1303 174.146 82.1109 177.916 82.1109C184.962 82.1109 188.768 78.795 188.768 71.4838V54.4153H184.285ZM178.029 69.6377C174.447 69.6377 171.886 67.3025 171.886 63.8717C171.886 60.4805 174.447 58.1826 178.029 58.1826C181.571 58.1826 184.132 60.4805 184.132 63.8717C184.132 67.3025 181.571 69.6377 178.029 69.6377ZM194.948 74.5363H199.659V46.5771H194.948V74.5363ZM224.758 64.5887C224.758 58.2957 220.461 54.1874 214.582 54.1874C208.591 54.1874 204.182 58.4838 204.182 64.4758C204.182 70.4657 208.554 74.7997 215.299 74.7997C218.766 74.7997 221.593 73.6687 223.401 71.5215L220.875 68.6197C219.443 70.0894 217.672 70.8065 215.412 70.8065C211.908 70.8065 209.457 68.9227 208.893 65.9832H224.683C224.72 65.5295 224.758 64.965 224.758 64.5887ZM214.582 57.957C217.672 57.957 219.897 59.9536 220.273 62.8555H208.855C209.306 59.916 211.529 57.957 214.582 57.957ZM250.986 48.1599H240.133V74.5363H245.031V66.924H250.986C257.92 66.924 262.216 63.3447 262.216 57.5409C262.216 51.7016 257.92 48.1599 250.986 48.1599ZM250.76 62.7802H245.031V52.3037H250.76C255.055 52.3037 257.28 54.2251 257.28 57.5409C257.28 60.8589 255.055 62.7802 250.76 62.7802ZM267.04 74.5363H271.751V46.5771H267.04V74.5363ZM285.62 54.1874C282.379 54.1874 279.251 55.0173 277.102 56.6752L278.95 60.1041C280.455 58.8601 282.793 58.1075 285.053 58.1075C288.407 58.1075 290.065 59.7278 290.065 62.4792V62.7802H284.865C278.76 62.7802 276.499 65.4166 276.499 68.7701C276.499 72.2763 279.402 74.7997 283.999 74.7997C287.014 74.7997 289.199 73.8212 290.33 72.0859V74.5363H294.776V62.7426C294.776 56.9388 291.422 54.1874 285.62 54.1874ZM284.978 71.3709C282.567 71.3709 281.135 70.2775 281.135 68.5819C281.135 67.1121 282 65.9079 285.204 65.9079H290.065V68.2432C289.275 70.3151 287.278 71.3709 284.978 71.3709ZM314.752 54.4153L308.383 69.2991L302.052 54.4153H297.153L305.933 74.6115L305.594 75.4039C304.691 77.4005 303.71 78.1908 302.052 78.1908C300.77 78.1908 299.489 77.664 298.585 76.7963L296.702 80.2648C297.981 81.4314 300.093 82.1109 302.09 82.1109C305.443 82.1109 308.007 80.7165 309.853 76.1566L319.275 54.4153H314.752Z" fill="#FEFEFE"/>
<path d="M80.6084 49.2323L67.9439 41.9272L57.5293 51.9962L67.0428 61.2018L80.6084 53.3699C81.3528 52.9392 81.796 52.1678 81.796 51.3043C81.796 50.4471 81.3528 49.6672 80.6084 49.2323Z" fill="#EDDE3F"/>
<path d="M65.7961 40.688L51.8559 32.6409L21.3184 16.9917L55.8098 50.3367L65.7961 40.688Z" fill="#8DC475"/>
<path d="M21.8262 86.5072L51.914 69.9342L64.8963 62.4325L55.8093 53.6558L21.8262 86.5072Z" fill="#CB4455"/>
<path d="M19.2829 18.3496L19.2451 85.6807L54.0983 51.9912L19.2829 18.3496Z" fill="#8DC8F4"/>
</svg>
