<svg width="18" height="18" viewBox="0 0 18 18" fill="none" xmlns="http://www.w3.org/2000/svg">
<path d="M17.7957 8.31143L10.4695 0.936947C10.4601 0.927455 10.4503 0.918244 10.4404 0.909314C9.64044 0.191037 8.43159 0.188471 7.62855 0.903373C7.61857 0.912267 7.60886 0.921443 7.59941 0.930865L0.206433 8.30928C-0.0684181 8.58364 -0.0688751 9.02882 0.205449 9.30368C0.479808 9.57853 0.924992 9.57895 1.19981 9.30466L1.75781 8.74775V14.8187C1.75781 16.3695 3.0195 17.6312 4.57031 17.6312H7.10156C7.48989 17.6312 7.80468 17.3164 7.80468 16.928V11.1976H10.2656V16.928C10.2656 17.3164 10.5804 17.6312 10.9687 17.6312H13.4297C14.9805 17.6312 16.2422 16.3695 16.2422 14.8187C16.2422 14.4303 15.9274 14.1155 15.5391 14.1155C15.1507 14.1155 14.8359 14.4303 14.8359 14.8187C14.8359 15.5941 14.2051 16.2249 13.4297 16.2249H11.6719V10.4945C11.6719 10.1061 11.3571 9.79133 10.9687 9.79133H7.10156C6.71322 9.79133 6.39843 10.1061 6.39843 10.4945V16.2249H4.57031C3.7949 16.2249 3.16406 15.5941 3.16406 14.8187V7.36555C3.16406 7.35852 3.16395 7.35152 3.16374 7.34456L8.57622 1.94277C8.83965 1.71907 9.22602 1.71991 9.48842 1.9447L14.8359 7.32747V11.303C14.8359 11.6914 15.1507 12.0062 15.5391 12.0062C15.9274 12.0062 16.2422 11.6914 16.2422 11.303V8.74297L16.7981 9.30255C16.9355 9.44089 17.1161 9.51011 17.2969 9.51011C17.4761 9.51011 17.6553 9.44202 17.7924 9.30579C18.0679 9.03209 18.0694 8.58691 17.7957 8.31143Z" fill="#FF6B01"/>
</svg>
