<svg width="450" height="308" viewBox="0 0 450 308" fill="none" xmlns="http://www.w3.org/2000/svg">
<g clip-path="url(#clip0)">
<rect width="450" height="308" rx="30" fill="#EAEAFF"/>
<g filter="url(#filter0_d)">
<rect x="171" y="29" width="116" height="37" rx="18.5" fill="white"/>
</g>
<path d="M188.877 59.3388C195.606 59.3388 201.061 53.8837 201.061 47.1545C201.061 40.4253 195.606 34.9702 188.877 34.9702C182.147 34.9702 176.692 40.4253 176.692 47.1545C176.692 53.8837 182.147 59.3388 188.877 59.3388Z" fill="#6050BF"/>
<path fill-rule="evenodd" clip-rule="evenodd" d="M181.513 47.5502H181.448C181.448 47.5502 181.188 47.4527 181.184 48.2572C181.181 49.0618 181.179 49.2884 181.179 49.2884L181.168 51.4787C181.168 51.4787 181.301 53.0256 183.246 53.0351L194.653 53.0909H194.848C195.271 53.0173 195.654 52.7966 195.93 52.4679C196.206 52.1391 196.357 51.7234 196.356 51.2943C196.364 49.741 196.371 48.3305 196.371 48.3305V47.9443C196.374 47.8684 196.349 47.7941 196.301 47.7348C196.254 47.6756 196.187 47.6351 196.112 47.6208C196.051 47.6208 196.047 47.6208 196.047 47.6208C196.008 47.6217 195.969 47.6311 195.934 47.6484C195.898 47.6657 195.867 47.6904 195.842 47.7208C195.817 47.7513 195.799 47.7868 195.789 47.8249C195.779 47.863 195.777 47.9028 195.784 47.9416C195.784 48.2699 195.784 48.2641 195.784 48.2641L195.768 51.485C195.768 51.485 195.57 52.5151 194.784 52.5114L192.568 52.5003L183.378 52.4555H183.248C182.921 52.5185 182.582 52.4522 182.304 52.2706C182.025 52.0889 181.828 51.8061 181.753 51.4818C181.762 51.3745 181.762 51.2667 181.753 51.1593L181.77 48.0028C181.77 48.0028 181.803 47.5518 181.513 47.5502ZM181.777 46.5854C183.605 47.1582 185.478 47.5768 187.376 47.8368L190.309 47.851C190.309 47.851 194.029 47.693 195.856 46.6539C196.051 46.6432 196.247 46.6442 196.442 46.6571V46.979C196.442 46.979 194.232 48.321 190.243 48.3015L187.31 48.2873C187.31 48.2873 185.005 48.3442 181.19 46.9047C181.17 46.82 181.17 46.7318 181.19 46.6471V46.5823L181.777 46.5854ZM181.19 46.5823L181.204 43.8767C181.204 43.8767 181.409 42.1448 183.493 42.4014L185.448 42.4109L194.117 42.453C194.117 42.453 196.598 42.1712 196.451 44.7909C196.444 46.5264 196.442 46.6592 196.442 46.6592L195.856 46.656L195.868 44.1433C195.868 44.1433 195.833 42.9078 194.114 42.9752C192.467 42.9752 192.484 42.9673 192.484 42.9673L183.49 42.9236C183.49 42.9236 181.904 42.8356 181.79 43.9457C181.784 45.0564 181.777 46.5875 181.777 46.5875L181.19 46.5823ZM185.774 42.4104L185.78 41.2575C185.78 41.2575 185.801 39.7238 188.395 39.7364L189.307 39.7412H189.373C189.373 39.7412 191.638 39.709 191.842 41.287L191.836 42.4399L191.249 42.4367L191.255 41.2196C191.255 41.2196 191.251 40.189 189.306 40.179L188.199 40.1737C188.199 40.1737 186.477 40.2364 186.368 41.3245C186.363 42.3519 186.363 42.413 186.363 42.413L185.774 42.4104Z" fill="white"/>
<path fill-rule="evenodd" clip-rule="evenodd" d="M187.839 47.0073L189.731 47.0163C189.731 47.0163 190.252 47.0073 190.248 47.8878C190.244 48.7682 190.238 49.9358 190.238 49.9358C190.21 50.0784 190.138 50.2087 190.032 50.3083C189.926 50.408 189.792 50.4719 189.648 50.4911L188.213 50.4843H187.95C187.788 50.4679 187.635 50.3976 187.518 50.2845C187.4 50.1714 187.324 50.0221 187.301 49.8605C187.301 49.3336 187.311 47.8746 187.311 47.8746C187.311 47.8746 187.374 47.0052 187.839 47.0073Z" fill="white"/>
<path fill-rule="evenodd" clip-rule="evenodd" d="M188.142 47.4536L189.486 47.4605C189.486 47.4605 189.855 47.4536 189.855 48.1064C189.855 48.7593 189.847 49.6249 189.847 49.6249C189.828 49.729 189.778 49.8246 189.702 49.8985C189.627 49.9724 189.53 50.0208 189.425 50.0369L188.405 50.0322H188.22C188.102 50.0182 187.993 49.965 187.909 49.8812C187.825 49.7973 187.773 49.6877 187.759 49.5701C187.759 49.1802 187.766 48.0975 187.766 48.0975C187.766 48.0975 187.809 47.452 188.142 47.4536Z" fill="#6050BF"/>
<path d="M208.382 40.1152H210.982V54.1152H208.382V40.1152ZM219.209 42.3152H214.569V40.1152H226.449V42.3152H221.809V54.1152H219.209V42.3152ZM236.285 54.3152C234.871 54.3152 233.591 54.0086 232.445 53.3952C231.311 52.7686 230.418 51.9086 229.765 50.8152C229.125 49.7219 228.805 48.4886 228.805 47.1152C228.805 45.7419 229.131 44.5086 229.785 43.4152C230.438 42.3219 231.331 41.4686 232.465 40.8552C233.611 40.2286 234.891 39.9152 236.305 39.9152C237.451 39.9152 238.498 40.1152 239.445 40.5152C240.391 40.9152 241.191 41.4952 241.845 42.2552L240.165 43.8352C239.151 42.7419 237.905 42.1952 236.425 42.1952C235.465 42.1952 234.605 42.4086 233.845 42.8352C233.085 43.2486 232.491 43.8286 232.065 44.5752C231.638 45.3219 231.425 46.1686 231.425 47.1152C231.425 48.0619 231.638 48.9086 232.065 49.6552C232.491 50.4019 233.085 50.9886 233.845 51.4152C234.605 51.8286 235.465 52.0352 236.425 52.0352C237.905 52.0352 239.151 51.4819 240.165 50.3752L241.845 51.9752C241.191 52.7352 240.385 53.3152 239.425 53.7152C238.478 54.1152 237.431 54.3152 236.285 54.3152ZM254.723 50.8752H247.723L246.343 54.1152H243.663L249.963 40.1152H252.523L258.843 54.1152H256.123L254.723 50.8752ZM253.863 48.8352L251.223 42.7152L248.603 48.8352H253.863ZM271.384 54.1152L268.524 50.0152C268.404 50.0286 268.224 50.0352 267.984 50.0352H264.824V54.1152H262.224V40.1152H267.984C269.197 40.1152 270.25 40.3152 271.144 40.7152C272.05 41.1152 272.744 41.6886 273.224 42.4352C273.704 43.1819 273.944 44.0686 273.944 45.0952C273.944 46.1486 273.684 47.0552 273.164 47.8152C272.657 48.5752 271.924 49.1419 270.964 49.5152L274.184 54.1152H271.384ZM271.324 45.0952C271.324 44.2019 271.03 43.5152 270.444 43.0352C269.857 42.5552 268.997 42.3152 267.864 42.3152H264.824V47.8952H267.864C268.997 47.8952 269.857 47.6552 270.444 47.1752C271.03 46.6819 271.324 45.9886 271.324 45.0952Z" fill="#6050BF"/>
<path d="M405.03 274.534H421.404V183.351H405.03V274.534Z" fill="#8DCED6"/>
<path d="M331.322 274.534H365.69V162.964H331.322V274.534Z" fill="#B1DFE6"/>
<path d="M365.688 274.534H386.266V162.964H365.688V274.534Z" fill="#8DCED6"/>
<path d="M375.979 274.534H405.029V183.351H375.979V274.534Z" fill="#B1DFE6"/>
<path d="M375.979 190.545H402.529V187.93H375.979V190.545Z" fill="#D5F0F2"/>
<path d="M375.979 196.839H396.89V194.224H375.979V196.839Z" fill="#D5F0F2"/>
<path d="M375.979 203.133H402.529V200.518H375.979V203.133Z" fill="#D5F0F2"/>
<path d="M387.936 209.427H402.528V206.812H387.936V209.427Z" fill="#D5F0F2"/>
<path d="M375.979 215.72H402.529V213.105H375.979V215.72Z" fill="#D5F0F2"/>
<path d="M375.979 222.014H399.893V219.399H375.979V222.014Z" fill="#D5F0F2"/>
<path d="M394.192 228.307H402.528V225.692H394.192V228.307Z" fill="#D5F0F2"/>
<path d="M379.604 234.601H402.528V231.986H379.604V234.601Z" fill="#D5F0F2"/>
<path d="M390.504 240.895H402.529V238.28H390.504V240.895Z" fill="#D5F0F2"/>
<path d="M375.979 247.189H402.529V244.574H375.979V247.189Z" fill="#D5F0F2"/>
<path d="M375.979 253.482H394.806V250.867H375.979V253.482Z" fill="#D5F0F2"/>
<path d="M375.979 259.776H402.529V257.161H375.979V259.776Z" fill="#D5F0F2"/>
<path d="M375.979 274.534H402.529V263.455H375.979V274.534Z" fill="#D5F0F2"/>
<path d="M407.187 274.534H413.217V263.455H407.187V274.534Z" fill="#B1DFE6"/>
<path d="M331.322 171.664H357.872V169.049H331.322V171.664Z" fill="#D5F0F2"/>
<path d="M331.322 177.958H357.872V175.343H331.322V177.958Z" fill="#D5F0F2"/>
<path d="M331.322 184.252H357.872V181.637H331.322V184.252Z" fill="#D5F0F2"/>
<path d="M331.322 190.545H357.872V187.93H331.322V190.545Z" fill="#D5F0F2"/>
<path d="M331.322 196.839H357.872V194.224H331.322V196.839Z" fill="#D5F0F2"/>
<path d="M331.322 203.133H357.872V200.518H331.322V203.133Z" fill="#D5F0F2"/>
<path d="M331.322 209.427H357.872V206.812H331.322V209.427Z" fill="#D5F0F2"/>
<path d="M331.322 215.72H357.872V213.105H331.322V215.72Z" fill="#D5F0F2"/>
<path d="M331.322 222.014H357.872V219.399H331.322V222.014Z" fill="#D5F0F2"/>
<path d="M331.322 228.307H357.872V225.692H331.322V228.307Z" fill="#D5F0F2"/>
<path d="M331.322 234.601H357.872V231.986H331.322V234.601Z" fill="#D5F0F2"/>
<path d="M331.322 240.895H357.872V238.28H331.322V240.895Z" fill="#D5F0F2"/>
<path d="M331.322 247.189H357.872V244.574H331.322V247.189Z" fill="#D5F0F2"/>
<path d="M331.322 253.482H357.872V250.867H331.322V253.482Z" fill="#D5F0F2"/>
<path d="M331.322 259.776H357.872V257.161H331.322V259.776Z" fill="#D5F0F2"/>
<path d="M331.322 266.07H357.872V263.455H331.322V266.07Z" fill="#D5F0F2"/>
<path d="M331.322 272.364H357.872V269.749H331.322V272.364Z" fill="#D5F0F2"/>
<path d="M331.322 190.545H340.016V187.93H331.322V190.545Z" fill="white"/>
<path d="M340.017 203.133H342.1V200.518H340.017V203.133Z" fill="white"/>
<path d="M353.622 177.958H357.872V175.343H353.622V177.958Z" fill="white"/>
<path d="M343.161 184.252H345.205V181.637H343.161V184.252Z" fill="white"/>
<path d="M348.886 215.72H355.667V213.105H348.886V215.72Z" fill="white"/>
<path d="M334.666 171.664H336.544V169.072H334.666V171.664Z" fill="white"/>
<path d="M337.991 184.252H340.014V181.637H337.991V184.252Z" fill="white"/>
<path d="M361.03 162.964H370.346V157.363H361.03V162.964Z" fill="#8DCED6"/>
<path d="M254.815 274.534H273.171V142.388H254.815V274.534Z" fill="#8DCED6"/>
<path d="M225.954 274.534H254.815V142.388H225.954V274.534Z" fill="#B1DFE6"/>
<path d="M278.571 274.535H318.611V121.779H278.571V274.535Z" fill="#B1DFE6"/>
<path d="M225.954 151.087H254.815V148.473H225.954V151.087Z" fill="#D5F0F2"/>
<path d="M225.954 157.382H254.815V154.767H225.954V157.382Z" fill="#D5F0F2"/>
<path d="M225.954 163.675H254.815V161.061H225.954V163.675Z" fill="#D5F0F2"/>
<path d="M225.954 169.968H254.815V167.354H225.954V169.968Z" fill="#D5F0F2"/>
<path d="M225.954 176.262H254.815V173.647H225.954V176.262Z" fill="#D5F0F2"/>
<path d="M225.954 182.557H254.815V179.942H225.954V182.557Z" fill="#D5F0F2"/>
<path d="M225.954 188.85H254.815V186.235H225.954V188.85Z" fill="#D5F0F2"/>
<path d="M225.954 195.144H254.815V192.529H225.954V195.144Z" fill="#D5F0F2"/>
<path d="M225.954 201.438H254.815V198.823H225.954V201.438Z" fill="#D5F0F2"/>
<path d="M225.954 207.731H254.815V205.116H225.954V207.731Z" fill="#D5F0F2"/>
<path d="M225.954 214.025H254.815V211.41H225.954V214.025Z" fill="#D5F0F2"/>
<path d="M225.954 220.318H254.815V217.703H225.954V220.318Z" fill="#D5F0F2"/>
<path d="M225.954 226.612H254.815V223.997H225.954V226.612Z" fill="#D5F0F2"/>
<path d="M225.954 232.906H254.815V230.291H225.954V232.906Z" fill="#D5F0F2"/>
<path d="M225.954 239.199H254.815V236.584H225.954V239.199Z" fill="#D5F0F2"/>
<path d="M225.954 245.493H254.815V242.878H225.954V245.493Z" fill="#D5F0F2"/>
<path d="M225.954 251.787H254.815V249.172H225.954V251.787Z" fill="#D5F0F2"/>
<path d="M254.815 151.087H266.715V148.473H254.815V151.087Z" fill="#B1DFE6"/>
<path d="M254.815 157.382H266.715V154.767H254.815V157.382Z" fill="#B1DFE6"/>
<path d="M254.815 163.675H266.715V161.061H254.815V163.675Z" fill="#B1DFE6"/>
<path d="M254.815 169.968H266.715V167.354H254.815V169.968Z" fill="#B1DFE6"/>
<path d="M254.815 176.262H266.715V173.647H254.815V176.262Z" fill="#B1DFE6"/>
<path d="M254.815 182.557H266.715V179.942H254.815V182.557Z" fill="#B1DFE6"/>
<path d="M254.815 188.85H266.715V186.235H254.815V188.85Z" fill="#B1DFE6"/>
<path d="M254.815 195.144H266.715V192.529H254.815V195.144Z" fill="#B1DFE6"/>
<path d="M254.815 201.438H266.715V198.823H254.815V201.438Z" fill="#B1DFE6"/>
<path d="M254.815 207.731H266.715V205.116H254.815V207.731Z" fill="#B1DFE6"/>
<path d="M254.815 214.025H266.715V211.41H254.815V214.025Z" fill="#B1DFE6"/>
<path d="M254.815 220.318H266.715V217.703H254.815V220.318Z" fill="#B1DFE6"/>
<path d="M254.815 226.612H266.715V223.997H254.815V226.612Z" fill="#B1DFE6"/>
<path d="M254.815 232.906H266.715V230.291H254.815V232.906Z" fill="#B1DFE6"/>
<path d="M254.815 239.199H266.715V236.584H254.815V239.199Z" fill="#B1DFE6"/>
<path d="M254.815 245.493H266.715V242.878H254.815V245.493Z" fill="#B1DFE6"/>
<path d="M254.815 251.787H266.715V249.172H254.815V251.787Z" fill="#B1DFE6"/>
<path d="M229.82 151.087H232.436V148.473H229.82V151.087Z" fill="white"/>
<path d="M244.201 163.675H254.815V161.061H244.201V163.675Z" fill="white"/>
<path d="M235.376 188.85H237.991V186.235H235.376V188.85Z" fill="white"/>
<path d="M243.058 195.144H251.965V192.529H243.058V195.144Z" fill="white"/>
<path d="M231.934 207.731H234.426V205.116H231.934V207.731Z" fill="white"/>
<path d="M240.385 207.731H242.79V205.116H240.385V207.731Z" fill="white"/>
<path d="M231.934 214.025H234.426V211.41H231.934V214.025Z" fill="white"/>
<path d="M258.013 195.144H260.28V192.529H258.013V195.144Z" fill="#D5F0F2"/>
<path d="M262.363 169.968H266.715V167.354H262.363V169.968Z" fill="#D5F0F2"/>
<path d="M258.013 157.382H260.311V154.767H258.013V157.382Z" fill="#D5F0F2"/>
<path d="M200.308 274.534H216.098V173.047H200.308V274.534Z" fill="#8DCED6"/>
<path d="M203.562 274.534H206.285V179.941H203.562V274.534Z" fill="#B1DFE6"/>
<path d="M203.562 188.85H206.285V186.235H203.562V188.85Z" fill="#D5F0F2"/>
<path d="M203.562 207.732H206.285V198.823H203.562V207.732Z" fill="#D5F0F2"/>
<path d="M203.562 232.906H206.285V230.291H203.562V232.906Z" fill="#D5F0F2"/>
<path d="M282.132 274.534H283.014V128.215H282.132V274.534Z" fill="white"/>
<path d="M286.137 274.534H287.019V128.215H286.137V274.534Z" fill="white"/>
<path d="M290.142 274.534H291.024V128.215H290.142V274.534Z" fill="white"/>
<path d="M294.145 274.534H295.027V128.215H294.145V274.534Z" fill="white"/>
<path d="M298.149 274.534H299.032V128.215H298.149V274.534Z" fill="#D5F0F2"/>
<path d="M302.154 212.303H303.037V128.216H302.154V212.303Z" fill="#D5F0F2"/>
<path d="M306.156 274.534H307.039V128.215H306.156V274.534Z" fill="white"/>
<path d="M310.162 199.8H311.045V128.216H310.162V199.8Z" fill="#D5F0F2"/>
<path d="M314.167 197.349H315.049V128.216H314.167V197.349Z" fill="#D5F0F2"/>
<path d="M318.612 274.534H331.324V193.878H318.612V274.534Z" fill="#8DCED6"/>
<path d="M15.5635 274.534H85.1944V224.125H15.5635V274.534Z" fill="#B1DFE6"/>
<path d="M96.3643 274.534H110.623V203.738H96.3643V274.534Z" fill="#B1DFE6"/>
<path d="M85.1943 274.534H96.3642V224.125H85.1943V274.534Z" fill="#8DCED6"/>
<path d="M64.4512 234.601H85.1944V231.986H64.4512V234.601Z" fill="#D5F0F2"/>
<path d="M18.4365 240.895H82.1155V238.28H18.4365V240.895Z" fill="#D5F0F2"/>
<path d="M30.9463 247.189H63.0617V244.574H30.9463V247.189Z" fill="#D5F0F2"/>
<path d="M72.2676 253.482H85.1942V250.867H72.2676V253.482Z" fill="#D5F0F2"/>
<path d="M42.5508 259.776H81.014V257.161H42.5508V259.776Z" fill="#D5F0F2"/>
<path d="M23.0469 274.534H85.194V263.455H23.0469V274.534Z" fill="#D5F0F2"/>
<path d="M80.5215 224.125H89.8374V218.524H80.5215V224.125Z" fill="#8DCED6"/>
<path d="M69.7754 224.125H80.5213V218.524H69.7754V224.125Z" fill="#B1DFE6"/>
<path d="M257.645 142.388H266.96V136.787H257.645V142.388Z" fill="#8DCED6"/>
<path d="M246.899 142.388H257.645V136.787H246.899V142.388Z" fill="#B1DFE6"/>
<path d="M350.289 162.964H361.033V157.363H350.289V162.964Z" fill="#B1DFE6"/>
<path d="M309.751 306.202C309.751 307.226 279.604 308.055 242.415 308.055C205.227 308.055 175.079 307.226 175.079 306.202C175.079 305.179 205.227 304.349 242.415 304.349C279.604 304.349 309.751 305.179 309.751 306.202Z" fill="#1E2859"/>
<path d="M417.48 306.202C417.48 307.429 382.996 308.423 340.461 308.423C297.919 308.423 263.436 307.429 263.436 306.202C263.436 304.976 297.919 303.981 340.461 303.981C382.996 303.981 417.48 304.976 417.48 306.202Z" fill="#1E2859"/>
<path d="M6.8228 274.645C5.6585 270.945 5.72914 268.106 7.03926 265.969C9.24723 262.365 14.6251 261.462 19.8255 260.589C24.6831 259.773 29.7066 258.93 31.6233 255.856C32.6814 254.158 32.7656 251.89 31.8811 248.923C29.9312 242.38 30.1704 238.074 32.6128 235.759C37.6239 231.009 51.5372 234.741 75.4593 243.289C80.1057 244.95 83.1011 245.303 84.6188 244.37C85.9259 243.566 86.1396 241.86 86.3865 239.885C86.6501 237.778 86.9489 235.391 88.7824 233.797C92.8007 230.305 97.5294 232.428 103.005 234.886C107.059 236.705 111.654 238.768 116.644 238.768V239.503C111.497 239.503 106.826 237.407 102.703 235.557C97.4578 233.202 92.9272 231.168 89.2648 234.352C87.6435 235.761 87.3753 237.904 87.1162 239.976C86.8568 242.049 86.6123 244.007 85.0038 244.996C83.2612 246.068 80.1493 245.746 75.2118 243.982C51.5655 235.532 37.8526 231.803 33.1187 236.292C30.8964 238.398 30.7223 242.461 32.5859 248.713C33.5339 251.894 33.4234 254.358 32.2466 256.245C30.1556 259.6 24.9657 260.472 19.9468 261.314C14.9083 262.16 9.69896 263.035 7.66613 266.352C6.47369 268.299 6.42755 270.938 7.52474 274.423L6.82259 274.645L6.8228 274.645Z" fill="#1E2859"/>
<path d="M189.704 237.608L189.073 237.229C192.836 230.948 202.718 220.089 213.216 217.689C221.207 215.862 224.124 218.325 226.697 220.498C228.225 221.789 229.668 223.007 232.063 223.196C235.722 223.486 238.739 221.911 241.933 220.242C247.613 217.276 253.486 214.21 263.625 220.958L263.218 221.57C253.442 215.064 247.765 218.027 242.274 220.895C238.982 222.614 235.876 224.233 232.004 223.93C229.374 223.721 227.844 222.429 226.222 221.061C223.661 218.898 221.012 216.66 213.379 218.406C203.105 220.755 193.405 231.43 189.704 237.608V237.608Z" fill="#1E2859"/>
<path d="M449.253 274.641L448.585 274.428C449.555 271.374 449.534 269.032 448.525 267.266C446.83 264.308 442.442 263.321 438.206 262.367C432.358 261.051 426.314 259.69 426.626 253.203C426.655 252.659 426.687 252.116 426.715 251.578C427.067 245.255 427.372 239.794 421.307 239.281C414.826 238.732 408.121 241.666 398.901 249.092L398.46 248.545C407.833 240.994 414.688 238.013 421.368 238.58C428.115 239.151 427.774 245.207 427.415 251.616C427.387 252.154 427.358 252.695 427.33 253.237C427.046 259.134 432.542 260.371 438.363 261.681C442.747 262.668 447.285 263.69 449.132 266.916C450.248 268.863 450.287 271.389 449.253 274.641Z" fill="#1E2859"/>
<path d="M398.581 249.156C393.82 247.758 394.125 243.982 394.456 239.987C394.637 237.773 394.818 235.482 394.154 233.464C392.594 228.745 386.759 228.273 381.113 227.816C378.225 227.582 375.499 227.362 373.456 226.571C368.123 224.51 366.293 221.593 364.523 218.772C363.184 216.639 361.919 214.623 359.194 213.001C353.16 209.411 346.679 210.768 339.821 212.206C334.456 213.329 328.909 214.493 323.416 213.205C321.622 212.785 319.97 211.903 318.218 210.969C314.576 209.025 310.809 207.02 305.216 208.839C300.932 210.235 294.552 214.369 290.856 217.558L290.396 217.026C294.092 213.835 300.466 209.647 304.998 208.171C310.877 206.255 314.952 208.43 318.545 210.348C320.261 211.259 321.874 212.121 323.576 212.52C328.92 213.773 334.389 212.626 339.679 211.518C346.676 210.052 353.285 208.668 359.552 212.397C362.427 214.105 363.795 216.287 365.12 218.398C366.829 221.122 368.595 223.938 373.705 225.915C375.659 226.669 378.335 226.886 381.17 227.115C386.77 227.568 393.12 228.082 394.822 233.244C395.532 235.398 395.34 237.759 395.152 240.044C394.839 243.907 394.569 247.244 398.78 248.48L398.581 249.156L398.581 249.156Z" fill="#1E2859"/>
<path d="M314.128 118.359C314.512 117.649 314.729 116.881 314.729 116.075C314.729 112.54 310.708 109.674 305.744 109.674C300.782 109.674 296.762 112.54 296.762 116.075C296.762 116.881 296.979 117.649 297.362 118.359H314.128Z" fill="white"/>
<path d="M280.833 104.241C277.235 104.061 274.097 106.082 272.635 109.074C271.811 110.761 270.071 111.845 268.207 111.598C267.426 111.495 266.608 111.44 265.765 111.44C260.13 111.44 255.562 113.875 255.562 116.881C255.562 117.394 255.705 117.889 255.954 118.36H287.054C288.39 116.742 289.146 114.63 289.009 112.34C288.751 108.006 285.166 104.459 280.833 104.241V104.241Z" fill="white"/>
<path d="M176.991 118.36C181.691 104.23 159.791 112.093 160.036 103.514C160.303 94.168 152.6 88.6822 134.279 96.3305C116.011 103.957 116.873 116.608 120.36 118.36H176.991Z" fill="white"/>
<path d="M212.19 118.36C212.529 117.73 212.722 117.048 212.722 116.333C212.722 113.197 209.154 110.655 204.753 110.655C200.351 110.655 196.783 113.197 196.783 116.333C196.783 117.048 196.977 117.73 197.315 118.36H212.19H212.19Z" fill="white"/>
<path d="M106.444 105.835C103.255 105.675 100.471 107.468 99.1737 110.122C98.4417 111.619 96.8972 112.58 95.2449 112.362C94.5513 112.27 93.8253 112.221 93.0777 112.221C88.0794 112.221 84.0273 114.382 84.0273 117.048C84.0273 117.503 84.1535 117.942 84.3748 118.36H111.965C113.149 116.925 113.82 115.051 113.699 113.02C113.471 109.175 110.291 106.028 106.444 105.835L106.444 105.835Z" fill="white"/>
<path d="M192.664 306.202H118.267C114.045 306.202 110.623 302.78 110.623 298.559V134.391C110.623 130.169 114.045 126.747 118.267 126.747H192.664C196.886 126.747 200.308 130.169 200.308 134.391V298.559C200.308 302.78 196.886 306.202 192.664 306.202Z" fill="#1E2859"/>
<path d="M192.663 303.603H118.267C115.48 303.603 113.222 301.345 113.222 298.559V134.391C113.222 131.605 115.48 129.346 118.267 129.346H192.663C195.449 129.346 197.708 131.605 197.708 134.391V298.559C197.708 301.345 195.45 303.603 192.663 303.603Z" fill="white"/>
<path d="M155.465 129.346H137.141L140.025 134.12C140.854 135.492 142.341 136.33 143.944 136.33H166.985C168.588 136.33 170.075 135.492 170.904 134.12L173.789 129.346H155.465H155.465Z" fill="#1E2859"/>
<path d="M113.222 282.113H197.708V148.696H113.222V282.113Z" fill="#D1D1D1"/>
<path d="M169.033 228.902L146.818 241.753L135.168 221.572L157.378 208.716L169.033 228.902ZM197.706 150.767L146.214 180.558L127.823 148.698H122.729L142.395 182.764L113.222 199.645V204.74L144.602 186.588L155.172 204.897L113.222 229.167V234.266L131.343 223.779L142.998 243.959L113.222 261.189V266.288L145.17 247.803C152.138 260.772 153.093 272.231 153.172 282.115H157.585C157.506 271.647 156.496 259.487 148.994 245.592L171.24 232.722L197.707 278.565V269.745L175.059 230.51L197.707 217.409V212.31L172.853 226.691L162.546 208.844L179.315 199.141L174.402 190.653L157.644 200.352L148.421 184.378L197.707 155.866V150.767L197.706 150.767Z" fill="#F6F6F6"/>
<path d="M173.578 229.408C173.11 229.408 172.64 229.347 172.175 229.222C170.782 228.85 169.619 227.957 168.897 226.708L144.345 184.187L146.467 182.961L171.02 225.483C171.414 226.164 172.049 226.651 172.809 226.854C173.569 227.057 174.363 226.953 175.044 226.558L262.673 175.858C263.919 175.135 265.375 174.944 266.769 175.316C268.161 175.689 269.325 176.582 270.045 177.83L277.593 190.901C277.985 191.583 278.623 192.07 279.383 192.273C280.143 192.476 280.936 192.371 281.616 191.977L333.837 161.756C335.088 161.035 336.542 160.841 337.934 161.215C339.327 161.587 340.493 162.481 341.214 163.73L366.669 207.849C367.064 208.531 367.7 209.018 368.46 209.222C369.22 209.424 370.013 209.32 370.695 208.926L389.893 197.82L391.119 199.943L371.921 211.048C370.673 211.771 369.22 211.961 367.824 211.59C366.435 211.217 365.269 210.324 364.548 209.075L339.089 164.955C338.698 164.274 338.059 163.786 337.302 163.583C336.541 163.379 335.745 163.484 335.067 163.878L282.846 194.099C281.598 194.821 280.143 195.014 278.748 194.641C277.354 194.269 276.193 193.376 275.469 192.127L267.925 179.056C267.529 178.375 266.895 177.888 266.135 177.684C265.375 177.482 264.581 177.586 263.901 177.98L176.272 228.68C175.44 229.162 174.515 229.408 173.578 229.408V229.408Z" fill="#EC7B35"/>
<path d="M158.846 183.574C158.846 184.384 152.829 185.041 145.406 185.041C137.983 185.041 131.966 184.384 131.966 183.574C131.966 182.763 137.983 182.106 145.406 182.106C152.829 182.106 158.846 182.763 158.846 183.574Z" fill="#1E2859"/>
<path d="M153.324 173.225C154.902 171.394 155.862 169.015 155.862 166.409C155.862 160.634 151.181 155.953 145.407 155.953C139.632 155.953 134.951 160.634 134.951 166.409C134.951 169.015 135.911 171.394 137.489 173.224L145.407 183.573L153.324 173.225H153.324Z" fill="#EC7B35"/>
<path d="M151.428 166.409C151.428 169.735 148.732 172.431 145.406 172.431C142.08 172.431 139.384 169.735 139.384 166.409C139.384 163.083 142.08 160.386 145.406 160.386C148.732 160.386 151.428 163.083 151.428 166.409Z" fill="white"/>
<path d="M416.614 198.882C416.614 200.456 404.924 201.732 390.505 201.732C376.082 201.732 364.396 200.456 364.396 198.882C364.396 197.307 376.082 196.031 390.505 196.031C404.923 196.031 416.614 197.307 416.614 198.882Z" fill="#1E2859"/>
<path d="M407.596 176.544C411 172.591 413.075 167.458 413.075 161.831C413.075 149.366 402.969 139.262 390.505 139.262C378.04 139.262 367.935 149.366 367.935 161.831C367.935 167.457 370.006 172.591 373.414 176.543L390.505 198.881L407.596 176.544H407.596Z" fill="#EC7B35"/>
<path d="M403.506 161.83C403.506 169.01 397.686 174.83 390.505 174.83C383.323 174.83 377.507 169.01 377.507 161.83C377.507 154.651 383.323 148.831 390.505 148.831C397.686 148.831 403.506 154.651 403.506 161.83Z" fill="white"/>
<path d="M189.22 267.877C182.891 267.877 177.76 276.456 177.76 287.039C177.76 297.623 182.891 306.202 189.22 306.202H200.307V267.876H189.22V267.877Z" fill="#1D1D1B"/>
<path d="M211.767 287.039C211.767 297.623 206.637 306.202 200.307 306.202C193.978 306.202 188.847 297.623 188.847 287.039C188.847 276.456 193.977 267.876 200.307 267.876C206.637 267.876 211.767 276.456 211.767 287.039Z" fill="#1D1D1B"/>
<path d="M208.577 287.039C208.577 294.977 204.875 301.411 200.307 301.411C195.74 301.411 192.037 294.977 192.037 287.039C192.037 279.101 195.74 272.667 200.307 272.667C204.875 272.667 208.577 279.101 208.577 287.039Z" fill="#3C3C3B"/>
<path d="M369.796 292.114C369.796 292.114 379.369 292.481 382.161 292.114C383.345 291.958 385.583 290.286 385.583 290.286C385.683 289.693 385.771 289.093 385.853 288.486C387.768 273.771 382.861 261.034 374.899 260.037C366.932 259.041 358.923 270.162 357.008 284.878C356.681 287.362 356.557 289.79 356.603 292.114H369.796Z" fill="#1D1D1B"/>
<path d="M359.293 267.877C352.961 267.877 347.834 276.456 347.834 287.039C347.834 297.623 352.961 306.202 359.293 306.202H370.379V267.876H359.293V267.877Z" fill="#1D1D1B"/>
<path d="M381.838 287.039C381.838 297.623 376.707 306.202 370.379 306.202C364.051 306.202 358.92 297.623 358.92 287.039C358.92 276.456 364.051 267.876 370.379 267.876C376.707 267.876 381.838 276.456 381.838 287.039Z" fill="#3C3C3B"/>
<path d="M378.647 287.039C378.647 294.977 374.948 301.411 370.379 301.411C365.813 301.411 362.11 294.977 362.11 287.039C362.11 279.101 365.813 272.667 370.379 272.667C374.948 272.667 378.647 279.101 378.647 287.039Z" fill="#878787"/>
<path d="M277.799 267.877C271.471 267.877 266.338 276.456 266.338 287.039C266.338 297.623 271.471 306.202 277.799 306.202H288.886V267.876H277.799V267.877Z" fill="#1D1D1B"/>
<path d="M300.347 287.039C300.347 297.623 295.214 306.202 288.886 306.202C282.555 306.202 277.425 297.623 277.425 287.039C277.425 276.456 282.555 267.876 288.886 267.876C295.214 267.876 300.347 276.456 300.347 287.039Z" fill="#1D1D1B"/>
<path d="M297.157 287.039C297.157 294.977 293.452 301.411 288.886 301.411C284.317 301.411 280.615 294.977 280.615 287.039C280.615 279.101 284.317 272.667 288.886 272.667C293.452 272.667 297.157 279.101 297.157 287.039Z" fill="#3C3C3B"/>
<path d="M297.665 294.969C298.217 293.067 298.64 291.064 298.912 288.984C300.791 274.544 294.653 261.88 285.202 260.698C275.755 259.516 266.978 270.32 264.689 284.703C264.064 288.647 263.794 292.042 263.825 294.969H297.665Z" fill="#1D1D1B"/>
<path d="M270.714 267.877C264.386 267.877 259.254 276.456 259.254 287.039C259.254 297.623 264.386 306.202 270.714 306.202H281.801V267.876H270.714V267.877Z" fill="#1D1D1B"/>
<path d="M293.262 287.039C293.262 297.623 288.129 306.202 281.801 306.202C275.47 306.202 270.34 297.623 270.34 287.039C270.34 276.456 275.47 267.876 281.801 267.876C288.129 267.876 293.262 276.456 293.262 287.039Z" fill="#3C3C3B"/>
<path d="M290.072 287.039C290.072 294.977 286.367 301.411 281.801 301.411C277.232 301.411 273.53 294.977 273.53 287.039C273.53 279.101 277.232 272.667 281.801 272.667C286.367 272.667 290.072 279.101 290.072 287.039Z" fill="#878787"/>
<path d="M388.87 263.117C388.824 261.558 388.394 260.226 387.676 258.872C386.724 257.077 387.161 255.512 387.286 253.595C387.378 252.145 387.413 250.616 387.104 249.186C386.717 247.4 385.523 246.852 384.39 245.583C383.448 244.529 382.94 243.414 381.472 242.982C380.666 242.744 380.172 242.688 379.426 242.237C378.52 241.693 377.642 241.113 376.775 240.51C370.589 236.198 365.064 231.189 358.43 227.479C351.931 223.843 344.892 221.12 337.58 219.531C330.157 217.917 322.518 217.267 314.946 216.705C307.083 216.122 299.213 216.04 291.335 216.049C283.137 216.058 272.584 216.642 264.392 217.506C260.693 217.896 257.198 218.629 253.658 219.503C249.799 220.456 246.694 221.664 243.249 223.195C233.746 227.419 217.371 239.016 213.256 241.919C212.213 242.653 210.618 243.453 209.074 243.776C202.882 245.073 196.953 247.373 193.083 249.633C191.717 250.431 190.494 251.226 189.144 252.037C187.667 252.925 186.246 253.366 184.655 254.061C183.05 254.763 181.293 255.331 179.793 256.049C178.296 256.766 177.283 257.36 175.938 258.341C174.781 259.185 173.498 260.56 173.282 262.005C173.082 263.343 173.647 265.234 172.877 266.417C172.675 266.728 171.802 267.431 171.518 267.625C170.003 268.662 169.895 271.008 169.827 272.758C169.632 277.796 170.383 282.393 170.125 285.161C169.966 286.869 169.631 288.585 170.032 290.285C170.327 291.533 171.136 293.906 172.34 294.573C172.835 294.848 173.241 294.816 173.718 295.2C174.101 295.507 174.335 295.886 174.81 296.078C175.166 296.222 175.512 296.237 175.869 296.237C187.301 296.237 207.409 296.237 225.843 296.237C243.33 296.237 259.309 296.237 264.947 296.237H266.562C266.611 292.207 267.025 287.632 267.984 283.049C268.851 278.923 271.266 273.327 273.166 270.527C279.178 261.663 287.286 263.628 290.026 265.755C294.788 269.451 296.636 276.524 296.636 282.218C296.636 289.093 295.567 292.087 294.813 294.97H297.326C299.599 294.97 302.265 294.97 305.06 294.97C310.539 294.97 316.506 294.97 320.965 294.97C329.006 294.97 337.047 294.97 345.088 294.97C349.92 294.97 353.072 294.97 359.109 294.97C359.464 294.97 359.784 294.913 360.011 294.648C360.48 294.106 359.059 289.644 360.2 282.935C360.832 279.201 361.791 275.558 363.586 272.204C365.234 269.13 368.581 263.735 373.055 264.087C378.648 264.528 381.839 271.478 382.695 275.603C384.162 282.673 383.302 286.969 382.617 290.879C382.343 292.45 383.676 291.495 384.496 291.021C385.776 290.281 386.461 289.89 387.275 288.883C388.281 287.642 388.153 286.253 388.305 284.739C388.679 280.97 389.414 277.436 388.298 273.364C387.375 269.977 388.981 266.548 388.87 263.117L388.87 263.117Z" fill="#8684C7"/>
<path fill-rule="evenodd" clip-rule="evenodd" d="M358.973 227.786L358.658 227.608C360.711 228.77 362.66 230.055 364.556 231.404L364.579 231.419L364.721 231.521L364.753 231.544L364.864 231.623L364.949 231.684L365.006 231.725L365.145 231.825L365.148 231.827L365.29 231.93L365.34 231.967L365.431 232.033L365.535 232.108L365.573 232.136L365.714 232.239L365.73 232.251L365.855 232.342C366.746 232.995 367.628 233.659 368.507 234.328L368.552 234.362L368.597 234.397L368.625 234.418L368.642 234.431L368.687 234.465L368.732 234.5C369.527 235.106 370.32 235.716 371.114 236.325C370.323 235.716 369.529 235.106 368.732 234.5L368.687 234.465L368.642 234.431L368.625 234.418L368.597 234.397L368.552 234.362L368.507 234.328L368.236 234.123C367.447 233.523 366.655 232.928 365.855 232.342L365.73 232.251L365.714 232.239L365.573 232.136L365.535 232.108L365.431 232.033L365.34 231.967L365.29 231.93L365.148 231.827L365.145 231.825L365.006 231.725L364.949 231.684L364.864 231.623L364.753 231.544L364.721 231.521L364.579 231.419L364.556 231.404C362.757 230.124 360.91 228.901 358.973 227.786ZM358.658 227.608L358.65 227.603L358.642 227.599L358.641 227.598L358.633 227.594L358.624 227.589L358.616 227.584L358.607 227.579L358.599 227.574L358.59 227.57L358.582 227.565L358.573 227.56L358.565 227.555L358.556 227.55L358.548 227.545L358.539 227.541L358.53 227.536L358.522 227.531L358.513 227.526L358.505 227.521L358.496 227.516L358.488 227.512L358.479 227.507L358.471 227.502L358.462 227.497L358.454 227.492L358.445 227.488L358.437 227.483L358.428 227.478L358.376 227.449L358.368 227.444L358.324 227.42L358.307 227.41L358.272 227.391L358.246 227.377L358.221 227.362L358.186 227.343L358.169 227.333L358.125 227.309L358.117 227.304L358.013 227.247L358.004 227.242L357.961 227.218L357.943 227.209L357.909 227.19L357.882 227.175L357.857 227.161L357.822 227.142L357.805 227.132L357.761 227.108L357.752 227.104L357.7 227.075L357.7 227.075L357.639 227.042L357.596 227.018L357.578 227.009L357.456 226.943L357.439 226.933L357.395 226.909L357.387 226.905L357.178 226.792L357.15 226.778L357.125 226.764L357.089 226.745L357.028 226.713L357.02 226.708L356.968 226.68L356.967 226.68L356.915 226.652L356.905 226.647L356.863 226.625L356.844 226.615L356.722 226.55L356.705 226.541L356.66 226.518L356.652 226.514L356.6 226.486L356.599 226.485L356.476 226.421L356.442 226.403L356.414 226.389L356.352 226.357L356.336 226.348L356.291 226.325L356.283 226.321L356.231 226.293L356.229 226.293L356.178 226.266L356.167 226.261L356.125 226.239L356.106 226.229L356.072 226.211L356.044 226.197L356.019 226.184L355.982 226.165L355.966 226.157L355.92 226.133L355.913 226.13L355.86 226.103L355.859 226.102L355.807 226.076L355.797 226.07L355.754 226.049L355.673 226.007L355.648 225.995L355.611 225.976L355.595 225.968L355.487 225.913L355.436 225.887L355.425 225.882L355.382 225.86L355.301 225.819L355.276 225.807L355.176 225.757L355.17 225.754L355.116 225.727L355.114 225.726L355.063 225.701L355.054 225.696L355.052 225.695L355.045 225.692L355.043 225.691C354.858 225.6 354.673 225.509 354.491 225.419C354.675 225.509 354.859 225.599 355.043 225.691L355.045 225.692L355.052 225.695L355.054 225.696L355.114 225.726L355.116 225.727L355.17 225.754L355.176 225.757L355.276 225.807L355.301 225.819L355.382 225.86L355.425 225.882L355.436 225.887L355.487 225.913L355.595 225.968L355.611 225.976L355.648 225.995L355.673 226.007L355.754 226.049L355.797 226.07L355.807 226.076L355.859 226.102L355.86 226.103L355.913 226.13L355.92 226.133L355.966 226.157L355.982 226.165L356.019 226.184L356.044 226.197L356.072 226.211L356.106 226.229L356.125 226.239L356.167 226.261L356.178 226.266L356.229 226.293L356.231 226.293L356.283 226.321L356.291 226.325L356.336 226.348L356.352 226.357L356.414 226.389L356.442 226.403L356.476 226.421L356.599 226.485L356.6 226.486L356.652 226.514L356.66 226.518L356.705 226.541L356.722 226.55L356.844 226.615L356.863 226.625L356.905 226.647L356.915 226.652L356.967 226.68L356.968 226.68L357.02 226.708L357.028 226.713L357.089 226.745L357.125 226.764L357.15 226.778L357.178 226.792L357.387 226.905L357.395 226.909L357.439 226.933L357.456 226.943L357.578 227.009L357.596 227.018L357.639 227.042L357.7 227.075L357.7 227.075L357.752 227.104L357.761 227.108L357.805 227.132L357.822 227.142L357.857 227.161L357.882 227.175L357.909 227.19L357.943 227.209L357.961 227.218L358.004 227.242L358.013 227.247L358.117 227.304L358.125 227.309L358.169 227.333L358.186 227.343L358.221 227.362L358.246 227.377L358.272 227.391L358.307 227.41L358.324 227.42L358.368 227.444L358.376 227.449L358.428 227.478L358.437 227.483L358.445 227.488L358.454 227.492L358.462 227.497L358.471 227.502L358.479 227.507L358.488 227.512L358.496 227.516L358.505 227.521L358.513 227.526L358.522 227.531L358.53 227.536L358.539 227.541L358.548 227.545L358.556 227.55L358.565 227.555L358.573 227.56L358.582 227.565L358.59 227.57L358.599 227.574L358.607 227.579L358.616 227.584L358.624 227.589L358.633 227.594L358.641 227.598L358.642 227.599L358.65 227.603L358.658 227.608ZM315.531 216.749C315.336 216.734 315.137 216.719 314.945 216.705L314.942 216.705L314.94 216.704L314.937 216.704H314.936L314.934 216.704L314.932 216.704L314.929 216.704L314.928 216.703L314.926 216.703L314.924 216.703L314.921 216.703L314.919 216.703L314.918 216.703L314.916 216.702L314.913 216.702L314.911 216.702H314.91L314.908 216.702L314.905 216.702L314.902 216.701H314.902L314.9 216.701L314.894 216.701L314.894 216.701L314.891 216.7L314.889 216.7L314.886 216.7L314.885 216.7L314.883 216.7L314.771 216.692L314.707 216.687L314.704 216.686L314.701 216.686L314.687 216.685L314.683 216.685L314.678 216.685H314.677L314.672 216.684L314.67 216.684L314.666 216.684L314.654 216.683L314.652 216.683L314.648 216.682L314.644 216.682L314.642 216.682L314.636 216.681L314.635 216.681L314.63 216.681L314.626 216.681L314.624 216.68L314.618 216.68L314.618 216.68L314.612 216.68L314.609 216.679L314.606 216.679L314.601 216.679H314.6L314.594 216.678L314.565 216.676L314.559 216.676L314.557 216.676L314.531 216.674L314.529 216.674L314.523 216.673L314.522 216.673L314.47 216.669H314.469L314.463 216.669L314.461 216.669L314.457 216.669L314.453 216.668L314.451 216.668L314.415 216.665L314.409 216.665L314.409 216.665L314.403 216.665L314.4 216.664L314.397 216.664L314.391 216.664L314.397 216.664L314.4 216.664L314.403 216.665L314.409 216.665L314.409 216.665L314.415 216.665L314.451 216.668L314.453 216.668L314.457 216.669L314.461 216.669L314.463 216.669L314.469 216.669H314.47L314.522 216.673L314.523 216.673L314.529 216.674L314.531 216.674L314.557 216.676L314.559 216.676L314.565 216.676L314.594 216.678L314.6 216.679H314.601L314.606 216.679L314.609 216.679L314.612 216.68L314.618 216.68L314.618 216.68L314.624 216.68L314.626 216.681L314.63 216.681L314.635 216.681L314.636 216.681L314.642 216.682L314.644 216.682L314.648 216.682L314.652 216.683L314.654 216.683L314.666 216.684L314.67 216.684L314.672 216.684L314.677 216.685H314.678L314.683 216.685L314.687 216.685L314.701 216.686L314.704 216.686L314.707 216.687L314.883 216.7L314.885 216.7L314.886 216.7L314.889 216.7L314.891 216.7L314.894 216.701L314.894 216.701L314.9 216.701L314.902 216.701H314.902L314.905 216.702L314.908 216.702L314.91 216.702H314.911L314.913 216.702L314.916 216.702L314.918 216.703L314.919 216.703L314.921 216.703L314.924 216.703L314.926 216.703L314.928 216.703L314.929 216.704L314.932 216.704L314.934 216.704L314.936 216.704H314.937L314.94 216.704L314.942 216.705L314.945 216.705C315.137 216.719 315.336 216.734 315.531 216.749ZM291.604 216.048H291.607H291.604Z" fill="url(#paint0_linear)"/>
<path d="M222.012 234.928C219.917 234.881 217.647 235.123 215.775 236.082C214.315 236.829 211.724 239.294 213.125 241.085C213.956 242.147 215.375 241.098 216.098 240.574C217.007 239.915 221.371 237.143 222.311 236.438C223.697 235.399 223.752 234.967 222.012 234.928L222.012 234.928Z" fill="#6050BF"/>
<path fill-rule="evenodd" clip-rule="evenodd" d="M284.543 243.776C284.19 243.776 283.835 243.757 283.489 243.738C283.14 243.719 282.797 243.7 282.472 243.7C282.429 243.7 282.389 243.7 282.349 243.7C282.297 243.701 282.245 243.701 282.19 243.701C280.627 243.701 277.866 243.372 273.431 242.993C268.89 242.604 262.593 242.164 254.03 241.973C254 241.973 253.97 241.972 253.94 241.971C253.929 241.971 253.916 241.971 253.904 241.971C251.611 241.921 249.156 241.889 246.529 241.88C246.322 241.879 246.11 241.879 245.891 241.879H245.89C238.853 241.879 225.334 242.218 218.081 242.718C217.989 242.724 217.905 242.727 217.828 242.727C217.825 242.727 217.823 242.727 217.821 242.727C215.831 242.727 218.336 240.757 219.201 240.016C223.427 236.395 232.527 230.381 235.557 228.492C235.627 228.448 235.694 228.407 235.756 228.368C237.365 227.374 239.09 226.38 240.841 225.454C242.257 224.704 243.691 223.999 245.092 223.372C245.612 223.139 246.087 222.928 246.528 222.736C249.536 221.424 250.915 221.001 254.024 220.615C254.383 220.57 254.761 220.527 255.155 220.484C258.296 220.144 262.421 219.876 265.467 219.796C266.524 219.769 267.573 219.744 268.614 219.722C271.967 219.651 275.249 219.611 278.473 219.609C278.546 219.609 278.617 219.609 278.69 219.609C278.779 219.609 278.868 219.609 278.96 219.609C286.701 219.614 294.129 219.843 301.502 220.399C304.091 220.595 306.678 220.831 309.264 221.111C309.181 221.181 309.098 221.251 309.016 221.322C308.522 221.739 308.044 222.163 307.621 222.549C307.027 223.091 306.537 223.557 306.255 223.818C306.196 223.87 306.151 223.913 306.111 223.948C303.353 226.396 292.627 237.076 290.007 239.915C289.036 240.967 287.825 242.701 286.563 243.375C286.262 243.536 285.938 243.636 285.597 243.696C285.594 243.697 285.591 243.697 285.588 243.697C285.585 243.698 285.582 243.698 285.582 243.699C285.245 243.757 284.895 243.776 284.543 243.776V243.776ZM271.559 227.632C270.153 230.874 267.395 237.779 266.702 240.033C266.515 240.633 266.405 240.978 267.272 241.018C273.713 241.314 277.774 241.669 284.488 242.178C284.681 242.192 284.859 242.201 285.024 242.201C285.766 242.201 286.296 242.03 286.9 241.438C288.098 240.26 292.149 236.067 294.539 233.609C295.375 232.75 294.873 232.349 294.398 232.033C290.273 229.303 286.498 227.666 282.548 226.665C283.507 226.622 284.521 226.58 285.625 226.533C288.383 226.416 292.09 226.635 294.275 224.838C295.97 223.448 298.029 221.633 296.313 221.346C292.565 220.718 285.615 220.497 278.441 220.497C268.764 220.497 258.678 220.9 255.478 221.251C252.255 221.606 249.955 222.077 247.184 223.376C243.015 225.331 239.171 227.397 235.271 229.771C233.668 230.747 228.621 234.07 229.501 236.331C229.595 236.572 229.814 236.752 230.135 236.881C228.31 238.121 226.828 239.237 226.046 239.996C225.761 240.273 225.466 240.858 225.882 240.858C227.679 240.858 229.189 240.857 231.175 240.857C232.906 240.857 234.479 240.018 236.116 239.548C239.678 238.525 243.425 238.265 247.111 238.265C247.156 238.265 247.2 238.265 247.244 238.265C247.244 238.265 247.244 238.265 247.245 238.265C247.506 238.265 247.489 238.036 247.593 237.871C248.496 236.429 250.393 235.857 252.366 235.857C253.944 235.857 255.572 236.223 256.778 236.802C256.837 236.831 256.971 236.864 257.12 236.864C257.326 236.864 257.562 236.8 257.67 236.572C258.49 234.833 259.764 232.34 260.997 230.023C264.753 229.012 268.289 228.136 270.29 227.823C270.725 227.754 271.148 227.691 271.559 227.632L271.559 227.632ZM287.378 237.705H276.104C275.295 237.705 274.706 237.037 274.783 236.237L275.255 231.46C275.316 230.831 275.926 230.334 276.615 230.334H286.216C286.906 230.334 287.559 230.831 287.675 231.46L288.567 236.237C288.717 237.037 288.187 237.705 287.378 237.705H287.378Z" fill="url(#paint1_linear)"/>
<path d="M179.819 264.627C179.82 264.161 179.286 263.608 178.991 263.188C178.477 262.456 178.18 261.391 178.078 260.482C177.965 259.465 178.255 256.885 177.347 257.233C176.516 257.551 175.031 258.764 174.326 259.405C172.786 260.804 172.977 262.464 173.061 264.401C173.12 265.757 173.903 271.057 175.883 269.083C176.695 268.274 177.256 267.593 178.079 266.723C178.741 266.022 179.821 265.176 179.819 264.627Z" fill="#F6F6F6"/>
<path d="M223.696 294.075C222.284 293.285 221.617 293.01 219.748 293.01C215.97 293.01 187.45 293.01 181.087 293.01C178.401 293.01 177.35 292.767 175.203 294.718C173.219 296.521 175.805 296.236 177.056 296.236C185.089 296.236 218.986 296.236 225.033 296.236C225.552 296.236 225.781 295.906 225.589 295.519C225.412 295.164 224.257 294.39 223.696 294.075H223.696Z" fill="#1D1D1B"/>
<path d="M226.892 269.768C225.402 268.352 223.521 266.695 221.723 265.633C220.355 264.825 218.156 264.383 215.315 264.471C210.373 264.625 203.325 264.907 197.935 264.907C193.024 264.907 189.764 264.95 185.152 264.666C182.835 264.524 181.573 264.228 179.976 265.532C178.398 266.822 176.116 269.902 175.194 271.752C174.557 273.031 175.046 275.392 176.02 278.037C176.787 280.118 179.165 285.184 180.294 287.098C180.943 288.198 182.906 289.195 184.902 289.195C187.259 289.195 208.856 289.195 213.788 289.195C216.207 289.195 217.62 288.106 218.733 286.9C220.758 284.709 226.486 277.194 227.749 275.163C229.073 273.034 228.565 271.357 226.892 269.768H226.892Z" fill="#1D1D1B"/>
<path d="M210.179 284.4H184.482C184.07 284.4 183.736 284.066 183.736 283.654V277.463C183.736 277.051 184.07 276.718 184.482 276.718H210.179C210.591 276.718 210.924 277.051 210.924 277.463V283.654C210.924 284.066 210.591 284.4 210.179 284.4Z" fill="white"/>
<path d="M256.223 282.477C255.312 281.239 253.029 278.301 251.515 277.066C250.123 275.929 247.695 276.057 245.48 276.057C245.01 276.057 244.971 276.378 245.174 276.697C246.263 278.413 247.295 280.032 248.448 281.705C249.688 283.507 250.795 284.794 250.132 286.99C249.924 287.68 248.808 288.384 247.493 288.717C245.586 289.2 233.971 291.186 230.024 291.921C229.663 291.987 229.748 292.339 229.999 292.574C230.811 293.33 233.102 293.036 234.483 292.91C236.476 292.728 250.692 291.1 252.547 290.769C254.217 290.47 255.32 289.773 256.184 289.064C256.98 288.412 257.76 287.426 257.899 286.647C258.22 284.842 257.255 283.879 256.223 282.477L256.223 282.477Z" fill="#1D1D1B"/>
<path d="M173.849 291.8C173.691 291.224 172.873 289.411 172.688 287.978C172.523 286.698 172.565 285.273 172.573 283.938C172.587 281.506 172.64 279.748 172.709 277.266C172.724 276.739 172.174 276.343 171.99 276.266C171.416 276.024 170.809 275.898 170.171 275.896C169.899 275.895 169.735 276.189 169.735 276.396C169.735 276.396 170.026 285.39 170.124 286.489C170.196 287.291 170.297 288.265 170.469 289.047C170.777 290.445 171.291 292.208 172.735 293.066C173.752 293.67 174.054 292.554 173.849 291.8H173.849Z" fill="#1D1D1B"/>
<path d="M256.861 284.612C256.861 285.609 256.097 286.417 255.152 286.417C254.208 286.417 253.443 285.609 253.443 284.612C253.443 283.616 254.208 282.808 255.152 282.808C256.097 282.808 256.861 283.616 256.861 284.612Z" fill="#575756"/>
<path d="M172.577 283.47C172.575 283.624 172.575 283.78 172.573 283.938C172.57 284.538 172.558 285.157 172.565 285.771C172.25 286.167 171.78 286.417 171.254 286.417C170.803 286.417 170.397 286.234 170.09 285.931C169.756 285.604 169.546 285.134 169.546 284.614C169.546 284.151 169.709 283.732 169.98 283.413C170.291 283.042 170.747 282.808 171.254 282.808C171.787 282.808 172.264 283.067 172.577 283.47L172.577 283.47Z" fill="#EDEDED"/>
<path d="M256.087 284.612C256.087 285.609 255.322 286.417 254.378 286.417C253.434 286.417 252.669 285.609 252.669 284.612C252.669 283.616 253.434 282.808 254.378 282.808C255.322 282.808 256.087 283.616 256.087 284.612Z" fill="#EDEDED"/>
<path d="M377.844 248.021C366.513 248.542 320.232 253.158 308.458 254.712C305.492 255.103 302.476 255.356 299.516 255.783C298.199 255.974 292.155 256.545 292.155 257.932C292.152 259.493 295.511 259.746 297.846 259.818C300.757 259.908 303.576 259.84 306.338 259.321C312.01 258.255 317.297 256.595 322.947 255.382C328.746 254.139 334.673 253.177 340.553 252.518C347.365 251.754 374.611 249.033 376.228 248.857C376.686 248.806 379.33 248.631 379.589 248.231C379.774 247.946 378.306 248 377.844 248.021Z" fill="white"/>
<path d="M352.655 278.072C350.541 277.816 348.43 277.938 346.316 278.094C342.187 278.398 317.016 280.769 308.568 281.794C307.704 281.899 299.687 282.817 300.714 284.263C300.968 284.625 302.031 284.6 302.712 284.576C302.895 284.57 303.052 284.563 303.159 284.564C304.985 284.586 343.847 281.524 348.729 281.147C350.868 280.981 357.949 280.589 358.088 279.915C358.248 279.156 354.229 278.263 352.655 278.072H352.655Z" fill="#6050BF"/>
<path d="M387.533 249.998C387.533 248.569 386.784 247.535 385.75 246.534C385.462 246.252 384.858 245.587 384.414 245.401C383.703 245.106 383.088 245.504 382.47 245.822C381.621 246.256 379.201 247.555 378.892 248.335C378.526 249.263 380.214 250.44 380.964 251.031C381.98 251.831 382.673 252.738 383.685 253.491C384.521 254.108 385.405 254.067 387.072 254.067C387.718 254.067 387.534 251.274 387.534 249.998L387.533 249.998Z" fill="#B32C52"/>
<path d="M254.544 265.167C253.622 265.167 252.874 264.253 252.874 263.125C252.874 261.998 253.622 261.084 254.544 261.084C255.466 261.084 256.213 261.998 256.213 263.125C256.213 264.253 255.466 265.167 254.544 265.167ZM254.544 259.636C252.967 259.636 251.69 261.198 251.69 263.125C251.69 265.053 252.967 266.615 254.544 266.615C256.119 266.615 257.397 265.053 257.397 263.125C257.397 261.198 256.12 259.636 254.544 259.636Z" fill="white"/>
<path d="M265.278 260.138C265.839 257.984 263.595 257.998 261.482 258.027C260.972 258.035 257.232 258.27 257.332 258.68C257.448 259.153 261.324 259.118 262.051 259.194C264.634 259.464 261.121 264.084 259.974 264.835C257.619 266.375 254.304 266.519 251.593 266.882C247.893 267.379 244.141 267.763 240.394 268.031C239.141 268.121 237.983 268.143 237.521 268.494C237.087 268.823 238.486 268.834 238.933 268.82C242.322 268.718 245.735 268.487 249.12 268.162C252.703 267.818 256.346 267.608 259.746 266.716C261.416 266.278 262.502 265.114 263.436 263.717C264.132 262.675 264.95 261.398 265.278 260.138V260.138Z" fill="white"/>
<path d="M357.505 242.287C356.965 241.339 328.493 242.201 312.568 242.888C310.076 242.996 291.11 244.256 288.628 244.391C283.553 244.669 278.224 245.534 273.217 246.399C263.938 248.003 254.714 250.132 241.003 254.676C238.435 255.527 226.178 260.532 224.746 262.137C223.959 263.018 228.502 260.361 234.396 258.458C246.379 254.59 258.287 251.808 273.732 249.551C277.774 248.961 283.18 248.978 285.527 249.018C288.288 249.065 293.537 249.047 296.298 249.024C300.996 248.987 305.587 248.195 313.769 247.471C325.559 246.429 358.27 243.618 357.506 242.287H357.505Z" fill="white"/>
<path fill-rule="evenodd" clip-rule="evenodd" d="M285.025 242.201C284.859 242.201 284.682 242.192 284.488 242.178C277.775 241.668 273.714 241.313 267.273 241.018C266.405 240.978 266.516 240.633 266.703 240.033C267.395 237.779 270.153 230.874 271.56 227.632C275.715 227.029 278.687 226.838 282.549 226.665C286.499 227.666 290.274 229.303 294.399 232.033C294.874 232.348 295.376 232.75 294.54 233.608C292.15 236.066 288.099 240.26 286.9 241.438C286.296 242.03 285.767 242.201 285.025 242.201H285.025ZM276.616 230.334C275.927 230.334 275.317 230.83 275.255 231.46L274.783 236.237C274.707 237.036 275.295 237.704 276.104 237.704H287.378C288.187 237.704 288.717 237.036 288.567 236.237L287.675 231.46C287.559 230.83 286.906 230.334 286.217 230.334H276.616H276.616Z" fill="url(#paint2_linear)"/>
<path d="M365.724 234.966C365.614 234.853 365.248 234.588 364.697 234.219C365.748 235.842 361.208 239.275 360.458 239.739C359.257 240.482 358.084 241.004 356.723 241.409C355.48 241.779 353.895 241.934 352.602 242.041C346.369 242.561 340.137 243.068 333.897 243.501C328.273 243.891 309.269 245.442 304.388 245.42C303.325 245.416 302.197 245.322 301.133 245.199C299.764 245.04 298.4 244.831 297.046 244.57C296.209 244.409 294.3 244.074 293.696 243.351C293.543 243.704 293.5 243.996 293.629 244.185C294.159 244.966 296.218 245.32 297.101 245.487C298.48 245.748 299.865 245.957 301.259 246.116C302.341 246.239 303.484 246.332 304.566 246.337C309.527 246.358 328.838 244.808 334.562 244.418C340.901 243.985 347.236 243.477 353.568 242.958C354.879 242.85 356.464 242.719 357.725 242.35C359.111 241.945 360.333 241.398 361.556 240.655C362.345 240.175 367.273 236.506 365.724 234.966V234.966Z" fill="white"/>
<path d="M321.668 240.464C321.061 237.266 314.377 236.096 311.648 235.926C309.758 235.808 307.613 235.639 306.172 236.979C304.94 238.126 304.184 239.753 304.04 241.435C303.914 242.902 304.521 244.654 305.762 245.572C307.208 246.64 310.441 246.373 312.117 246.159C315.226 245.763 322.539 245.051 321.668 240.464Z" fill="#6050BF"/>
<path d="M286.829 278.506C286.67 278.227 286.25 278.348 286.262 278.668C286.278 278.967 286.284 279.271 286.284 279.576C286.284 286.323 283.137 291.793 279.254 291.793C277.884 291.793 276.607 291.11 275.528 289.933C275.329 289.716 274.964 289.898 275.01 290.189C275.81 295.409 278.546 299.256 281.801 299.256C285.683 299.256 288.83 293.787 288.83 287.039C288.83 283.718 288.068 280.708 286.829 278.506V278.506Z" fill="#DADADA"/>
<path d="M375.407 278.506C375.251 278.227 374.828 278.348 374.842 278.668C374.856 278.967 374.86 279.271 374.86 279.576C374.86 286.323 371.715 291.793 367.831 291.793C366.46 291.793 365.188 291.11 364.104 289.933C363.905 289.716 363.543 289.898 363.585 290.189C364.389 295.409 367.124 299.256 370.379 299.256C374.259 299.256 377.408 293.787 377.408 287.039C377.408 283.718 376.644 280.708 375.407 278.506V278.506Z" fill="#DADADA"/>
<path fill-rule="evenodd" clip-rule="evenodd" d="M170.049 285.889C170.07 285.7 170.09 285.511 170.109 285.322C170.09 285.511 170.07 285.7 170.049 285.889Z" fill="url(#paint3_linear)"/>
<path fill-rule="evenodd" clip-rule="evenodd" d="M296.626 281.544C296.488 275.976 294.603 269.307 290.025 265.755C291.928 267.231 293.365 269.246 294.404 271.496C295.866 274.661 296.546 278.291 296.626 281.544H296.626Z" fill="url(#paint4_linear)"/>
<path fill-rule="evenodd" clip-rule="evenodd" d="M173.193 265.64V265.64C173.398 264.749 173.237 263.676 173.236 262.736C173.237 263.676 173.398 264.749 173.193 265.64V265.64Z" fill="url(#paint5_linear)"/>
<path fill-rule="evenodd" clip-rule="evenodd" d="M291.334 216.049C291.392 216.049 291.451 216.049 291.508 216.048C291.453 216.049 291.398 216.049 291.343 216.049C291.34 216.049 291.337 216.049 291.334 216.049Z" fill="url(#paint6_linear)"/>
<path fill-rule="evenodd" clip-rule="evenodd" d="M317.973 245.03C317.976 245.03 317.973 245.03 317.976 245.03H317.973ZM317.99 245.024C317.994 245.023 317.994 245.023 317.998 245.023C317.994 245.023 317.994 245.023 317.99 245.024ZM318.012 245.017C318.015 245.016 318.015 245.016 318.019 245.015C318.015 245.016 318.015 245.016 318.012 245.017ZM318.033 245.01C318.033 245.009 318.037 245.008 318.04 245.007C318.037 245.008 318.033 245.009 318.033 245.01ZM318.051 245.004C318.054 245.003 318.054 245.002 318.058 245C318.054 245.002 318.054 245.003 318.051 245.004ZM318.061 245C318.069 244.998 318.076 244.995 318.083 244.992C318.076 244.995 318.069 244.998 318.061 245Z" fill="url(#paint7_linear)"/>
<path fill-rule="evenodd" clip-rule="evenodd" d="M314.28 245.871C316.05 245.602 318.139 245.161 319.653 244.294C319.461 244.403 319.262 244.506 319.056 244.602C318.743 244.745 318.423 244.875 318.086 244.992C318.086 244.992 318.086 244.993 318.082 244.993C318.075 244.996 318.068 244.998 318.061 245.001C318.061 245.001 318.061 245.001 318.057 245.001C318.054 245.003 318.054 245.003 318.05 245.005C318.047 245.006 318.043 245.007 318.04 245.008C318.036 245.009 318.033 245.01 318.033 245.011C318.029 245.013 318.022 245.014 318.018 245.016C318.015 245.017 318.015 245.017 318.011 245.018C318.008 245.019 318.001 245.022 317.997 245.024C317.993 245.024 317.993 245.024 317.99 245.025C317.986 245.027 317.983 245.029 317.976 245.031C317.972 245.031 317.976 245.031 317.972 245.031C316.778 245.437 315.46 245.692 314.284 245.872H314.28L314.28 245.871ZM319.656 244.293C319.66 244.29 319.663 244.287 319.671 244.284C319.663 244.287 319.66 244.29 319.656 244.293ZM319.674 244.282C319.678 244.28 319.681 244.277 319.685 244.275C319.681 244.277 319.678 244.28 319.674 244.282ZM319.688 244.273C319.695 244.27 319.699 244.268 319.702 244.264C319.699 244.268 319.695 244.27 319.688 244.273ZM319.706 244.262C319.713 244.26 319.717 244.257 319.72 244.255C319.717 244.257 319.713 244.26 319.706 244.262ZM319.724 244.253C319.727 244.251 319.731 244.248 319.734 244.245C319.731 244.248 319.727 244.25 319.724 244.253ZM319.745 244.241C319.745 244.239 319.749 244.237 319.752 244.234C319.749 244.237 319.745 244.239 319.745 244.241ZM319.759 244.231C319.763 244.229 319.766 244.228 319.77 244.226C319.766 244.228 319.763 244.229 319.759 244.231ZM319.777 244.22C319.781 244.218 319.784 244.216 319.788 244.215C319.784 244.216 319.781 244.218 319.777 244.22ZM319.795 244.21C319.795 244.209 319.798 244.208 319.798 244.207C319.798 244.208 319.795 244.209 319.795 244.21ZM319.813 244.198C319.816 244.197 319.816 244.197 319.816 244.196C319.816 244.197 319.816 244.197 319.813 244.198ZM319.848 244.179C319.848 244.178 319.848 244.176 319.852 244.176C319.848 244.177 319.848 244.178 319.848 244.179ZM321.344 242.716C321.344 242.716 321.344 242.716 321.344 242.716V242.716ZM321.362 242.688C321.362 242.687 321.362 242.687 321.362 242.687C321.362 242.687 321.362 242.688 321.362 242.688ZM321.372 242.67C321.372 242.669 321.372 242.669 321.372 242.668C321.372 242.669 321.372 242.669 321.372 242.67ZM321.376 242.659C321.376 242.658 321.376 242.658 321.376 242.657C321.376 242.657 321.376 242.659 321.376 242.659ZM321.387 242.641C321.387 242.64 321.387 242.639 321.387 242.638C321.387 242.639 321.387 242.64 321.387 242.641ZM321.394 242.624C321.394 242.622 321.394 242.621 321.394 242.62C321.394 242.621 321.394 242.623 321.394 242.624ZM321.401 242.611C321.401 242.61 321.401 242.61 321.401 242.609C321.401 242.61 321.401 242.61 321.401 242.611ZM321.411 242.594C321.411 242.593 321.412 242.591 321.415 242.59C321.412 242.591 321.411 242.593 321.411 242.594ZM321.419 242.582C321.419 242.579 321.419 242.576 321.419 242.572C321.419 242.575 321.419 242.579 321.419 242.582ZM321.426 242.565C321.426 242.563 321.426 242.561 321.429 242.559C321.426 242.561 321.426 242.563 321.426 242.565ZM321.433 242.548C321.436 242.546 321.436 242.544 321.436 242.541C321.436 242.544 321.436 242.546 321.433 242.548ZM321.44 242.535C321.44 242.531 321.443 242.528 321.443 242.524C321.443 242.527 321.44 242.531 321.44 242.535ZM321.447 242.518C321.45 242.515 321.45 242.513 321.45 242.509C321.45 242.513 321.45 242.515 321.447 242.518ZM321.454 242.504C321.458 242.501 321.458 242.497 321.461 242.492C321.458 242.496 321.458 242.501 321.454 242.504ZM321.461 242.487C321.461 242.484 321.465 242.48 321.465 242.477C321.465 242.48 321.461 242.483 321.461 242.487ZM321.468 242.471C321.472 242.468 321.472 242.464 321.475 242.461C321.472 242.464 321.472 242.468 321.468 242.471ZM321.475 242.456C321.479 242.452 321.482 242.448 321.482 242.443C321.482 242.448 321.479 242.452 321.475 242.456ZM321.486 242.439C321.486 242.436 321.486 242.432 321.486 242.428C321.486 242.432 321.486 242.436 321.486 242.439ZM321.489 242.425C321.493 242.421 321.493 242.416 321.497 242.412C321.493 242.416 321.493 242.42 321.489 242.425ZM321.497 242.408C321.5 242.403 321.504 242.399 321.504 242.394C321.504 242.399 321.5 242.403 321.497 242.408ZM321.507 242.392C321.507 242.388 321.507 242.383 321.507 242.379C321.507 242.383 321.507 242.387 321.507 242.392ZM321.511 242.376C321.511 242.371 321.514 242.367 321.518 242.362C321.514 242.367 321.511 242.371 321.511 242.376ZM321.518 242.359C321.521 242.349 321.529 242.339 321.529 242.33C321.529 242.339 321.522 242.349 321.518 242.359ZM321.529 242.327C321.532 242.322 321.532 242.317 321.536 242.312C321.532 242.317 321.532 242.322 321.529 242.327ZM321.536 242.31C321.539 242.306 321.539 242.301 321.543 242.296C321.539 242.301 321.539 242.305 321.536 242.31ZM321.543 242.294C321.546 242.29 321.546 242.284 321.55 242.279C321.546 242.284 321.546 242.29 321.543 242.294ZM321.55 242.277C321.553 242.267 321.557 242.256 321.56 242.246C321.557 242.256 321.553 242.267 321.55 242.277ZM321.56 242.245C321.564 242.24 321.564 242.234 321.568 242.228C321.564 242.234 321.564 242.24 321.56 242.245ZM321.568 242.228C321.571 242.217 321.575 242.206 321.578 242.195C321.575 242.207 321.571 242.217 321.568 242.228ZM321.578 242.194C321.685 241.886 321.738 241.552 321.738 241.189C321.738 241.275 321.735 241.359 321.727 241.441C321.727 241.441 321.727 241.442 321.727 241.442C321.727 241.461 321.727 241.48 321.727 241.498C321.727 241.499 321.727 241.499 321.727 241.499C321.724 241.511 321.724 241.523 321.724 241.535C321.724 241.536 321.724 241.537 321.724 241.537C321.72 241.543 321.72 241.548 321.72 241.554C321.72 241.555 321.72 241.555 321.72 241.556C321.72 241.562 321.717 241.568 321.717 241.573C321.717 241.574 321.717 241.574 321.717 241.574C321.717 241.58 321.717 241.585 321.717 241.591C321.717 241.592 321.713 241.593 321.713 241.594C321.713 241.6 321.713 241.605 321.713 241.61C321.713 241.611 321.713 241.612 321.713 241.613C321.71 241.618 321.71 241.622 321.71 241.628C321.71 241.628 321.71 241.63 321.71 241.631C321.71 241.636 321.706 241.642 321.706 241.646C321.706 241.648 321.706 241.649 321.706 241.65C321.706 241.655 321.706 241.66 321.706 241.665C321.706 241.666 321.706 241.667 321.706 241.668C321.706 241.672 321.706 241.678 321.703 241.682C321.703 241.684 321.703 241.685 321.703 241.687C321.703 241.692 321.703 241.697 321.699 241.701C321.699 241.703 321.699 241.705 321.699 241.706C321.699 241.71 321.699 241.714 321.699 241.717C321.699 241.72 321.696 241.721 321.696 241.723C321.696 241.727 321.696 241.732 321.696 241.736C321.696 241.738 321.692 241.741 321.692 241.743C321.692 241.747 321.692 241.75 321.692 241.754C321.689 241.757 321.689 241.759 321.689 241.762C321.689 241.765 321.689 241.768 321.689 241.771C321.685 241.774 321.685 241.776 321.685 241.778C321.685 241.782 321.685 241.787 321.685 241.791C321.685 241.794 321.685 241.796 321.685 241.798C321.685 241.801 321.685 241.804 321.681 241.806C321.681 241.81 321.681 241.813 321.681 241.817C321.681 241.82 321.678 241.823 321.678 241.826C321.678 241.829 321.678 241.831 321.678 241.833C321.678 241.836 321.674 241.839 321.674 241.842C321.674 241.846 321.674 241.85 321.671 241.854C321.671 241.856 321.671 241.858 321.671 241.86C321.671 241.865 321.667 241.868 321.667 241.873C321.667 241.876 321.667 241.877 321.667 241.879C321.664 241.882 321.664 241.886 321.664 241.889C321.664 241.89 321.664 241.891 321.664 241.893C321.664 241.898 321.664 241.903 321.66 241.909C321.66 241.91 321.66 241.912 321.66 241.913C321.66 241.916 321.66 241.92 321.657 241.922C321.657 241.923 321.657 241.923 321.657 241.923C321.657 241.93 321.653 241.936 321.653 241.943C321.653 241.944 321.653 241.945 321.65 241.946C321.65 241.953 321.646 241.959 321.646 241.966C321.646 241.966 321.646 241.966 321.646 241.966C321.643 241.977 321.639 241.987 321.639 241.998C321.639 241.998 321.639 241.999 321.639 241.999C321.618 242.065 321.6 242.131 321.579 242.194L321.578 242.194Z" fill="url(#paint8_linear)"/>
<path d="M387.533 249.998C387.533 248.569 386.784 247.535 385.75 246.534C385.462 246.252 384.858 245.587 384.414 245.401C383.703 245.106 383.088 245.504 382.47 245.822C381.621 246.256 379.201 247.556 378.892 248.336C378.526 249.264 380.214 250.44 380.964 251.031C381.983 251.831 382.673 252.738 383.685 253.491C384.521 254.108 385.405 254.067 387.072 254.067C387.718 254.067 387.534 251.274 387.534 249.998H387.533Z" fill="#6050BF"/>
<path d="M182.717 264.239C182.607 264.239 182.51 264.161 182.489 264.05C182.04 261.641 182.674 259.176 184.372 256.725C188.746 250.407 199.994 244.836 213.026 242.531C213.151 242.508 213.272 242.592 213.294 242.718C213.317 242.844 213.233 242.964 213.107 242.987C200.19 245.272 189.06 250.768 184.752 256.988C183.127 259.335 182.519 261.682 182.945 263.965C182.968 264.091 182.885 264.212 182.76 264.235L182.717 264.239H182.717Z" fill="#223A61"/>
<path d="M373.765 247.205C373.687 247.205 373.612 247.214 373.541 247.233C373.275 247.302 373.044 247.497 372.863 247.811C372.33 248.727 372.287 250.447 372.756 252.193C373.406 254.606 374.859 256.409 375.936 256.132C376.203 256.063 376.433 255.869 376.615 255.554C377.151 254.639 377.19 252.918 376.721 251.173C376.117 248.924 374.81 247.205 373.765 247.205ZM375.716 256.618C374.433 256.618 372.99 254.833 372.315 252.312C371.807 250.426 371.864 248.612 372.465 247.58C372.71 247.162 373.04 246.889 373.424 246.79C374.781 246.437 376.426 248.311 377.162 251.054C377.67 252.94 377.613 254.753 377.013 255.785C376.768 256.203 376.437 256.477 376.053 256.576C375.943 256.604 375.83 256.618 375.716 256.618Z" fill="#223A61"/>
<path d="M330.359 257.049C329.62 257.049 329.041 256.673 328.807 256.032C328.764 255.913 328.824 255.782 328.945 255.738C329.063 255.694 329.194 255.755 329.237 255.874C329.318 256.097 329.595 256.619 330.413 256.591C332.946 256.517 333.607 256.479 335.508 256.213C337.029 256 337.619 255.662 337.619 255.008C337.619 254.882 337.722 254.779 337.85 254.779C337.974 254.779 338.077 254.882 338.077 255.008C338.077 256.157 336.876 256.484 335.572 256.667C333.646 256.936 332.978 256.974 330.423 257.049L330.359 257.049H330.359Z" fill="#223A61"/>
<path d="M361.727 253.952C361.688 253.952 361.648 253.952 361.606 253.951C361.229 253.949 360.899 253.884 360.625 253.755C360.288 253.598 360.039 253.285 359.961 252.918C359.932 252.793 360.014 252.67 360.138 252.643C360.266 252.618 360.387 252.697 360.412 252.822C360.462 253.047 360.611 253.239 360.817 253.335C361.034 253.435 361.3 253.487 361.609 253.489C363.073 253.492 364.406 253.366 365.859 253.21L365.888 253.207C366.559 253.135 367.316 253.054 367.622 252.591C367.693 252.484 367.838 252.455 367.945 252.526C368.051 252.596 368.08 252.74 368.009 252.847C367.579 253.491 366.669 253.589 365.937 253.667L365.909 253.67C364.477 253.824 363.173 253.952 361.727 253.952V253.952Z" fill="#223A61"/>
<path d="M258.915 257.714C258.79 257.714 258.688 257.614 258.686 257.489C258.662 255.797 259.318 255.545 260.149 255.227L260.238 255.193C266.767 252.672 275.752 250.443 280.579 249.245C281.617 248.987 282.439 248.784 282.962 248.644C283.386 248.531 283.679 248.078 283.72 247.966C284.216 246.617 284.452 245.56 284.535 244.315C284.553 244.056 284.452 243.919 284.194 243.844C284.072 243.809 284.001 243.682 284.035 243.561C284.072 243.439 284.201 243.369 284.32 243.404C284.783 243.537 285.022 243.872 284.992 244.346C284.906 245.637 284.663 246.731 284.152 248.124C284.063 248.359 283.677 248.928 283.079 249.087C282.552 249.228 281.731 249.432 280.689 249.69C275.872 250.885 266.905 253.11 260.403 255.62L260.314 255.654C259.522 255.958 259.125 256.111 259.144 257.481C259.146 257.608 259.045 257.712 258.918 257.714H258.915V257.714Z" fill="#223A61"/>
<path d="M238.504 269.747C235.175 269.747 232.824 268.36 230.108 266.758C229.915 266.644 229.716 266.531 229.52 266.421C228.497 265.842 227.689 265.385 227.762 264.835C227.809 264.49 228.172 264.248 228.941 264.053C229.063 264.021 229.189 264.096 229.22 264.219C229.251 264.341 229.177 264.466 229.054 264.497C228.252 264.701 228.218 264.889 228.217 264.896C228.184 265.138 229.124 265.67 229.746 266.022C229.944 266.134 230.145 266.248 230.341 266.364C232.998 267.931 235.301 269.288 238.507 269.289C238.567 269.289 238.627 269.288 238.688 269.287C246.162 269.17 252.883 268.619 258.664 267.65C262.139 267.067 265.075 266.309 268.103 264.508C269.436 263.715 271.323 262.175 272.381 261.145C272.761 260.775 273.346 260.095 273.487 259.665C273.34 259.544 272.592 259.147 268.86 258.354L268.737 258.328C267.199 257.995 265.375 257.634 263.509 257.481C263.384 257.47 263.288 257.36 263.301 257.234C263.31 257.107 263.417 257.014 263.546 257.024C265.44 257.18 267.281 257.544 268.835 257.88L268.954 257.906C273.542 258.881 273.806 259.292 273.904 259.447C273.968 259.549 273.965 259.643 273.953 259.704C273.793 260.392 272.813 261.365 272.702 261.473C271.627 262.522 269.699 264.091 268.339 264.902C265.25 266.74 262.268 267.51 258.739 268.102C252.936 269.075 246.192 269.628 238.695 269.746C238.631 269.747 238.567 269.747 238.505 269.747L238.504 269.747Z" fill="#223A61"/>
<path d="M351.647 289.759H296.103C295.977 289.759 295.873 289.656 295.873 289.53C295.873 289.403 295.977 289.301 296.103 289.301H351.647C355.879 289.301 356.419 287.864 357.044 286.201L357.105 286.05C357.531 284.915 358.007 283.017 358.462 281.182C358.824 279.746 359.197 278.261 359.542 277.163C360.544 273.985 362.139 270.726 363.817 268.446C364.186 267.947 364.577 267.446 364.989 266.916C366.35 265.177 367.753 263.378 368.354 261.541C369.445 258.204 369.825 254.449 369.59 249.363C369.541 248.269 369.239 247.178 368.944 246.123C368.684 245.188 368.414 244.223 368.326 243.264L368.318 243.175C367.995 239.691 367.761 237.173 365.714 235.308C365.622 235.223 365.614 235.078 365.7 234.984C365.785 234.891 365.927 234.884 366.023 234.969C368.201 236.954 368.443 239.545 368.777 243.133L368.78 243.221C368.866 244.139 369.118 245.043 369.384 246C369.687 247.08 369.996 248.196 370.049 249.342C370.287 254.485 369.9 258.292 368.791 261.683C368.166 263.597 366.734 265.428 365.352 267.198C364.939 267.726 364.549 268.223 364.19 268.717C362.541 270.959 360.967 274.168 359.979 277.301C359.638 278.385 359.265 279.864 358.91 281.294C358.448 283.141 357.972 285.052 357.531 286.211L357.474 286.362C356.817 288.109 356.195 289.759 351.647 289.759L351.647 289.759Z" fill="#223A61"/>
<path d="M336.85 289.759L336.822 289.758C336.698 289.744 336.609 289.63 336.619 289.504C336.669 289.076 336.733 288.567 336.808 288.013C337.049 286.091 337.355 283.698 337.312 282.228C337.301 281.908 337.198 281.404 337.085 280.87C336.939 280.155 336.769 279.346 336.758 278.66C336.722 276.912 338.236 267.596 338.538 265.746C339.004 262.91 338.865 256.974 338.563 254.132C338.471 253.268 338.471 252.431 338.467 251.621C338.467 250.671 338.463 249.688 338.318 248.647C338.069 246.907 336.911 245.255 335.93 244.01C335.852 243.911 335.87 243.767 335.965 243.688C336.068 243.61 336.211 243.627 336.289 243.726C337.305 245.016 338.506 246.734 338.769 248.583C338.925 249.655 338.925 250.654 338.925 251.621C338.925 252.419 338.925 253.243 339.018 254.084C339.323 256.95 339.462 262.947 338.993 265.82C338.154 270.911 337.188 277.326 337.213 278.651C337.23 279.295 337.39 280.082 337.536 280.776C337.657 281.355 337.76 281.854 337.767 282.214C337.813 283.72 337.504 286.133 337.259 288.071C337.188 288.622 337.124 289.129 337.077 289.556C337.063 289.673 336.964 289.759 336.85 289.759H336.85Z" fill="#223A61"/>
<path d="M299.678 289.759L299.654 289.757C299.528 289.744 299.437 289.631 299.452 289.506C300.46 279.969 300.196 273.665 299.639 263.343C299.627 263.091 299.578 262.64 299.525 262.117C299.397 260.861 299.222 259.141 299.274 258.12C299.283 257.953 299.305 257.733 299.329 257.478C299.418 256.633 299.55 255.356 299.335 254.326C298.977 252.585 298.388 250.853 297.825 249.178C297.392 247.897 296.945 246.573 296.596 245.248C296.565 245.126 296.639 245.001 296.761 244.969C296.884 244.938 297.009 245.01 297.04 245.132C297.384 246.442 297.828 247.758 298.26 249.031C298.83 250.719 299.418 252.465 299.786 254.233C300.013 255.333 299.878 256.652 299.786 257.525C299.761 257.773 299.74 257.989 299.731 258.144C299.682 259.129 299.853 260.83 299.982 262.071C300.037 262.621 300.083 263.056 300.095 263.318C300.653 273.663 300.92 279.982 299.908 289.554C299.896 289.671 299.795 289.759 299.678 289.759Z" fill="#223A61"/>
<path d="M252.047 277.766C251.987 277.766 251.928 277.744 251.883 277.698C251.155 276.958 250.49 276.615 249.342 276.388C248.72 276.265 246.073 276.201 243.513 276.14C242.839 276.123 242.164 276.107 241.526 276.09C240.872 276.071 240.2 276.06 239.527 276.049C236.516 275.998 233.403 275.945 231.739 275.286C230.046 274.615 229.39 273.595 228.696 272.515C228.461 272.149 228.218 271.772 227.925 271.386C227.848 271.286 227.867 271.141 227.968 271.065C228.069 270.988 228.213 271.008 228.289 271.109C228.594 271.509 228.842 271.894 229.081 272.267C229.763 273.327 230.352 274.243 231.908 274.86C233.495 275.489 236.565 275.541 239.535 275.591C240.209 275.602 240.883 275.613 241.539 275.632C242.177 275.649 242.85 275.665 243.525 275.681C246.223 275.746 248.77 275.808 249.431 275.938C250.666 276.182 251.419 276.572 252.21 277.377C252.299 277.467 252.298 277.612 252.208 277.701C252.163 277.744 252.105 277.766 252.047 277.766H252.047Z" fill="#223A61"/>
<path d="M175.055 269.749C174.938 269.749 174.822 269.727 174.708 269.682C173.331 269.146 172.872 265.327 172.832 264.411C172.827 264.285 172.925 264.178 173.051 264.172C173.183 264.168 173.285 264.265 173.29 264.391C173.344 265.621 173.893 268.873 174.874 269.255C174.965 269.291 175.242 269.399 175.722 268.921C176.203 268.442 176.594 268.007 177.01 267.548C177.291 267.238 177.58 266.917 177.912 266.566C178.086 266.383 178.289 266.187 178.486 265.998C178.978 265.526 179.591 264.939 179.59 264.628C179.59 264.345 179.283 263.949 179.037 263.631C178.952 263.522 178.872 263.418 178.803 263.32C178.328 262.643 177.972 261.592 177.85 260.508C177.821 260.238 177.818 259.87 177.815 259.481C177.809 258.784 177.8 257.618 177.541 257.442C177.531 257.434 177.506 257.418 177.429 257.447C177.312 257.492 177.179 257.433 177.133 257.315C177.088 257.197 177.147 257.064 177.265 257.019C177.513 256.924 177.693 256.99 177.8 257.063C178.225 257.353 178.263 258.207 178.273 259.477C178.276 259.854 178.279 260.211 178.306 260.457C178.419 261.469 178.745 262.441 179.178 263.057C179.243 263.149 179.319 263.247 179.399 263.35C179.704 263.743 180.049 264.188 180.048 264.627C180.05 265.134 179.445 265.715 178.803 266.33C178.601 266.523 178.411 266.706 178.245 266.88C177.916 267.229 177.628 267.547 177.35 267.856C176.931 268.319 176.535 268.758 176.045 269.245C175.709 269.581 175.377 269.749 175.055 269.749L175.055 269.749Z" fill="#223A61"/>
<path d="M41.6377 302.652H49.5444L58.7539 258.609C59.411 255.466 59.6423 252.249 59.4415 249.044L58.5411 234.687L57.4175 217.212H37.8691L47.0883 254.319C47.3637 255.429 47.4319 256.58 47.2895 257.714L41.6377 302.652Z" fill="#1E2859"/>
<path d="M29.718 302.652H37.345L40.2047 217.212H24.3921L23.8239 220.685C22.8361 226.918 22.8273 231.048 23.587 234.455C23.9188 235.941 28.0907 255.581 28.0907 255.581L29.718 302.652Z" fill="#1E2859"/>
<path d="M32.851 234.157L55.1136 235.456L55.6829 217.212H32.5518L32.851 234.157Z" fill="#1E2859"/>
<path d="M52.1644 174.582C46.0231 172.943 36.083 172.682 28.4894 174.27C19.6962 176.109 21.0781 179.787 21.3061 181.31C22.3973 188.594 24.3921 217.213 24.3921 217.213H57.4174C58.7868 217.213 58.7236 216.279 58.8259 215.085C59.3596 208.858 60.1509 189.286 59.8617 181.584C59.7586 178.846 59.9789 176.666 52.1643 174.582H52.1644Z" fill="#2F54A4"/>
<path d="M72.0613 206.389L48.4346 184.274C48.4346 184.274 50.0897 181.138 51.9363 178.642C54.0853 175.737 56.3834 175.37 59.6916 178.192C62.4663 180.559 68.4623 188.345 69.4611 189.713C71.9082 193.066 78.8469 202.319 78.8469 202.319L76.842 204.826C75.4978 206.045 73.2422 207.524 72.0614 206.389H72.0613Z" fill="#2F54A4"/>
<path d="M8.54107 208.751C8.84018 202.454 12.7019 189.14 16.9572 182.195C20.6508 176.166 24.1212 174.719 27.6997 175.501C28.8158 175.745 28.2373 178.554 27.6979 180.506C26.1757 186.017 19.1499 204.414 16.2793 208.316C14.6729 210.501 13.0387 214.244 10.8613 212.616C9.94496 211.931 8.4287 211.114 8.54107 208.751Z" fill="#2F54A4"/>
<path d="M45.8963 173.235H45.3036C44.8231 173.235 44.4077 172.884 44.3317 172.408C44.1711 171.402 44.0069 169.957 43.9742 168.128C43.9071 164.305 44.449 161.321 44.449 161.321H35.9281L36.1138 171.842C36.1274 172.611 35.5148 173.235 34.7456 173.235H34.543C34.5956 176.234 39.0193 177.982 42.2564 177.982C45.4937 177.982 47.2554 175.408 45.8963 173.235Z" fill="#FEC1B5"/>
<path d="M18.3029 209.669C17.0408 210.83 9.97946 212.915 8.598 210.707C7.70901 209.286 7.95529 206.058 8.6343 205.077C10.0932 202.97 16.9353 203.807 18.9031 205.518C19.8191 206.314 19.3239 208.73 18.303 209.669H18.3029Z" fill="white"/>
<path d="M78.608 201.034C78.8137 202.811 74.0648 208.134 71.7439 207.141C70.4971 206.607 68.1576 204.799 68.1008 203.633C67.9786 201.125 73.158 197.662 75.6613 197.341C76.8168 197.193 78.4733 199.873 78.608 201.034Z" fill="white"/>
<path d="M104.866 186.152C104.655 185.65 102.531 187.636 101.319 188.466C100.774 188.838 100.22 188.842 99.5991 188.822C98.8519 188.798 98.0545 188.736 97.5083 188.691C97.1129 188.658 96.8435 188.566 96.8702 188.411C96.9143 188.157 96.9157 188.037 97.3651 187.823C97.8956 187.572 99.2771 187.322 99.6435 187.03C100.039 186.715 99.9633 186.593 99.5336 186.647C98.8539 186.734 97.2639 186.877 96.1496 187.238C95.4337 187.47 94.9103 187.908 94.6345 188.122C93.9228 188.673 93.5693 189.205 93.0765 189.701L72.2916 203.232C71.4633 203.771 71.2992 204.918 71.9391 205.693L73.1426 207.149C74.6204 208.922 77.2856 209.068 78.9067 207.465C78.9067 207.465 90.3732 195.896 94.3688 192.185C94.7511 191.83 95.2632 191.74 95.6184 191.654C97.6182 191.167 99.9978 191.363 100.991 190.775C102.091 190.124 105.082 186.668 104.866 186.152L104.866 186.152Z" fill="#FEC1B5"/>
<path d="M46.8984 161.944C46.875 163.521 46.4998 164.269 45.9245 165.457C44.995 167.377 44.0566 168.605 42.3543 168.549C39.5984 168.46 36.6631 165.017 36.7246 160.89C36.786 156.762 39.085 153.49 42.5767 153.603C45.6544 153.704 46.4007 155.156 46.5169 158.467C46.5545 159.544 46.9169 160.714 46.8984 161.944Z" fill="#FEC1B5"/>
<path d="M33.5446 153.844C33.8278 151.918 35.0529 150.472 36.7031 151.049C37.1675 149.823 38.1646 149.132 39.2202 148.801C40.8 148.304 43.7051 148.359 46.3967 149.282C47.9334 149.809 48.6104 150.782 46.7072 150.502C47.5053 150.821 48.4589 151.601 48.9493 152.2C49.4052 152.756 50.1244 154.443 48.4249 154.34C48.9952 155.953 47.835 157.206 46.9357 157.785C46.617 157.99 46.4483 157.968 46.4322 157.539C46.3761 156.015 46.1301 155.204 44.8848 154.629C43.7083 154.085 41.005 154.048 39.1673 155.133C37.2691 156.255 37.2319 159.652 37.3651 160.739C37.4099 161.106 38.6254 162.79 40.2883 162.845C41.0491 162.869 42.3705 162.342 43.3675 162.375C44.2853 162.404 44.6793 162.87 45.3914 162.893C46.4566 162.927 46.4673 161.382 46.6833 161.303C47.1485 161.133 48.1412 163.22 48.0943 166.359C48.0545 169.027 46.0651 171.463 43.6155 171.383C40.7797 171.291 39.0333 170.164 37.7641 168.528C36.2315 166.554 36.0396 163.868 36.3708 161.436C35.6378 160.812 34.9403 159.969 34.7008 159.528C33.8136 157.894 33.277 155.665 33.5446 153.844Z" fill="#1E2859"/>
<path d="M33.9311 161.382C34.1063 162.819 35.2359 164.263 35.9433 164.066C36.5168 163.905 36.5591 162.913 36.5481 161.467C36.5374 160.102 36.374 158.842 35.5187 158.815C34.6634 158.787 33.7211 159.652 33.9311 161.382Z" fill="#E8988C"/>
<path d="M41.457 164.411C41.4553 164.529 42.2099 164.849 43.1459 164.879C44.0822 164.91 44.8461 164.6 44.8486 164.436C44.85 164.328 44.09 164.381 43.1536 164.351C42.2177 164.32 41.4592 164.274 41.457 164.411Z" fill="white"/>
<path d="M43.2602 162.519L43.2549 162.374C43.3146 162.373 43.3753 162.372 43.4379 162.372C43.8323 162.37 44.2797 162.367 44.5198 162.153C44.6563 162.03 44.6584 161.798 44.5259 161.443L44.4953 161.362C44.2935 160.825 43.8635 159.704 44.0437 159.009C44.129 158.678 44.3787 158.441 44.6239 158.372C45.2812 158.188 45.9851 158.409 46.6403 158.743L46.5757 158.873C45.946 158.551 44.9807 158.399 44.4533 158.701C44.3471 158.762 44.2206 158.9 44.1851 159.046C44.0259 159.701 44.4349 160.789 44.6318 161.313L44.6623 161.394C44.8184 161.812 44.8037 162.096 44.6179 162.262C44.3376 162.513 43.8614 162.515 43.4415 162.518C43.3793 162.518 43.3188 162.519 43.2603 162.519H43.2602Z" fill="#29235C"/>
<path d="M38.9515 158.615L38.9043 158.456C39.6078 158.258 40.5679 158.17 40.9904 158.183L40.9985 158.184C41.7692 158.209 42.1878 158.391 42.5925 158.567L42.6196 158.579L42.5556 158.73L42.5285 158.718C42.1206 158.541 41.7351 158.373 40.9965 158.349L40.9879 158.348C40.5863 158.336 39.6301 158.423 38.9515 158.615Z" fill="#29235C"/>
<path d="M41.5277 159.699C41.5237 159.954 41.3674 160.155 41.1781 160.149C40.9887 160.143 40.838 159.931 40.8419 159.677C40.8458 159.422 41.0024 159.22 41.192 159.227C41.381 159.233 41.5312 159.445 41.5277 159.699V159.699Z" fill="#1E2859"/>
<path d="M46.0501 159.846C46.0462 160.101 45.8896 160.303 45.7005 160.296C45.5111 160.29 45.3605 160.079 45.3643 159.824C45.3683 159.57 45.5246 159.368 45.7139 159.374C45.9033 159.381 46.0537 159.592 46.0501 159.846Z" fill="#1E2859"/>
<path d="M38.9579 158.612L38.8975 158.458C39.5992 158.192 40.2453 158.084 40.9914 158.109C41.7044 158.132 42.2115 158.28 42.6347 158.588L42.5394 158.72C42.145 158.434 41.6665 158.296 40.9884 158.274C40.2557 158.25 39.6482 158.351 38.9578 158.612H38.9579Z" fill="#29235C"/>
<path d="M41.0737 159.377C41.1455 159.467 41.1619 159.574 41.11 159.614C41.058 159.655 40.9579 159.615 40.8862 159.524C40.8139 159.434 40.798 159.327 40.8495 159.287C40.9014 159.245 41.0016 159.286 41.0737 159.377Z" fill="white"/>
<path d="M45.5952 159.524C45.6669 159.615 45.6833 159.722 45.6314 159.762C45.5795 159.803 45.4794 159.762 45.4075 159.672C45.3354 159.581 45.3195 159.475 45.3709 159.434C45.4228 159.394 45.5231 159.434 45.5952 159.524Z" fill="white"/>
<path d="M40.1251 159.694L40.0234 159.578C40.8957 158.82 41.5328 159.213 41.7667 159.417L41.6669 159.532C41.4145 159.311 40.8788 159.039 40.1252 159.694H40.1251Z" fill="#29235C"/>
<path d="M45.1417 159.824L45.0078 159.737C45.2751 159.322 45.5622 159.261 45.7547 159.282C46.0688 159.317 46.2993 159.578 46.3378 159.676L46.1907 159.732C46.17 159.68 45.9817 159.466 45.7395 159.44C45.5223 159.415 45.3216 159.545 45.1417 159.824V159.824Z" fill="#29235C"/>
<path d="M47.0995 173.781C46.7488 173.155 45.9955 172.771 45.3446 172.771C44.7088 172.771 45.3748 172.902 45.6208 173.88C45.9743 175.284 44.6639 176.754 42.4 177.675C40.6124 177.441 37.0592 174.774 35.1902 172.66C35.064 172.517 34.0198 172.17 33.6698 173.165C32.8384 176.474 38.1273 179.725 40.5463 181.31L42.5354 178.101L45.6072 180.448C46.5566 179.389 47.4054 177.674 47.5331 176.248C47.5999 175.501 47.485 174.47 47.0995 173.781V173.781Z" fill="white"/>
<path d="M44.5795 172.724C41.0878 173.968 38.4982 171.303 37.4031 169.549C36.6046 168.27 36.0877 167.117 35.9519 165.797C35.8811 165.115 35.8815 164.428 35.9157 163.75C35.9427 163.208 35.9916 162.672 36.0461 162.151C35.9928 162.108 35.9398 162.067 35.8855 162.027L35.8691 161.111C36.0482 161.283 36.2362 161.448 36.426 161.599C36.1744 164.043 36.453 166.722 38.0494 168.647C39.3705 170.241 41.1513 171.311 43.9875 171.311C44.0429 171.311 44.0969 171.31 44.1506 171.308C44.1897 171.618 44.231 171.902 44.2721 172.157C44.3091 172.382 44.4203 172.582 44.5794 172.724H44.5795Z" fill="#E8988C"/>
<path d="M14.4932 306.202C14.4932 307.083 36.4552 307.797 50.5967 307.797C71.6643 307.797 90.7864 307.083 90.7864 306.202C90.7864 305.322 71.6643 304.608 50.5967 304.608C36.4551 304.608 14.4932 305.322 14.4932 306.202Z" fill="#1E2859"/>
<path d="M61.3305 306.202H41.6074L41.6383 302.652H47.2975L61.3395 305.181L61.3305 306.202Z" fill="#2F54A4"/>
<path d="M24.3721 306.202H37.3449V302.652H31.686L24.3721 305.181V306.202Z" fill="#2F54A4"/>
<path d="M67.2695 303.424H68.4392V228.646H67.2695V303.424Z" fill="#1E2859"/>
<path d="M70.6331 303.424C70.6331 304.958 69.3891 306.202 67.8548 306.202C66.3202 306.202 65.0762 304.958 65.0762 303.424C65.0762 301.889 66.3202 300.646 67.8548 300.646C69.3891 300.646 70.6331 301.889 70.6331 303.424Z" fill="#2F54A4"/>
<path d="M66.8604 242.232H68.8491V228.647H66.8604V242.232Z" fill="#1E2859"/>
<path d="M74.0234 264.996H76.0123V260.578H74.0234V264.996Z" fill="#1E2859"/>
<path fill-rule="evenodd" clip-rule="evenodd" d="M29.2045 239.957H11.9824L19.5986 215.738H36.8208L29.2045 239.957Z" fill="url(#paint9_linear)"/>
<path d="M29.2051 239.957H32.3351L52.9996 174.304L50.0884 173.61L29.2051 239.957Z" fill="#FA9555"/>
<path d="M38.669 206.384L39.627 204.826C38.7945 204.788 37.2783 204.874 36.6074 205.152C36.1104 205.358 35.3279 205.813 34.5455 206.16C34.2275 206.301 33.8846 206.379 33.5349 206.392L11.0793 207.272C9.64311 207.336 8.59383 208.62 8.81453 210.045C9.1776 212.399 11.4808 213.967 13.785 213.429C13.785 213.429 28.2545 209.973 32.6497 209.031C33.3643 208.879 34.3823 208.875 34.9987 209.006C36.7256 209.37 39.7565 210.432 40.7329 210.281C41.6698 210.135 47.1474 208.672 46.3508 207.042C46.1963 206.725 38.6688 206.384 38.6688 206.384H38.669Z" fill="#FEC1B5"/>
<path d="M41.3493 202.024L47.1723 202.681L44.4913 207.042L38.668 206.384L41.3493 202.024Z" fill="white"/>
</g>
<defs>
<filter id="filter0_d" x="163" y="23" width="132" height="53" filterUnits="userSpaceOnUse" color-interpolation-filters="sRGB">
<feFlood flood-opacity="0" result="BackgroundImageFix"/>
<feColorMatrix in="SourceAlpha" type="matrix" values="0 0 0 0 0 0 0 0 0 0 0 0 0 0 0 0 0 0 127 0"/>
<feOffset dy="2"/>
<feGaussianBlur stdDeviation="4"/>
<feColorMatrix type="matrix" values="0 0 0 0 0.180392 0 0 0 0 0.247059 0 0 0 0 0.615686 0 0 0 0.25 0"/>
<feBlend mode="normal" in2="BackgroundImageFix" result="effect1_dropShadow"/>
<feBlend mode="normal" in="SourceGraphic" in2="effect1_dropShadow" result="shape"/>
</filter>
<linearGradient id="paint0_linear" x1="270.612" y1="218.365" x2="284.76" y2="244.245" gradientUnits="userSpaceOnUse">
<stop stop-color="#EC7B35"/>
<stop offset="0.501961" stop-color="#EC7B35"/>
<stop offset="0.803922" stop-color="#DF702D"/>
<stop offset="1" stop-color="#D16524"/>
</linearGradient>
<linearGradient id="paint1_linear" x1="374.933" y1="245.922" x2="295.712" y2="235.915" gradientUnits="userSpaceOnUse">
<stop stop-color="#1FA0FF"/>
<stop offset="0.388235" stop-color="#244B71"/>
<stop offset="1" stop-color="#1A3052"/>
</linearGradient>
<linearGradient id="paint2_linear" x1="397.971" y1="233.756" x2="296.978" y2="233.756" gradientUnits="userSpaceOnUse">
<stop stop-color="#30B5BF"/>
<stop offset="1" stop-color="#244E78"/>
</linearGradient>
<linearGradient id="paint3_linear" x1="266.306" y1="223.966" x2="289.768" y2="311.529" gradientUnits="userSpaceOnUse">
<stop stop-color="#FAFAFA"/>
<stop offset="1" stop-color="#FAFAFA"/>
</linearGradient>
<linearGradient id="paint4_linear" x1="266.303" y1="223.965" x2="289.766" y2="311.529" gradientUnits="userSpaceOnUse">
<stop stop-color="#1F1E20"/>
<stop offset="1" stop-color="#29211E"/>
</linearGradient>
<linearGradient id="paint5_linear" x1="220.422" y1="223.965" x2="232.323" y2="311.528" gradientUnits="userSpaceOnUse">
<stop stop-color="#FDFDFD"/>
<stop offset="1" stop-color="#FDFDFD"/>
</linearGradient>
<linearGradient id="paint6_linear" x1="266.303" y1="223.973" x2="289.808" y2="311.611" gradientUnits="userSpaceOnUse">
<stop stop-color="#BFEEF9"/>
<stop offset="1" stop-color="#EBF7F9"/>
</linearGradient>
<linearGradient id="paint7_linear" x1="266.306" y1="223.966" x2="289.768" y2="311.525" gradientUnits="userSpaceOnUse">
<stop stop-color="white"/>
<stop offset="1" stop-color="white"/>
</linearGradient>
<linearGradient id="paint8_linear" x1="266.303" y1="223.966" x2="289.766" y2="311.529" gradientUnits="userSpaceOnUse">
<stop stop-color="#FA833F"/>
<stop offset="1" stop-color="#FA913B"/>
</linearGradient>
<linearGradient id="paint9_linear" x1="24.4015" y1="239.957" x2="24.4015" y2="215.738" gradientUnits="userSpaceOnUse">
<stop stop-color="#EC7B35"/>
<stop offset="1" stop-color="#FA9555"/>
</linearGradient>
<clipPath id="clip0">
<rect width="450" height="308" rx="30" fill="white"/>
</clipPath>
</defs>
</svg>
