<svg width="450" height="309" viewBox="0 0 450 309" fill="none" xmlns="http://www.w3.org/2000/svg">
<g clip-path="url(#clip0)">
<rect width="450" height="309" rx="30" fill="#F7F7FF"/>
<path d="M370.688 305.406C370.688 305.406 436.901 275.979 435.361 216.61C433.821 157.241 371.069 129.633 328.466 166.288C285.865 202.942 258.294 172.205 236.222 141.229C214.152 110.255 164.915 71.1632 100.317 89.2266C32.6461 108.149 11.8224 176.634 18.5253 222.335C23.3401 255.161 40.9486 282.993 64.9439 304.378C65.7243 305.073 66.5232 305.761 67.3406 306.438L370.688 305.406Z" fill="#D8DFFD"/>
<path d="M370.688 305.406C370.688 305.406 436.901 275.979 435.361 216.61C433.821 157.241 371.069 129.633 328.466 166.288C285.865 202.942 258.294 172.205 236.222 141.229C214.152 110.255 164.915 71.1632 100.317 89.2266C32.6461 108.149 11.8224 176.634 18.5253 222.335C23.3401 255.161 40.9486 282.993 64.9439 304.378C65.7243 305.073 66.5232 305.761 67.3406 306.438L370.688 305.406V305.406Z" stroke="black" stroke-width="0.3663" stroke-miterlimit="10"/>
<path d="M36.6328 269.287H69.4945V227.029H36.6328V269.287Z" fill="#A9B7F2"/>
<path d="M238.646 262.387H295.93V205.142H238.646V262.387Z" fill="#A9B7F2"/>
<path d="M111.046 254.61H143.907V212.353H111.046V254.61Z" fill="#A9B7F2"/>
<path d="M173.221 277.481H206.082V235.224H173.221V277.481Z" fill="#A9B7F2"/>
<path d="M427.707 251.978H26.749C35.1372 272.145 48.549 289.767 64.9437 304.378C65.724 305.073 66.523 305.761 67.3404 306.438L370.688 305.406C370.688 305.406 410.571 287.674 427.707 251.978Z" fill="#A9B7F2"/>
<path d="M26.7494 251.978H36.6328V209.72H17.4111C17.5599 214.069 17.9325 218.292 18.5255 222.335C20.0505 232.733 22.8607 242.628 26.7494 251.978Z" fill="#A9B7F2"/>
<path d="M177.894 171.112C177.894 182.933 168.305 192.515 156.477 192.515C144.649 192.515 135.06 182.933 135.06 171.112C135.06 159.292 144.649 149.71 156.477 149.71C168.305 149.71 177.894 159.292 177.894 171.112Z" fill="#E9EDFD"/>
<path d="M161.434 161.302C161.434 164.038 159.214 166.256 156.477 166.256C153.739 166.256 151.52 164.038 151.52 161.302C151.52 158.567 153.739 156.349 156.477 156.349C159.214 156.349 161.434 158.567 161.434 161.302Z" fill="#D8DFFD"/>
<path d="M161.434 161.302C161.434 164.038 159.214 166.256 156.477 166.256C153.739 166.256 151.52 164.038 151.52 161.302C151.52 158.567 153.739 156.349 156.477 156.349C159.214 156.349 161.434 158.567 161.434 161.302" stroke="black" stroke-width="0.339" stroke-miterlimit="10"/>
<path d="M181.504 306.049V169.362H131.45V306.219L181.504 306.049Z" fill="#C9D2FC"/>
<path d="M138.229 198.82H148.181V179.25H138.229V198.82Z" fill="#A9B7F2"/>
<path d="M163.269 198.82H173.22V179.25H163.269V198.82Z" fill="#A9B7F2"/>
<path d="M138.229 228.654H148.181V209.085H138.229V228.654Z" fill="#A9B7F2"/>
<path d="M163.269 228.654H173.22V209.085H163.269V228.654Z" fill="#A9B7F2"/>
<path d="M138.229 258.489H148.181V238.919H138.229V258.489Z" fill="#A9B7F2"/>
<path d="M163.269 258.489H173.22V238.919H163.269V258.489Z" fill="#A9B7F2"/>
<path d="M138.229 288.324H148.181V268.755H138.229V288.324Z" fill="#A9B7F2"/>
<path d="M163.269 288.324H173.22V268.755H163.269V288.324Z" fill="#A9B7F2"/>
<path d="M247.726 305.824V156.341C243.711 151.515 239.891 146.377 236.223 141.229C235.335 139.982 234.397 138.721 233.421 137.452H193.289V306.009L247.726 305.824Z" fill="#C9D2FC"/>
<path d="M198.657 156.958H206.08V149.541H198.657V156.958Z" fill="#A9B7F2"/>
<path d="M216.796 156.958H224.219V149.541H216.796V156.958Z" fill="#A9B7F2"/>
<path d="M234.935 156.958H242.357V149.582L242.326 149.541H234.935V156.958Z" fill="#A9B7F2"/>
<path d="M198.657 170.061H206.08V162.643H198.657V170.061Z" fill="#A9B7F2"/>
<path d="M216.796 170.061H224.219V162.643H216.796V170.061Z" fill="#A9B7F2"/>
<path d="M234.935 170.061H242.357V162.643H234.935V170.061Z" fill="#A9B7F2"/>
<path d="M198.657 183.163H206.08V175.746H198.657V183.163Z" fill="#A9B7F2"/>
<path d="M216.796 183.163H224.219V175.746H216.796V183.163Z" fill="#A9B7F2"/>
<path d="M234.935 183.163H242.357V175.746H234.935V183.163Z" fill="#A9B7F2"/>
<path d="M198.657 196.267H206.08V188.849H198.657V196.267Z" fill="#A9B7F2"/>
<path d="M216.796 196.267H224.219V188.849H216.796V196.267Z" fill="#A9B7F2"/>
<path d="M234.935 196.267H242.357V188.849H234.935V196.267Z" fill="#A9B7F2"/>
<path d="M198.657 209.369H206.08V201.951H198.657V209.369Z" fill="#A9B7F2"/>
<path d="M216.796 209.369H224.219V201.951H216.796V209.369Z" fill="#A9B7F2"/>
<path d="M234.935 209.369H242.357V201.951H234.935V209.369Z" fill="#A9B7F2"/>
<path d="M198.657 222.471H206.08V215.053H198.657V222.471Z" fill="#A9B7F2"/>
<path d="M216.796 222.471H224.219V215.053H216.796V222.471Z" fill="#A9B7F2"/>
<path d="M234.935 222.471H242.357V215.053H234.935V222.471Z" fill="#A9B7F2"/>
<path d="M198.657 235.574H206.08V228.156H198.657V235.574Z" fill="#A9B7F2"/>
<path d="M216.796 235.574H224.219V228.156H216.796V235.574Z" fill="#A9B7F2"/>
<path d="M234.935 235.574H242.357V228.156H234.935V235.574Z" fill="#A9B7F2"/>
<path d="M198.657 248.676H206.08V241.259H198.657V248.676Z" fill="#A9B7F2"/>
<path d="M216.796 248.676H224.219V241.259H216.796V248.676Z" fill="#A9B7F2"/>
<path d="M234.935 248.676H242.357V241.259H234.935V248.676Z" fill="#A9B7F2"/>
<path d="M198.657 261.779H206.08V254.361H198.657V261.779Z" fill="#A9B7F2"/>
<path d="M216.796 261.779H224.219V254.361H216.796V261.779Z" fill="#A9B7F2"/>
<path d="M234.935 261.779H242.357V254.361H234.935V261.779Z" fill="#A9B7F2"/>
<path d="M198.657 274.881H206.08V267.463H198.657V274.881Z" fill="#A9B7F2"/>
<path d="M216.796 274.881H224.219V267.463H216.796V274.881Z" fill="#A9B7F2"/>
<path d="M234.935 274.881H242.357V267.463H234.935V274.881Z" fill="#A9B7F2"/>
<path d="M198.657 287.984H206.08V280.566H198.657V287.984Z" fill="#A9B7F2"/>
<path d="M216.796 287.984H224.219V280.566H216.796V287.984Z" fill="#A9B7F2"/>
<path d="M234.935 287.984H242.357V280.566H234.935V287.984Z" fill="#A9B7F2"/>
<path d="M421.277 263.16V184.407H366.84V305.419L370.688 305.406C370.688 305.406 402.241 291.378 421.277 263.16Z" fill="#C9D2FC"/>
<path d="M372.209 203.914H379.632V196.497H372.209V203.914Z" fill="#A9B7F2"/>
<path d="M390.348 203.914H397.77V196.497H390.348V203.914Z" fill="#A9B7F2"/>
<path d="M408.486 203.914H415.909V196.497H408.486V203.914Z" fill="#A9B7F2"/>
<path d="M372.209 217.018H379.632V209.6H372.209V217.018Z" fill="#A9B7F2"/>
<path d="M390.348 217.018H397.77V209.6H390.348V217.018Z" fill="#A9B7F2"/>
<path d="M408.486 217.018H415.909V209.6H408.486V217.018Z" fill="#A9B7F2"/>
<path d="M372.209 230.119H379.632V222.701H372.209V230.119Z" fill="#A9B7F2"/>
<path d="M390.348 230.119H397.77V222.701H390.348V230.119Z" fill="#A9B7F2"/>
<path d="M408.486 230.119H415.909V222.701H408.486V230.119Z" fill="#A9B7F2"/>
<path d="M372.209 243.221H379.632V235.804H372.209V243.221Z" fill="#A9B7F2"/>
<path d="M390.348 243.221H397.77V235.804H390.348V243.221Z" fill="#A9B7F2"/>
<path d="M408.486 243.221H415.909V235.804H408.486V243.221Z" fill="#A9B7F2"/>
<path d="M372.209 256.325H379.632V248.907H372.209V256.325Z" fill="#A9B7F2"/>
<path d="M390.348 256.325H397.77V248.907H390.348V256.325Z" fill="#A9B7F2"/>
<path d="M408.486 256.325H415.909V248.907H408.486V256.325Z" fill="#A9B7F2"/>
<path d="M372.209 269.427H379.632V262.009H372.209V269.427Z" fill="#A9B7F2"/>
<path d="M390.348 269.427H397.77V262.009H390.348V269.427Z" fill="#A9B7F2"/>
<path d="M408.486 269.427H415.909V262.009H408.486V269.427Z" fill="#A9B7F2"/>
<path d="M372.209 282.529H379.632V275.112H372.209V282.529Z" fill="#A9B7F2"/>
<path d="M390.348 282.529H397.77V275.112H390.348V282.529Z" fill="#A9B7F2"/>
<path d="M411.822 275.112H408.486V278.613C409.609 277.482 410.722 276.314 411.822 275.112Z" fill="#A9B7F2"/>
<path d="M372.209 295.632H379.632V288.214H372.209V295.632Z" fill="#A9B7F2"/>
<path d="M397.77 288.238V288.214H390.348V293.822C392.734 292.144 395.229 290.282 397.77 288.238Z" fill="#A9B7F2"/>
<path d="M378.544 301.316H372.209V304.686C373.565 304.022 375.76 302.9 378.544 301.316Z" fill="#A9B7F2"/>
<path d="M119.541 306.26V137.452H52.2109V291.731C56.2049 296.165 60.4631 300.384 64.9444 304.378C65.7247 305.073 66.5236 305.761 67.3411 306.438L119.541 306.26Z" fill="#C9D2FC"/>
<path d="M59.2773 252.695H63.8212V164.777H59.2773V252.695Z" fill="#A9B7F2"/>
<path d="M71.4404 252.695H75.9838V164.777H71.4404V252.695Z" fill="#A9B7F2"/>
<path d="M83.6035 252.695H88.1472V164.777H83.6035V252.695Z" fill="#A9B7F2"/>
<path d="M95.7676 252.695H100.312V164.777H95.7676V252.695Z" fill="#A9B7F2"/>
<path d="M107.931 252.695H112.475V164.777H107.931V252.695Z" fill="#A9B7F2"/>
<path d="M52.2109 156.26H119.541V146.856H52.2109V156.26Z" fill="#E9EDFD"/>
<path d="M6.90296 161.762C6.90296 163.694 5.35771 165.26 3.45157 165.26C1.54525 165.26 0 163.694 0 161.762C0 159.831 1.54525 158.265 3.45157 158.265C5.35771 158.265 6.90296 159.831 6.90296 161.762Z" stroke="#A9B7F2" stroke-width="0.4506" stroke-miterlimit="10"/>
<path d="M416.802 86.66C416.802 88.5916 415.256 90.1576 413.35 90.1576C411.444 90.1576 409.899 88.5916 409.899 86.66C409.899 84.7286 411.444 83.1626 413.35 83.1626C415.256 83.1626 416.802 84.7286 416.802 86.66Z" stroke="#A9B7F2" stroke-width="0.4506" stroke-miterlimit="10"/>
<path d="M254.496 123.178C254.496 125.181 252.894 126.805 250.917 126.805C248.942 126.805 247.34 125.181 247.34 123.178C247.34 121.176 248.942 119.553 250.917 119.553C252.894 119.553 254.496 121.176 254.496 123.178Z" stroke="#A9B7F2" stroke-width="0.4506" stroke-miterlimit="10"/>
<path d="M49.1738 75.2891H74.294" stroke="#A9B7F2" stroke-width="0.3523" stroke-miterlimit="10"/>
<path d="M420.545 152.598H442.34" stroke="#A9B7F2" stroke-width="0.3523" stroke-miterlimit="10"/>
<path d="M237.665 59.0444H275.627" stroke="#A9B7F2" stroke-width="0.3523" stroke-miterlimit="10"/>
<path d="M303.224 306.083H375.16C384.342 306.083 391.785 298.644 391.785 289.468V98.1455C391.785 88.9695 384.342 81.5308 375.16 81.5308H303.224C294.041 81.5308 286.598 88.9695 286.598 98.1455V289.468C286.598 298.644 294.041 306.083 303.224 306.083Z" fill="#1F275F"/>
<path d="M292.311 306.083H364.246C373.429 306.083 380.872 298.644 380.872 289.468V98.1455C380.872 88.9695 373.429 81.5308 364.246 81.5308H292.311C283.128 81.5308 275.685 88.9695 275.685 98.1455V289.468C275.685 298.644 283.128 306.083 292.311 306.083Z" fill="#537EEF"/>
<path d="M292.212 301.05H364.345C370.667 301.05 375.791 295.929 375.791 289.612V99.0551C375.791 92.7379 370.667 87.6167 364.345 87.6167H292.212C285.891 87.6167 280.766 92.7379 280.766 99.0551V289.612C280.766 295.929 285.891 301.05 292.212 301.05Z" fill="white"/>
<path d="M310.645 93.2338H345.132C346.84 93.2338 348.223 91.8506 348.223 90.1443V85.105H307.554V90.1443C307.554 91.8506 308.937 93.2338 310.645 93.2338Z" fill="#537EEF"/>
<path d="M318.541 88.0557H334.484" stroke="#312220" stroke-width="0.3063" stroke-miterlimit="10" stroke-linecap="round" stroke-linejoin="round"/>
<path d="M285.968 189.169H370.665V125.78H285.968V189.169Z" fill="#D8DFFD"/>
<path d="M370.665 134.678L298.441 189.169" stroke="white" stroke-width="1.8083" stroke-miterlimit="10"/>
<path d="M370.665 166.683L340.861 189.169" stroke="white" stroke-width="1.8083" stroke-miterlimit="10"/>
<path d="M340.075 125.78L285.968 166.603" stroke="white" stroke-width="1.8083" stroke-miterlimit="10"/>
<path d="M296.108 125.78L330.957 176.982C332.279 178.924 331.934 181.547 330.155 183.082L323.098 189.169" stroke="white" stroke-width="1.8083" stroke-miterlimit="10"/>
<path d="M285.968 189.169H370.665V125.78H285.968V189.169Z" stroke="#312220" stroke-width="0.3753" stroke-miterlimit="10"/>
<path d="M356.927 144.984C356.927 136.915 348.404 130.836 339.863 135.246C338.536 135.932 336.85 137.588 336.127 138.895C333.892 142.935 334.094 146.92 335.7 150.069H335.688L335.779 150.233C335.82 150.31 335.863 150.386 335.906 150.462L345.699 168.161L355.51 150.434C355.544 150.375 355.577 150.315 355.609 150.255L355.655 150.173H355.649C356.461 148.621 356.927 146.858 356.927 144.984Z" fill="#EED23D"/>
<path d="M350.673 144.865C350.673 147.61 348.447 149.836 345.699 149.836C342.953 149.836 340.726 147.61 340.726 144.865C340.726 142.12 342.953 139.895 345.699 139.895C348.447 139.895 350.673 142.12 350.673 144.865Z" fill="white"/>
<path d="M243.956 252.691H232.329C220.913 252.691 211.659 264.66 211.659 279.422C211.659 294.186 220.913 306.154 232.329 306.154H243.956C255.372 306.154 264.626 294.186 264.626 279.422C264.626 264.66 255.372 252.691 243.956 252.691Z" fill="black"/>
<path d="M388.964 252.691H377.336C365.921 252.691 356.667 264.66 356.667 279.422C356.667 294.186 365.921 306.154 377.336 306.154H388.964C400.38 306.154 409.634 294.186 409.634 279.422C409.634 264.66 400.38 252.691 388.964 252.691Z" fill="black"/>
<path d="M248.02 284.526H333.735V246.215H248.02V284.526Z" fill="black"/>
<path d="M315.069 279.973C315.069 294.393 306.03 306.083 294.88 306.083C283.729 306.083 274.689 294.393 274.689 279.973C274.689 265.552 283.729 253.862 294.88 253.862C306.03 253.862 315.069 265.552 315.069 279.973Z" fill="black"/>
<path d="M283.521 306.083H294.88L306.49 294.48L294.88 253.862H283.521V306.083Z" fill="black"/>
<path d="M303.712 279.973C303.712 294.393 294.672 306.083 283.522 306.083C272.372 306.083 263.332 294.393 263.332 279.973C263.332 265.552 272.372 253.862 283.522 253.862C294.672 253.862 303.712 265.552 303.712 279.973Z" fill="#253A6A"/>
<path d="M291.874 279.422C291.874 286.718 287.509 292.633 282.127 292.633C276.743 292.633 272.38 286.718 272.38 279.422C272.38 272.126 276.743 266.213 282.127 266.213C287.509 266.213 291.874 272.126 291.874 279.422Z" fill="#B8B8C2"/>
<path d="M284.395 292.272C280.106 290.886 276.917 285.659 276.917 279.422C276.917 273.185 280.106 267.959 284.395 266.574C288.684 267.959 291.873 273.185 291.873 279.422C291.873 285.659 288.684 290.886 284.395 292.272Z" fill="white"/>
<path d="M103.012 284.526H188.728V246.215H103.012V284.526Z" fill="black"/>
<path d="M170.061 279.973C170.061 294.393 161.022 306.083 149.871 306.083C138.721 306.083 129.682 294.393 129.682 279.973C129.682 265.552 138.721 253.862 149.871 253.862C161.022 253.862 170.061 265.552 170.061 279.973Z" fill="black"/>
<path d="M138.514 306.083H149.871L161.482 294.48L149.871 253.862H138.514V306.083Z" fill="black"/>
<path d="M158.704 279.973C158.704 294.393 149.664 306.083 138.514 306.083C127.363 306.083 118.324 294.393 118.324 279.973C118.324 265.552 127.363 253.862 138.514 253.862C149.664 253.862 158.704 265.552 158.704 279.973Z" fill="#253A6A"/>
<path d="M146.866 279.422C146.866 286.718 142.502 292.633 137.119 292.633C131.736 292.633 127.372 286.718 127.372 279.422C127.372 272.126 131.736 266.213 137.119 266.213C142.502 266.213 146.866 272.126 146.866 279.422Z" fill="#B8B8C2"/>
<path d="M139.388 292.272C135.099 290.886 131.909 285.659 131.909 279.422C131.909 273.185 135.099 267.959 139.388 266.574C143.676 267.959 146.865 273.185 146.865 279.422C146.865 285.659 143.676 290.886 139.388 292.272Z" fill="white"/>
<path d="M89.3955 284.525V239.163C89.3955 232.693 94.1442 227.18 100.556 226.29C106.185 225.509 113.39 224.828 120.848 224.965C120.848 224.965 163.943 198.494 179.746 198.494L278.748 197.985C292 197.804 305.104 200.788 316.969 206.689L361.06 228.614L419.681 241.44C419.681 241.44 431.824 244.732 434.426 252.62C437.028 260.508 436.161 269.176 436.161 269.176H307.408C307.408 269.176 301.606 250.944 283.04 250.944C264.473 250.944 259.445 273.315 260.605 284.525H163.328C163.328 284.525 163.715 251.282 138.572 252.442C113.429 253.602 115.364 284.525 115.364 284.525H89.3955Z" fill="#EED23D"/>
<path d="M258.49 218.348L327.108 254.672L434.992 254.547C434.825 253.903 434.637 253.259 434.426 252.62C431.825 244.732 419.682 241.44 419.682 241.44L361.061 228.614L330.68 213.506L322.213 223.935L258.49 218.348Z" fill="#F0C98C"/>
<path d="M90.3515 269.176C86.9595 269.176 84.2086 271.922 84.204 275.311L84.2002 278.386C84.2002 281.777 86.9505 284.525 90.3439 284.525H115.364C115.364 284.525 115.236 276.159 117.455 269.176H90.3515Z" fill="#CF8127"/>
<path d="M240.866 185.483H202.445C199.244 185.483 196.649 188.076 196.649 191.274V198.494H246.66V191.274C246.66 188.076 244.066 185.483 240.866 185.483Z" fill="black"/>
<path d="M248.34 185.483H209.919C206.718 185.483 204.124 188.076 204.124 191.274V198.494H254.134V191.274C254.134 188.076 251.54 185.483 248.34 185.483Z" fill="#EAA947"/>
<path d="M260.225 226.793L221.102 204.8C217.779 202.933 214.031 201.952 210.218 201.952H186.921C180.893 201.952 174.987 203.653 169.885 206.862L132.716 227.94C131.654 228.542 132.081 230.161 133.301 230.161H259.342C261.194 230.161 261.839 227.701 260.225 226.793Z" fill="black"/>
<path d="M157.101 214.112L185.38 230.161H217.706L173.341 204.975C172.155 205.531 171.001 206.16 169.885 206.862L157.101 214.112Z" fill="#5E5E5E"/>
<path d="M132.47 228.854V244.63C132.47 244.63 166.603 237.76 170.062 276.851H248.019C248.019 276.851 245.936 238.638 260.33 229.317" stroke="black" stroke-width="0.2773" stroke-miterlimit="10" stroke-linecap="round" stroke-linejoin="round"/>
<path d="M196.09 230.16C196.09 230.16 187.957 233.765 191.901 276.85" stroke="black" stroke-width="0.2773" stroke-miterlimit="10" stroke-linecap="round" stroke-linejoin="round"/>
<path d="M208.63 237.797H200.796C199.939 237.797 199.244 237.102 199.244 236.246V235.527C199.244 234.671 199.939 233.976 200.796 233.976H208.63C209.487 233.976 210.181 234.671 210.181 235.527V236.246C210.181 237.102 209.487 237.797 208.63 237.797Z" fill="black"/>
<path d="M149.787 237.797H141.953C141.096 237.797 140.401 237.102 140.401 236.246V235.527C140.401 234.671 141.096 233.976 141.953 233.976H149.787C150.644 233.976 151.339 234.671 151.339 235.527V236.246C151.339 237.102 150.644 237.797 149.787 237.797Z" fill="black"/>
<path d="M235.975 206.403L280.754 230.161H356.883L305.669 205.134C301.383 203.04 296.675 201.952 291.905 201.952H237.084C234.619 201.952 233.798 205.247 235.975 206.403Z" fill="black"/>
<path d="M291.873 233.976H362.341" stroke="black" stroke-width="0.2773" stroke-miterlimit="10" stroke-linecap="round" stroke-linejoin="round"/>
<path d="M250.473 201.952L300.18 230.161H316.767L267.076 201.952H250.473Z" fill="#5E5E5E"/>
<path d="M281.437 201.952L331.144 230.161H336.535L286.844 201.952H281.437Z" fill="#5E5E5E"/>
<path d="M428.609 284.525H313.54C310.146 284.525 307.396 281.777 307.396 278.386L307.408 269.176H436.161L436.058 277.081C436.058 281.193 432.723 284.525 428.609 284.525Z" fill="#DDBB09"/>
<path d="M377.85 273.585H398.739V267.27H377.85V273.585Z" fill="white"/>
<path d="M353.076 254.678H414.645" stroke="black" stroke-width="0.2773" stroke-miterlimit="10" stroke-linecap="round" stroke-linejoin="round"/>
<path d="M364.312 259.376H404.778" stroke="black" stroke-width="0.2773" stroke-miterlimit="10" stroke-linecap="round" stroke-linejoin="round"/>
<path d="M364.312 264.055H404.778" stroke="black" stroke-width="0.2773" stroke-miterlimit="10" stroke-linecap="round" stroke-linejoin="round"/>
<path d="M355.646 264.764H328.771C326.501 264.764 324.66 262.924 324.66 260.655V256.8C324.66 254.531 326.501 252.691 328.771 252.691H355.646C357.916 252.691 359.756 254.531 359.756 256.8V260.655C359.756 262.924 357.916 264.764 355.646 264.764Z" fill="white"/>
<path d="M434.466 252.691H414.083C411.813 252.691 409.972 254.531 409.972 256.8V260.655C409.972 262.924 411.813 264.764 414.083 264.764H436.299C436.48 256.657 434.741 253.187 434.466 252.691Z" fill="white"/>
<path d="M324.66 260.655H359.756" stroke="black" stroke-width="0.2773" stroke-miterlimit="10" stroke-linecap="round" stroke-linejoin="round"/>
<path d="M409.972 260.655H436.161" stroke="black" stroke-width="0.2773" stroke-miterlimit="10" stroke-linecap="round" stroke-linejoin="round"/>
<path d="M192.97 86.7815C192.97 74.8256 180.341 65.817 167.686 72.3521C165.719 73.3679 163.221 75.8221 162.151 77.7582C158.839 83.7451 159.137 89.6492 161.517 94.3146H161.499L161.634 94.5582C161.695 94.6731 161.759 94.7859 161.822 94.8988L176.334 121.122L190.87 94.8565C190.92 94.7679 190.969 94.6807 191.017 94.5909L191.084 94.4704H191.076C192.279 92.1694 192.97 89.5576 192.97 86.7815Z" fill="#EED23D"/>
<path d="M183.704 86.6049C183.704 90.6725 180.404 93.9705 176.334 93.9705C172.263 93.9705 168.964 90.6725 168.964 86.6049C168.964 82.5379 172.263 79.2397 176.334 79.2397C180.404 79.2397 183.704 82.5379 183.704 86.6049Z" fill="white"/>
<path d="M115.504 293.128H125.883L143.046 302.303L113.534 301.951L115.504 293.128Z" fill="#101010"/>
<path d="M113.432 305.832L113.534 301.951L143.045 302.302L142.943 306.184L113.432 305.832Z" fill="white"/>
<path d="M133.055 296.506L129.655 297.435" stroke="white" stroke-width="0.5139" stroke-miterlimit="10" stroke-linecap="round" stroke-linejoin="round"/>
<path d="M129.732 294.802L126.331 295.73" stroke="white" stroke-width="0.5139" stroke-miterlimit="10" stroke-linecap="round" stroke-linejoin="round"/>
<path d="M126.98 278.506H116.402L115.504 293.128H126.082L126.98 278.506Z" fill="#EBB28B"/>
<path d="M133.902 182.434L127.379 288.426H112.65L115.195 182.434H133.902Z" fill="#98BDFC"/>
<path d="M91.6528 293.128H102.031L119.194 302.303L89.6826 301.951L91.6528 293.128Z" fill="#101010"/>
<path d="M89.5801 305.832L89.6821 301.951L119.194 302.302L119.091 306.184L89.5801 305.832Z" fill="white"/>
<path d="M109.203 296.506L105.804 297.435" stroke="white" stroke-width="0.5139" stroke-miterlimit="10" stroke-linecap="round" stroke-linejoin="round"/>
<path d="M105.881 294.802L102.48 295.73" stroke="white" stroke-width="0.5139" stroke-miterlimit="10" stroke-linecap="round" stroke-linejoin="round"/>
<path d="M104.18 278.506H93.6018L91.6523 293.128H102.231L104.18 278.506Z" fill="#EBB28B"/>
<path d="M102.713 182.434L88.291 288.426H104.392L125.354 182.434H102.713Z" fill="#98BDFC"/>
<path d="M113.792 240.899L122.023 199.279L128.032 195.366" stroke="#171717" stroke-width="0.2249" stroke-miterlimit="10" stroke-linecap="round" stroke-linejoin="round"/>
<path d="M100.6 197.97L109.594 190.895" stroke="#171717" stroke-width="0.2249" stroke-miterlimit="10" stroke-linecap="round" stroke-linejoin="round"/>
<path d="M136.674 142.148L153.06 163.65C154.872 165.673 154.985 168.7 153.328 170.853C151.239 173.567 147.233 173.811 144.829 171.371L127.219 151.018C124.804 148.567 124.726 144.659 127.04 142.112H127.04C129.627 139.267 134.109 139.284 136.674 142.148Z" fill="#EBB28B"/>
<path d="M128.647 133.992C128.647 133.992 136.659 134.991 142.791 146.871L133.371 158.158L128.647 133.992Z" fill="#537EEF"/>
<path d="M141.825 164.532L164.288 150.454L168.76 155.068L152.475 171.743L141.825 164.532Z" fill="#EBB28B"/>
<path d="M167.887 141.657L179.025 144.904C179.025 144.904 179.025 153.53 168.751 155.09C168.189 155.175 165.661 154.208 165.225 153.821L163.516 148.951C162.91 148.152 162.961 147.034 163.639 146.295L167.887 141.657Z" fill="#EBB28B"/>
<path d="M166.966 143.092L170.906 137.923C171.491 137.201 172.492 137.05 173.155 137.582C173.79 138.092 173.894 139.057 173.392 139.793L169.753 145.463L166.966 143.092Z" fill="#E9B0A0"/>
<path d="M171.729 147.215L176.462 142.547C177.116 141.891 178.089 141.824 178.646 142.396C179.18 142.946 179.147 143.895 178.57 144.573L174.054 149.755L171.729 147.215Z" fill="#E9B0A0"/>
<path d="M169.905 144.027L174.378 139.611C175.038 138.96 176.039 138.932 176.629 139.548C177.194 140.138 177.183 141.118 176.605 141.795L172.369 146.75L169.905 144.027Z" fill="#E9B0A0"/>
<path d="M177.434 130.468L179.207 130.582V142.215L172.983 151.954L171.091 151.799L174.43 139.566L177.434 130.468Z" fill="#36438D"/>
<path d="M167.001 146.615L172.203 151.515C172.678 152.107 173.582 152.099 174.047 151.499L185.373 137.373C185.649 137.016 185.645 136.516 185.362 136.164L179.905 130.947C179.51 130.455 178.759 130.462 178.372 130.961L166.989 145.162C166.655 145.591 166.661 146.192 167.001 146.615Z" fill="#050907"/>
<path d="M165.271 146.501L170.473 151.401C170.948 151.992 171.852 151.983 172.316 151.384L183.642 137.258C183.919 136.901 183.914 136.401 183.631 136.049L178.174 130.832C177.779 130.341 177.028 130.348 176.641 130.846L165.258 145.047C164.925 145.476 164.93 146.077 165.271 146.501Z" fill="white"/>
<path d="M164.718 150.534C164.108 150.235 162.586 148.648 162.855 146.243C163.208 143.079 164.844 140.681 164.844 140.681C165.388 139.663 166.018 139.169 166.901 139.292C167.859 139.426 168.472 140.445 168.302 141.152L167.304 143.362C167.304 143.362 168.402 146.164 166.104 150.41L164.718 150.534Z" fill="#EBB28B"/>
<path d="M113.576 131.713C113.576 131.713 107.517 133.128 103.197 135.304C100.478 136.676 100.176 139.638 100.518 142.662L102.713 182.433H133.902L136.085 144.01C136.385 139.795 133.907 135.664 129.904 134.304C125.418 132.78 122.585 131.33 120.199 131.191L113.576 131.713Z" fill="#537EEF"/>
<path d="M135.423 155.699L136.084 144.01" stroke="#171717" stroke-width="0.2249" stroke-miterlimit="10" stroke-linecap="round" stroke-linejoin="round"/>
<path d="M113.576 131.713L109.979 132.7C109.979 132.7 112.65 137.844 122.352 136.973C129.156 136.364 126.415 133.037 126.415 133.037L123.03 131.813L113.576 131.713Z" fill="#EBB28B"/>
<path d="M84.102 154.546L100.207 178.24L95.8695 182.981L78.0918 165.574L84.102 154.546Z" fill="#EBB28B"/>
<path d="M115.005 179.318L108.116 175.818L108.793 174.307C109.039 173.757 108.887 173.11 108.421 172.728C107.939 172.333 107.249 172.322 106.756 172.702L99.9713 178.026L95.8701 182.981C99.5915 186.165 102.023 186.126 103.425 185.509C103.589 185.564 103.75 185.623 103.917 185.671L109.642 187.312C110.171 187.54 110.787 187.317 111.046 186.803C111.235 186.43 111.302 185.831 110.2 185.272L111.302 185.831C111.862 186.073 112.513 185.828 112.774 185.277C113.02 184.791 112.718 184.147 112.071 183.727L112.914 184.058C113.525 184.321 114.245 184.021 114.474 183.373C114.671 182.814 114.375 182.195 113.844 181.927L112.627 181.311L114.073 181.661C114.738 181.896 115.481 181.541 115.699 180.843C115.886 180.245 115.564 179.603 115.005 179.318Z" fill="#EBB28B"/>
<path d="M112.993 181.484L108.92 179.563" stroke="#171717" stroke-width="0.1461" stroke-miterlimit="10" stroke-linecap="round" stroke-linejoin="round"/>
<path d="M111.897 183.655L107.971 182.02" stroke="#171717" stroke-width="0.1461" stroke-miterlimit="10" stroke-linecap="round" stroke-linejoin="round"/>
<path d="M110.565 185.415L107.237 184.104" stroke="#171717" stroke-width="0.1461" stroke-miterlimit="10" stroke-linecap="round" stroke-linejoin="round"/>
<path d="M106.691 148.014L86.2108 165.666C84.2998 167.597 81.2831 167.893 79.0321 166.371C76.1944 164.452 75.7073 160.47 77.9982 157.925L97.2566 139.122C99.5576 136.564 103.457 136.248 106.141 138.402C109.14 140.81 109.396 145.281 106.691 148.014Z" fill="#EBB28B"/>
<path d="M107.615 133.473C107.615 133.473 96.9266 135.561 88.1582 146.669L97.4508 158.775L110.774 149.24L107.615 133.473Z" fill="#537EEF"/>
<path d="M101.974 155.538L109.702 150.007" stroke="#171717" stroke-width="0.2249" stroke-miterlimit="10" stroke-linecap="round" stroke-linejoin="round"/>
<path d="M130.143 98.3252C130.143 98.3252 133.752 101.548 130.758 108.783L125.804 99.0147L130.143 98.3252Z" fill="#1F275F"/>
<path d="M109.929 99.1979C109.929 99.1979 105.715 98.74 104.758 105.235C103.801 111.73 108.577 115.613 113.879 118.753L109.929 99.1979Z" fill="#1F275F"/>
<path d="M130.804 107.5C130.804 114.327 125.391 119.862 118.714 119.862C112.036 119.862 106.623 114.327 106.623 107.5C106.623 100.673 112.036 95.1377 118.714 95.1377C125.391 95.1377 130.804 100.673 130.804 107.5Z" fill="#1F275F"/>
<path d="M126.525 112.824C127.064 114.429 128.804 115.292 130.409 114.753C132.015 114.213 132.878 112.475 132.339 110.871C131.799 109.266 130.06 108.403 128.455 108.943C126.849 109.482 125.985 111.22 126.525 112.824Z" fill="#DD8161"/>
<path d="M123.087 119.937L123.267 133.274L113.312 131.63L114.036 112.501L123.087 119.937Z" fill="#EBB28B"/>
<path d="M123.183 126.695L116.191 119.862L123.404 121.128L123.183 126.695Z" fill="#171717"/>
<path d="M129.361 101.561C129.361 101.561 132.053 112.304 130.838 116.428C129.622 120.553 126.417 123.226 121.064 122.349C121.064 122.349 114.892 122.231 113.068 113.135C110.321 99.4414 122.722 94.4279 129.361 101.561Z" fill="#EBB28B"/>
<path d="M114.796 113.127C114.796 113.127 118.747 104.059 114.456 102.291C113.169 101.761 112.414 101.492 111.806 106.036C111.197 110.58 112.785 111.324 112.785 111.324L114.796 113.127Z" fill="#1F275F"/>
<path d="M109.334 114.169C109.892 115.827 111.689 116.719 113.348 116.162C115.008 115.604 115.901 113.808 115.343 112.15C114.785 110.491 112.988 109.599 111.328 110.156C109.67 110.714 108.776 112.51 109.334 114.169Z" fill="#EBB28B"/>
<path d="M110.881 112.277C110.881 112.277 113.183 111.54 113.878 114.076" stroke="#171717" stroke-width="0.1391" stroke-miterlimit="10" stroke-linecap="round" stroke-linejoin="round"/>
<path d="M127.152 111.926L127.84 114.246C127.873 114.418 127.766 114.586 127.595 114.628L126.816 114.753" stroke="#1E0B07" stroke-width="0.1315" stroke-miterlimit="10" stroke-linecap="round" stroke-linejoin="round"/>
<path d="M122.312 111.2C122.287 111.622 122.609 111.985 123.031 112.01C123.454 112.036 123.817 111.714 123.842 111.291C123.868 110.87 123.546 110.506 123.123 110.481C122.701 110.456 122.338 110.778 122.312 111.2Z" fill="#171717"/>
<path d="M128.722 111.028C128.698 111.419 128.997 111.755 129.389 111.779C129.781 111.803 130.118 111.504 130.141 111.113C130.165 110.721 129.866 110.384 129.474 110.361C129.082 110.338 128.746 110.636 128.722 111.028Z" fill="#171717"/>
<path d="M124.523 106.012L118.747 107.857C118.747 107.857 120.031 106.094 121.698 105.571C123.363 105.048 124.523 106.012 124.523 106.012Z" fill="#171717"/>
<path d="M127.764 105.876L130.805 106.856C130.805 106.856 130.282 105.557 129.405 105.281C128.527 105.006 127.764 105.876 127.764 105.876Z" fill="#171717"/>
<path d="M123.077 115.328C123.077 115.328 125.204 116.41 127.33 116.41C127.33 116.41 124.438 118.509 123.077 115.328Z" fill="white"/>
<path d="M113.171 102.395C113.171 102.395 116.384 105.161 124.338 103.56C132.291 101.958 132.605 96.571 131.647 94.6779C131.647 94.6779 128.72 96.9487 123.898 95.7072C121.208 95.014 115.201 92.4881 111.594 95.1935C110.351 96.1265 109.628 97.6733 109.928 99.1977C110.16 100.377 110.948 101.724 113.171 102.395Z" fill="#1F275F"/>
<path d="M76.9708 243.08H56.2666V198.757C56.2666 194.327 59.8608 190.735 64.2944 190.735H68.9436C73.3771 190.735 76.9708 194.327 76.9708 198.757V243.08Z" stroke="#101010" stroke-width="1.0119" stroke-miterlimit="10"/>
<path d="M60.8328 301.379C60.8328 304.032 58.6805 306.184 56.0258 306.184C53.371 306.184 51.2188 304.032 51.2188 301.379C51.2188 298.726 53.371 296.575 56.0258 296.575C58.6805 296.575 60.8328 298.726 60.8328 301.379Z" fill="#101010"/>
<path d="M82.02 301.379C82.02 304.032 79.8678 306.184 77.2124 306.184C74.5577 306.184 72.4053 304.032 72.4053 301.379C72.4053 298.726 74.5577 296.575 77.2124 296.575C79.8678 296.575 82.02 298.726 82.02 301.379Z" fill="#101010"/>
<path d="M83.0574 300.253H50.1802C45.4893 300.253 41.6865 296.452 41.6865 291.765V236.346C41.6865 231.658 45.4893 227.858 50.1802 227.858H83.0574C87.749 227.858 91.5518 231.658 91.5518 236.346V291.765C91.5518 296.452 87.749 300.253 83.0574 300.253Z" fill="#537EEF"/>
<path d="M50.2402 289.348H52.0609V239.308H50.2402V289.348Z" stroke="#171717" stroke-width="0.2162" stroke-miterlimit="10" stroke-linecap="round" stroke-linejoin="round"/>
<path d="M59.9229 289.348H61.7435V239.308H59.9229V289.348Z" stroke="#171717" stroke-width="0.2162" stroke-miterlimit="10" stroke-linecap="round" stroke-linejoin="round"/>
<path d="M69.6055 289.348H71.4258V239.308H69.6055V289.348Z" stroke="#171717" stroke-width="0.2162" stroke-miterlimit="10" stroke-linecap="round" stroke-linejoin="round"/>
<path d="M79.2881 289.348H81.1085V239.308H79.2881V289.348Z" stroke="#171717" stroke-width="0.2162" stroke-miterlimit="10" stroke-linecap="round" stroke-linejoin="round"/>
<path d="M10.3809 306.154H444" stroke="black" stroke-width="0.3452" stroke-miterlimit="10" stroke-linecap="round" stroke-linejoin="round"/>
<g filter="url(#filter0_d)">
<rect x="150" y="16" width="126" height="38" rx="19" fill="white"/>
</g>
<path d="M170.222 47.5544C177.279 47.5544 183 41.8338 183 34.7772C183 27.7205 177.279 22 170.222 22C163.166 22 157.445 27.7205 157.445 34.7772C157.445 41.8338 163.166 47.5544 170.222 47.5544Z" fill="#EED23D"/>
<path fill-rule="evenodd" clip-rule="evenodd" d="M162.501 35.1921H162.432C162.432 35.1921 162.16 35.0899 162.156 35.9336C162.152 36.7773 162.15 37.0149 162.15 37.0149L162.139 39.3117C162.139 39.3117 162.278 40.9339 164.318 40.9439L176.279 41.0025H176.484C176.928 40.9252 177.33 40.6938 177.619 40.3491C177.908 40.0043 178.067 39.5684 178.066 39.1184C178.074 37.4895 178.082 36.0104 178.082 36.0104V35.6054C178.084 35.5258 178.058 35.4479 178.008 35.3857C177.959 35.3236 177.888 35.2812 177.81 35.2661C177.746 35.2661 177.742 35.2661 177.742 35.2661C177.701 35.2671 177.66 35.277 177.623 35.2951C177.586 35.3132 177.553 35.3391 177.527 35.3711C177.501 35.403 177.482 35.4402 177.471 35.4802C177.46 35.5202 177.459 35.5619 177.466 35.6026C177.466 35.9468 177.466 35.9408 177.466 35.9408L177.449 39.3184C177.449 39.3184 177.241 40.3986 176.418 40.3947L174.094 40.3831L164.457 40.3361H164.32C163.977 40.4022 163.622 40.3327 163.33 40.1422C163.037 39.9517 162.83 39.6552 162.753 39.315C162.761 39.2025 162.761 39.0894 162.753 38.9769L162.77 35.6667C162.77 35.6667 162.804 35.1938 162.501 35.1921ZM162.777 34.1804C164.694 34.781 166.658 35.22 168.649 35.4927L171.724 35.5076C171.724 35.5076 175.625 35.3418 177.541 34.2523C177.746 34.241 177.951 34.2421 178.156 34.2556V34.5932C178.156 34.5932 175.839 36.0005 171.655 35.98L168.579 35.9651C168.579 35.9651 166.163 36.0248 162.162 34.5153C162.141 34.4264 162.141 34.3339 162.162 34.2451V34.1771L162.777 34.1804ZM162.162 34.1771L162.176 31.3399C162.176 31.3399 162.391 29.5238 164.576 29.7928L166.627 29.8027L175.718 29.847C175.718 29.847 178.32 29.5514 178.166 32.2985C178.158 34.1185 178.156 34.2578 178.156 34.2578L177.541 34.2545L177.554 31.6195C177.554 31.6195 177.517 30.3238 175.715 30.3945C173.988 30.3945 174.006 30.3862 174.006 30.3862L164.574 30.3404C164.574 30.3404 162.91 30.2481 162.791 31.4123C162.785 32.577 162.777 34.1826 162.777 34.1826L162.162 34.1771ZM166.969 29.8022L166.975 28.5933C166.975 28.5933 166.998 26.9849 169.717 26.9981L170.674 27.0031H170.743C170.743 27.0031 173.118 26.9694 173.332 28.6242L173.326 29.8332L172.711 29.8298L172.717 28.5535C172.717 28.5535 172.712 27.4728 170.672 27.4623L169.512 27.4567C169.512 27.4567 167.706 27.5225 167.592 28.6635C167.587 29.7409 167.587 29.805 167.587 29.805L166.969 29.8022Z" fill="black"/>
<path fill-rule="evenodd" clip-rule="evenodd" d="M169.134 34.6231L171.118 34.6325C171.118 34.6325 171.665 34.6231 171.66 35.5463C171.656 36.4696 171.649 37.694 171.649 37.694C171.62 37.8436 171.545 37.9802 171.434 38.0847C171.323 38.1891 171.182 38.2562 171.031 38.2764L169.526 38.2692H169.25C169.08 38.252 168.92 38.1783 168.797 38.0597C168.673 37.9411 168.593 37.7845 168.569 37.615C168.569 37.0625 168.58 35.5325 168.58 35.5325C168.58 35.5325 168.646 34.6208 169.134 34.6231Z" fill="black"/>
<path fill-rule="evenodd" clip-rule="evenodd" d="M169.452 35.0903L170.862 35.0975C170.862 35.0975 171.249 35.0903 171.249 35.7749C171.249 36.4595 171.24 37.3673 171.24 37.3673C171.221 37.4764 171.168 37.5767 171.089 37.6542C171.009 37.7316 170.908 37.7824 170.798 37.7993L169.729 37.7944H169.534C169.411 37.7797 169.296 37.7239 169.208 37.636C169.121 37.5481 169.065 37.4332 169.051 37.3098C169.051 36.9009 169.059 35.7655 169.059 35.7655C169.059 35.7655 169.104 35.0887 169.452 35.0903Z" fill="#EED23D"/>
<path d="M193.052 28.2607H195.652V42.2607H193.052V28.2607ZM203.879 30.4607H199.239V28.2607H211.119V30.4607H206.479V42.2607H203.879V30.4607ZM217.705 30.4607H213.065V28.2607H224.945V30.4607H220.305V42.2607H217.705V30.4607ZM236.873 39.0207H229.873L228.493 42.2607H225.813L232.113 28.2607H234.673L240.993 42.2607H238.273L236.873 39.0207ZM236.013 36.9807L233.373 30.8607L230.753 36.9807H236.013ZM252.491 42.2607L248.691 36.9407L244.931 42.2607H241.971L247.171 35.1207L242.251 28.2607H245.191L248.771 33.2407L252.311 28.2607H255.131L250.231 35.0207L255.491 42.2607H252.491ZM258.669 28.2607H261.269V42.2607H258.669V28.2607Z" fill="black"/>
</g>
<defs>
<filter id="filter0_d" x="142" y="10" width="142" height="54" filterUnits="userSpaceOnUse" color-interpolation-filters="sRGB">
<feFlood flood-opacity="0" result="BackgroundImageFix"/>
<feColorMatrix in="SourceAlpha" type="matrix" values="0 0 0 0 0 0 0 0 0 0 0 0 0 0 0 0 0 0 127 0"/>
<feOffset dy="2"/>
<feGaussianBlur stdDeviation="4"/>
<feColorMatrix type="matrix" values="0 0 0 0 0.847059 0 0 0 0 0.87451 0 0 0 0 0.992157 0 0 0 1 0"/>
<feBlend mode="normal" in2="BackgroundImageFix" result="effect1_dropShadow"/>
<feBlend mode="normal" in="SourceGraphic" in2="effect1_dropShadow" result="shape"/>
</filter>
<clipPath id="clip0">
<rect width="450" height="309" rx="30" fill="white"/>
</clipPath>
</defs>
</svg>
