<svg width="15" height="15" viewBox="0 0 15 15" fill="none" xmlns="http://www.w3.org/2000/svg">
<g clip-path="url(#clip0)">
<path d="M14.3526 10.1976C14.6601 9.80552 14.8075 9.38519 14.7887 8.95232C14.7698 8.47553 14.5565 8.10226 14.3809 7.87327C14.5848 7.36512 14.6632 6.56524 13.9825 5.94417C13.4838 5.48933 12.6368 5.28545 11.4637 5.34191C10.6387 5.37955 9.94863 5.53325 9.9204 5.53952H9.91727C9.76043 5.56775 9.59418 5.60226 9.42479 5.6399C9.41225 5.43915 9.44675 4.9404 9.81689 3.81744C10.256 2.48118 10.2309 1.45859 9.73533 0.77478C9.21463 0.0564618 8.38339 0 8.13872 0C7.90346 0 7.68703 0.0972397 7.53333 0.276035C7.18515 0.680677 7.22592 1.42723 7.26984 1.77227C6.85578 2.88268 5.69518 5.60539 4.71338 6.36135C4.69456 6.3739 4.67887 6.38959 4.66319 6.40527C4.37461 6.70954 4.18013 7.0389 4.04838 7.32748C3.86331 7.2271 3.65315 7.17064 3.4273 7.17064H1.51388C0.792422 7.17064 0.208984 7.75721 0.208984 8.47553V13.5728C0.208984 14.2942 0.795559 14.8777 1.51388 14.8777H3.4273C3.70648 14.8777 3.96683 14.7898 4.18013 14.6393L4.91727 14.7271C5.03019 14.7428 7.03772 14.9969 9.09857 14.9561C9.47185 14.9843 9.82316 15 10.1494 15C10.7109 15 11.2002 14.9561 11.608 14.8683C12.5678 14.6644 13.2234 14.2566 13.5559 13.6575C13.81 13.1995 13.81 12.7447 13.7692 12.4561C14.3934 11.8915 14.5032 11.2673 14.4813 10.8281C14.4687 10.574 14.4122 10.3576 14.3526 10.1976ZM1.51388 14.0307C1.2598 14.0307 1.05591 13.8237 1.05591 13.5728V8.4724C1.05591 8.21832 1.26294 8.01443 1.51388 8.01443H3.4273C3.68138 8.01443 3.88527 8.22145 3.88527 8.4724V13.5696C3.88527 13.8237 3.67824 14.0276 3.4273 14.0276H1.51388V14.0307ZM13.5496 9.83061C13.4179 9.96863 13.3928 10.1788 13.4932 10.3419C13.4932 10.345 13.6218 10.5646 13.6375 10.8657C13.6594 11.2767 13.4618 11.6405 13.0478 11.9511C12.9003 12.064 12.8407 12.2585 12.9035 12.4341C12.9035 12.4373 13.0383 12.8513 12.8188 13.2434C12.6086 13.6198 12.1412 13.8896 11.4323 14.0401C10.8646 14.1625 10.0929 14.1844 9.14562 14.1092C9.13308 14.1092 9.11739 14.1092 9.10171 14.1092C7.08477 14.1531 5.04587 13.8896 5.02392 13.8864H5.02078L4.70397 13.8488C4.72279 13.761 4.7322 13.6669 4.7322 13.5728V8.4724C4.7322 8.33751 4.71024 8.20577 4.6726 8.08344C4.72906 7.87327 4.8859 7.4059 5.25604 7.00753C6.66444 5.89084 8.04148 2.12359 8.10108 1.96048C8.12617 1.8946 8.13245 1.82246 8.1199 1.75031C8.06658 1.399 8.0854 0.96926 8.16068 0.840652C8.32693 0.843789 8.77548 0.890841 9.04525 1.26412C9.3652 1.7064 9.35265 2.49686 9.0076 3.54454C8.48063 5.14115 8.43671 5.98181 8.8539 6.35194C9.06093 6.53701 9.33697 6.54642 9.53772 6.47428C9.72906 6.43036 9.91099 6.39272 10.0835 6.36449C10.0961 6.36135 10.1117 6.35822 10.1243 6.35508C11.0873 6.14492 12.8125 6.01631 13.4116 6.56211C13.9198 7.02635 13.559 7.64115 13.5183 7.70703C13.4022 7.88268 13.4367 8.11167 13.5936 8.25282C13.5967 8.25596 13.926 8.5665 13.9417 8.98369C13.9543 9.26286 13.8225 9.54831 13.5496 9.83061Z" fill="black"/>
</g>
<defs>
<clipPath id="clip0">
<rect width="15" height="15" fill="white"/>
</clipPath>
</defs>
</svg>
