<svg width="34" height="34" viewBox="0 0 34 34" fill="none" xmlns="http://www.w3.org/2000/svg">
<path d="M32.9354 14.874C32.349 14.874 31.873 15.35 31.873 15.9364V27.9674L23.3735 31.3672V20.1862C23.3735 19.5997 22.8976 19.1237 22.3111 19.1237C21.7246 19.1237 21.2487 19.5997 21.2487 20.1862V31.3651L12.7492 27.9653V11.1321L17.6725 13.1019C18.2101 13.3186 18.8348 13.0551 19.0537 12.509C19.2725 11.965 19.0069 11.3467 18.4608 11.1279L12.1011 8.58226C12.1011 8.58226 12.1011 8.58226 12.099 8.58226L12.082 8.57588C11.8291 8.47389 11.5465 8.47389 11.2937 8.57588L11.2745 8.58226C11.2745 8.58226 11.2745 8.58226 11.2724 8.58226L0.667208 12.8256C0.265608 12.9871 0 13.376 0 13.8116V32.9354C0 33.2881 0.176364 33.6174 0.467471 33.8151C0.64596 33.9362 0.852072 33.9978 1.06243 33.9978C1.1963 33.9978 1.33017 33.9723 1.45766 33.9213L11.6868 29.8309L21.8968 33.9149C21.8968 33.9149 21.8968 33.9149 21.8989 33.9149L21.918 33.9234C22.1709 34.0254 22.4535 34.0254 22.7063 33.9234L22.7255 33.9149C22.7255 33.9149 22.7255 33.9149 22.7276 33.9149L33.3328 29.6737C33.7323 29.5101 33.9979 29.1212 33.9979 28.6856V15.9364C33.9979 15.35 33.5219 14.874 32.9354 14.874ZM10.6243 27.9653L2.12487 31.3651V14.5298L10.6243 11.13V27.9653Z" fill="white"/>
<path d="M26.5623 4.24976C24.805 4.24976 23.375 5.67979 23.375 7.43706C23.375 9.19432 24.805 10.6244 26.5623 10.6244C28.3196 10.6244 29.7496 9.19432 29.7496 7.43706C29.7496 5.67979 28.3196 4.24976 26.5623 4.24976ZM26.5623 8.49949C25.9758 8.49949 25.4999 8.02352 25.4999 7.43706C25.4999 6.85059 25.9758 6.37462 26.5623 6.37462C27.1488 6.37462 27.6247 6.85059 27.6247 7.43706C27.6247 8.02352 27.1488 8.49949 26.5623 8.49949Z" fill="white"/>
<path d="M26.562 0C22.461 0 19.125 3.33604 19.125 7.43704C19.125 11.2533 25.0916 18.0125 25.7716 18.7711C25.9734 18.9942 26.2603 19.1238 26.562 19.1238C26.8638 19.1238 27.1506 18.9942 27.3525 18.7711C28.0324 18.0125 33.9991 11.2533 33.9991 7.43704C33.9991 3.33604 30.663 0 26.562 0ZM26.562 16.4401C24.2417 13.6884 21.2499 9.46416 21.2499 7.43704C21.2499 4.50897 23.634 2.12487 26.562 2.12487C29.4901 2.12487 31.8742 4.50897 31.8742 7.43704C31.8742 9.46204 28.8824 13.6884 26.562 16.4401Z" fill="white"/>
</svg>
