<svg width="21" height="21" viewBox="0 0 21 21" fill="none" xmlns="http://www.w3.org/2000/svg">
<g clip-path="url(#clip0)">
<path d="M19.1543 4.96289H15.5981L15.1397 2.67081C15.0251 2.09766 14.5176 1.68164 13.9331 1.68164H7.06687C6.4824 1.68164 5.97491 2.09766 5.86031 2.67081L5.40188 4.96289H1.8457C0.827982 4.96289 0 5.79087 0 6.80859V17.4727C0 18.4904 0.827982 19.3184 1.8457 19.3184H19.1543C20.172 19.3184 21 18.4904 21 17.4727V6.80859C21 5.79087 20.172 4.96289 19.1543 4.96289ZM7.06687 2.91211H13.9331L14.3433 4.96289H6.65671L7.06687 2.91211ZM19.7695 17.4727C19.7695 17.8119 19.4935 18.0879 19.1543 18.0879H1.8457C1.50646 18.0879 1.23047 17.8119 1.23047 17.4727V6.80859C1.23047 6.46935 1.50646 6.19336 1.8457 6.19336H19.1543C19.4935 6.19336 19.7695 6.46935 19.7695 6.80859V17.4727Z" fill="white"/>
<path d="M10.5 7.58789C7.9896 7.58789 5.94727 9.63022 5.94727 12.1406C5.94727 14.651 7.9896 16.6934 10.5 16.6934C13.0104 16.6934 15.0527 14.651 15.0527 12.1406C15.0527 9.63022 13.0104 7.58789 10.5 7.58789ZM10.5 15.4629C8.66808 15.4629 7.17773 13.9725 7.17773 12.1406C7.17773 10.3087 8.66808 8.81836 10.5 8.81836C12.3319 8.81836 13.8223 10.3087 13.8223 12.1406C13.8223 13.9725 12.3319 15.4629 10.5 15.4629Z" fill="white"/>
<path d="M5.25 7.58789H3.28125C2.94148 7.58789 2.66602 7.86335 2.66602 8.20312C2.66602 8.5429 2.94148 8.81836 3.28125 8.81836H5.25C5.58977 8.81836 5.86523 8.5429 5.86523 8.20312C5.86523 7.86335 5.58977 7.58789 5.25 7.58789Z" fill="white"/>
</g>
<defs>
<clipPath id="clip0">
<rect width="21" height="21" fill="white"/>
</clipPath>
</defs>
</svg>
