<svg width="28" height="28" viewBox="0 0 28 28" fill="none" xmlns="http://www.w3.org/2000/svg">
<path d="M14 0.21875C8.08965 0.21875 3.28125 5.02715 3.28125 10.9375C3.28125 13.8086 5.0207 17.4956 8.45124 21.8957C10.0229 23.9064 11.725 25.8117 13.5464 27.5993C13.6685 27.716 13.831 27.7812 14 27.7812C14.169 27.7812 14.3315 27.716 14.4536 27.5993C16.275 25.8117 17.9771 23.9064 19.5488 21.8957C22.9793 17.4956 24.7188 13.8086 24.7188 10.9375C24.7188 5.02715 19.9104 0.21875 14 0.21875ZM14 18.5938C9.77813 18.5938 6.34375 15.1594 6.34375 10.9375C6.34375 6.71563 9.77813 3.28125 14 3.28125C18.2219 3.28125 21.6562 6.71563 21.6562 10.9375C21.6562 15.1594 18.2219 18.5938 14 18.5938Z" fill="#FF6B01"/>
<path d="M19.254 10.0144L14.4415 5.63941C14.3207 5.5296 14.1633 5.46875 14 5.46875C13.8368 5.46875 13.6794 5.5296 13.5586 5.63941L8.7461 10.0144C8.63398 10.1164 8.56058 10.254 8.53835 10.4039C8.51612 10.5538 8.54644 10.7068 8.62414 10.8369C8.68545 10.9359 8.77138 11.0174 8.87354 11.0734C8.97571 11.1293 9.09063 11.1579 9.20711 11.1562H9.84378V15.3125C9.84378 15.4865 9.91292 15.6535 10.036 15.7765C10.1591 15.8996 10.326 15.9687 10.5 15.9687H12.0313C12.2053 15.9687 12.3722 15.8996 12.4953 15.7765C12.6184 15.6535 12.6875 15.4865 12.6875 15.3125V12.9062C12.6875 12.7322 12.7567 12.5653 12.8797 12.4422C13.0028 12.3191 13.1697 12.25 13.3438 12.25H14.6563C14.8303 12.25 14.9972 12.3191 15.1203 12.4422C15.2434 12.5653 15.3125 12.7322 15.3125 12.9062V15.3125C15.3125 15.4865 15.3817 15.6535 15.5047 15.7765C15.6278 15.8996 15.7947 15.9687 15.9688 15.9687H17.5C17.6741 15.9687 17.841 15.8996 17.9641 15.7765C18.0871 15.6535 18.1563 15.4865 18.1563 15.3125V11.1562H18.7929C18.9094 11.1579 19.0244 11.1293 19.1265 11.0734C19.2287 11.0174 19.3146 10.9359 19.3759 10.8369C19.4536 10.7068 19.4839 10.5538 19.4617 10.4039C19.4395 10.254 19.3661 10.1164 19.254 10.0144Z" fill="#FF6B01"/>
</svg>
