<svg width="26" height="26" viewBox="0 0 26 26" fill="none" xmlns="http://www.w3.org/2000/svg">
<path d="M10.7169 21.4133C4.81323 21.4133 0.0102539 16.6103 0.0102539 10.7066C0.0102539 4.80297 4.81323 0 10.7169 0C16.6206 0 21.4235 4.80297 21.4235 10.7066C21.4235 16.6103 16.6206 21.4133 10.7169 21.4133V21.4133ZM10.7169 2.0297C5.9324 2.0297 2.03995 5.92215 2.03995 10.7066C2.03995 15.4911 5.9324 19.3836 10.7169 19.3836C15.5014 19.3836 19.3939 15.4911 19.3939 10.7066C19.3939 5.92215 15.5014 2.0297 10.7169 2.0297V2.0297ZM25.6932 25.7028C26.0895 25.3064 26.0895 24.6638 25.6932 24.2675L21.1517 19.7261C20.7554 19.3297 20.1128 19.3297 19.7165 19.7261C19.3202 20.1224 19.3202 20.765 19.7165 21.1613L24.2579 25.7028C24.4561 25.9009 24.7158 25.9999 24.9756 25.9999C25.2353 25.9999 25.495 25.9009 25.6932 25.7028V25.7028Z" fill="white"/>
</svg>
