<svg width="84" height="84" viewBox="0 0 84 84" fill="none" xmlns="http://www.w3.org/2000/svg">
<g clip-path="url(#clip0)">
<path d="M42.0065 84H42.0019C41.0958 84 40.3613 83.2655 40.3613 82.3594C40.3613 81.4533 41.0958 80.7188 42.0019 80.7188C42.9081 80.7188 43.6449 81.4533 43.6449 82.3594C43.6449 83.2655 42.9127 84 42.0065 84Z" fill="white"/>
<path d="M67.9317 60.5793V54.0378C67.9317 54.0287 67.9317 54.0197 67.9315 54.0107C67.8567 49.4604 66.1446 46.0937 62.6974 43.7182C59.8275 41.7405 56.2155 40.7672 52.7224 39.8262C51.7271 39.5579 50.7707 39.3004 49.8512 39.0255V35.5538C53.5938 33.0246 56.0595 28.7416 56.0595 23.8932V22.1358C56.2499 21.9927 56.4332 21.8359 56.6066 21.663C58.4461 19.8235 58.6056 16.9314 57.0872 14.908V8.32798C57.087 3.73587 53.3511 0 48.7592 0H35.2404C30.6485 0 26.9126 3.73587 26.9126 8.32798V14.9082C25.3942 16.9316 25.5539 19.8237 27.3951 21.6651C27.5679 21.8374 27.7506 21.9936 27.9403 22.1363V23.8932C27.9403 28.7408 30.4058 33.0232 34.1486 35.5525V39.0255C33.229 39.3004 32.2725 39.5581 31.2773 39.8262C27.7843 40.7672 24.1723 41.7405 21.3023 43.7182C17.8551 46.0937 16.1431 49.4604 16.0682 54.0107C16.0681 54.0197 16.0681 54.0287 16.0681 54.0378V60.5793C15.304 61.3508 14.8311 62.4113 14.8311 63.5806V68.2497C14.8311 70.6031 16.7457 72.5179 19.0991 72.5179H23.1868C23.402 72.5179 23.6148 72.5068 23.8248 72.4866V80.1319C23.8248 82.2649 25.558 84.0002 27.6883 84.0002H34.6313C35.5374 84.0002 36.2719 83.2657 36.2719 82.3595C36.2719 81.4534 35.5374 80.7189 34.6313 80.7189H27.6883C27.3726 80.7189 27.106 80.4502 27.106 80.1319V71.2249C28.7326 70.0212 29.7893 68.0895 29.7893 65.9152C29.7893 63.7409 28.7324 61.8094 27.106 60.6055V55.67C27.106 55.3544 27.3726 55.0878 27.6883 55.0878H35.3438V65.0734C35.3438 65.68 35.6785 66.237 36.2138 66.5218C36.4555 66.6504 36.7201 66.714 36.9842 66.714C37.3052 66.714 37.6251 66.6199 37.901 66.434L42.0016 63.6712L46.0978 66.4337C46.6008 66.7729 47.25 66.8069 47.7853 66.5221C48.321 66.2373 48.6557 65.6803 48.6557 65.0736V55.0879H56.3111C56.6293 55.0879 56.898 55.3545 56.898 55.6702V60.6024C55.269 61.806 54.2102 63.7391 54.2102 65.9154C54.2102 68.0917 55.269 70.0248 56.898 71.2284V80.1321C56.898 80.4502 56.6293 80.7191 56.3111 80.7191H49.3682C48.4621 80.7191 47.7276 81.4536 47.7276 82.3597C47.7276 83.2658 48.4621 84.0003 49.3682 84.0003H56.3111C58.4439 84.0003 60.1792 82.265 60.1792 80.1321V72.4872C60.3878 72.5073 60.5989 72.5182 60.8127 72.5182H64.9003C67.2538 72.5182 69.1684 70.6036 69.1684 68.25V63.5809C69.1687 62.4115 68.6957 61.3508 67.9317 60.5793V60.5793ZM30.1939 8.32798C30.1939 5.54515 32.4578 3.28125 35.2404 3.28125H48.7592C51.5418 3.28125 53.8057 5.54515 53.8057 8.32798V12.003C50.3673 9.59815 46.2833 8.30222 41.9998 8.30222C37.7163 8.30222 33.6323 9.59798 30.1939 12.003V8.32798ZM29.7133 19.343C28.9773 18.6068 28.9773 17.4093 29.7132 16.6732L29.7135 16.673C32.9954 13.3911 37.3588 11.5836 41.9998 11.5836C46.6408 11.5836 51.0042 13.3911 54.2861 16.673L54.2864 16.6732C55.0224 17.4093 55.0223 18.607 54.2884 19.341C53.5526 20.0742 52.3554 20.0744 51.6216 19.343C49.0512 16.7726 45.6351 15.3571 42.0024 15.3571C38.3698 15.3571 34.9536 16.7726 32.3852 19.341C31.648 20.0757 30.4487 20.0757 29.7133 19.343V19.343ZM31.2216 23.8932V23.1664C32.4865 23.1243 33.7391 22.6241 34.7033 21.6631C36.6538 19.7126 39.2459 18.6383 42.0021 18.6383C44.7584 18.6383 47.3505 19.7124 49.303 21.6651C50.2649 22.6237 51.5149 23.123 52.7781 23.1655V23.8934C52.7781 29.838 47.944 34.6743 42.0021 34.6743C36.0578 34.6741 31.2216 29.8379 31.2216 23.8932V23.8932ZM46.5698 37.1892V40.2306C46.5698 42.7493 44.5208 44.7984 42.0021 44.7984C39.481 44.7984 37.4298 42.7493 37.4298 40.2306V37.188C38.8644 37.6829 40.4017 37.9554 42.0021 37.9554C43.6009 37.9554 45.1365 37.6832 46.5698 37.1892ZM19.0991 69.2367C18.5549 69.2367 18.1123 68.7939 18.1123 68.2497V63.5806C18.1123 63.0364 18.5549 62.5938 19.0991 62.5938H23.1868C25.0182 62.5938 26.5082 64.0838 26.5082 65.9152C26.5082 67.7467 25.0182 69.2367 23.1868 69.2367H19.0991ZM45.3746 61.9882L42.9194 60.3325C42.3652 59.9586 41.6395 59.9584 41.0853 60.3322L38.6249 61.9899V55.0879H45.3746V61.9882ZM56.3113 51.8065H27.6883C25.558 51.8065 23.8248 53.5397 23.8248 55.67V59.3439C23.6148 59.3237 23.402 59.3125 23.1868 59.3125H19.3492V54.052C19.4089 50.5977 20.6213 48.1724 23.1641 46.42C25.5701 44.7622 28.9053 43.8634 32.1308 42.9944C32.8955 42.7883 33.6733 42.5773 34.4436 42.356C35.3736 45.654 38.4088 48.0793 42.0019 48.0793C45.5931 48.0793 48.6265 45.6542 49.5559 42.3562C50.326 42.5773 51.104 42.7883 51.8685 42.9944C55.094 43.8634 58.4293 44.762 60.8352 46.42C63.3781 48.1724 64.5905 50.5975 64.6501 54.052V59.3124H60.8129C60.5991 59.3124 60.3879 59.3235 60.1794 59.3434V55.67C60.1796 53.5397 58.4443 51.8065 56.3113 51.8065ZM65.8875 68.2498C65.8875 68.794 65.4448 69.2368 64.9006 69.2368H60.8129C60.2821 69.2368 59.7819 69.1085 59.3366 68.8862C59.2976 68.8644 59.257 68.8449 59.216 68.8262C58.1892 68.2605 57.4916 67.1682 57.4916 65.9154C57.4916 64.084 58.9816 62.5939 60.8129 62.5939H64.9005C65.4447 62.5939 65.8873 63.0366 65.8873 63.5808V68.2498H65.8875Z" fill="white"/>
</g>
<defs>
<clipPath id="clip0">
<rect width="84" height="84" fill="white"/>
</clipPath>
</defs>
</svg>
