<svg width="71" height="71" viewBox="0 0 71 71" fill="none" xmlns="http://www.w3.org/2000/svg">
<path d="M71 21.0781V34.9453C71 36.4772 69.7585 37.7188 68.2266 37.7188C66.6947 37.7188 65.4531 36.4772 65.4531 34.9453V21.0781C65.4531 18.4542 63.5919 16.1688 61.027 15.6439C59.5265 15.3368 58.5591 13.8715 58.8662 12.3705C59.1733 10.87 60.6386 9.90204 62.1391 10.2097C67.2737 11.2606 71 15.8313 71 21.0781ZM68.2266 46.0391C66.6947 46.0391 65.4531 47.2806 65.4531 48.8125C65.4531 51.8709 62.9646 54.3594 59.9062 54.3594H11.0938C8.03539 54.3594 5.54688 51.8709 5.54688 48.8125V21.0781C5.54688 18.4542 7.40811 16.1688 9.973 15.6439C11.4735 15.3368 12.4409 13.8715 12.1338 12.3705C11.8267 10.87 10.3608 9.90258 8.86092 10.2097C3.72626 11.2606 0 15.8313 0 21.0781V48.8125C0 54.9298 4.97648 59.9062 11.0938 59.9062H32.7266V65.4363H23.0195C21.4876 65.4363 20.2461 66.6779 20.2461 68.2098C20.2461 69.7417 21.4876 70.9832 23.0195 70.9832H47.9805C49.5124 70.9832 50.7539 69.7417 50.7539 68.2098C50.7539 66.6779 49.5124 65.4363 47.9805 65.4363H38.2734V59.9062H59.9062C66.0235 59.9062 71 54.9298 71 48.8125C71 47.2806 69.7585 46.0391 68.2266 46.0391ZM16.0859 19.4141C16.0859 8.70924 24.7952 0 35.5 0C46.2048 0 54.9141 8.70924 54.9141 19.4141C54.9141 30.1189 46.2048 38.8281 35.5 38.8281C24.7952 38.8281 16.0859 30.1189 16.0859 19.4141ZM21.6328 19.4141C21.6328 27.0605 27.8535 33.2812 35.5 33.2812C43.1465 33.2812 49.3672 27.0605 49.3672 19.4141C49.3672 11.7676 43.1465 5.54688 35.5 5.54688C27.8535 5.54688 21.6328 11.7676 21.6328 19.4141ZM29.9531 22.1875H32.7266V24.9609C32.7266 26.4928 33.9681 27.7344 35.5 27.7344C37.0319 27.7344 38.2734 26.4928 38.2734 24.9609V22.1875H41.0469C42.5788 22.1875 43.8203 20.946 43.8203 19.4141C43.8203 17.8822 42.5788 16.6406 41.0469 16.6406H38.2734V13.8672C38.2734 12.3353 37.0319 11.0938 35.5 11.0938C33.9681 11.0938 32.7266 12.3353 32.7266 13.8672V16.6406H29.9531C28.4212 16.6406 27.1797 17.8822 27.1797 19.4141C27.1797 20.946 28.4212 22.1875 29.9531 22.1875Z" fill="white"/>
</svg>
