<svg width="12" height="12" viewBox="0 0 12 12" fill="none" xmlns="http://www.w3.org/2000/svg">
<path d="M8.67511 0H3.32516C2.87945 0 2.51465 0.364457 2.51465 0.810514V11.1891C2.51465 11.6352 2.87945 12 3.32516 12H8.67511C9.12082 12 9.48562 11.6359 9.48562 11.1895V0.810514C9.48562 0.364457 9.12082 0 8.67511 0ZM5.14436 0.584229H6.85591C6.91008 0.584229 6.95396 0.628114 6.95396 0.682629C6.95396 0.7368 6.91008 0.780686 6.85591 0.780686H5.14436C5.09019 0.780686 5.04631 0.7368 5.04631 0.682629C5.04631 0.628114 5.09019 0.584229 5.14436 0.584229ZM6.00013 11.5947C5.77625 11.5947 5.59488 11.4134 5.59488 11.1891C5.59488 10.9649 5.77625 10.7839 6.00013 10.7839C6.22402 10.7839 6.40539 10.9649 6.40539 11.1891C6.40539 11.4134 6.22402 11.5947 6.00013 11.5947ZM8.92162 10.5H3.07865V1.28537H8.92162V10.5Z" fill="white"/>
</svg>
