<svg width="17" height="17" viewBox="0 0 17 17" fill="none" xmlns="http://www.w3.org/2000/svg">
<g clip-path="url(#clip0)">
<path d="M16.9557 6.52098C16.8444 6.17675 16.5391 5.93226 16.1779 5.8997L11.2712 5.45417L9.33096 0.912879C9.1879 0.580061 8.86208 0.364624 8.50008 0.364624C8.13808 0.364624 7.81227 0.580061 7.66921 0.913657L5.72898 5.45417L0.821537 5.8997C0.460962 5.93304 0.15642 6.17675 0.044486 6.52098C-0.0674477 6.86521 0.0359256 7.24278 0.308691 7.48078L4.01755 10.7335L2.92389 15.551C2.84387 15.9053 2.98135 16.2714 3.27526 16.4839C3.43324 16.598 3.61806 16.6561 3.80445 16.6561C3.96515 16.6561 4.12455 16.6128 4.26762 16.5272L8.50008 13.9976L12.731 16.5272C13.0406 16.7134 13.4309 16.6964 13.7241 16.4839C14.0182 16.2708 14.1555 15.9045 14.0755 15.551L12.9818 10.7335L16.6907 7.48143C16.9635 7.24278 17.0676 6.86586 16.9557 6.52098Z" fill="#FFC107"/>
</g>
<defs>
<clipPath id="clip0">
<rect width="17" height="17" fill="white"/>
</clipPath>
</defs>
</svg>
