<svg width="35" height="35" viewBox="0 0 35 35" fill="none" xmlns="http://www.w3.org/2000/svg">
<path d="M17.2033 1.07666C10.9144 1.07666 5.79785 6.1932 5.79785 12.4821C5.79785 20.3866 17.2145 33.8892 17.2145 33.8892C17.2145 33.8892 28.6088 19.9979 28.6088 12.4821C28.6088 6.1932 23.4924 1.07666 17.2033 1.07666ZM20.6446 15.8217C19.6957 16.7703 18.4496 17.2448 17.2033 17.2448C15.9572 17.2448 14.7107 16.7703 13.7623 15.8217C11.8647 13.9243 11.8647 10.8369 13.7623 8.93932C14.6811 8.02008 15.9034 7.51379 17.2033 7.51379C18.5033 7.51379 19.7253 8.02028 20.6446 8.93932C22.5422 10.8369 22.5422 13.9243 20.6446 15.8217Z" fill="#6867CB"/>
</svg>
