<svg width="28" height="28" viewBox="0 0 28 28" fill="none" xmlns="http://www.w3.org/2000/svg">
<path d="M19.4299 9.21022L9.15951 15.58C8.97869 15.6922 8.89643 15.9124 8.95952 16.1156L10.3372 20.5548C10.3661 20.6481 10.502 20.6352 10.513 20.5382L10.8478 17.5615C10.8607 17.4465 10.9159 17.3404 11.0026 17.2637L19.6997 9.5729C19.908 9.38882 19.6661 9.06369 19.4299 9.21022Z" fill="white"/>
<path d="M0 0V28H28V0H0ZM23.3399 7.27557L20.1431 22.5593C19.993 23.2765 19.1519 23.5986 18.5612 23.1651L13.7346 19.6221L11.2746 22.1339C10.8428 22.5747 10.097 22.3963 9.91152 21.8077L8.13585 16.1733L3.3779 14.7683C2.75367 14.584 2.71687 13.7137 3.32334 13.4774L22.0473 6.18084C22.76 5.90313 23.4965 6.52687 23.3399 7.27557Z" fill="white"/>
</svg>
