<svg width="86" height="86" viewBox="0 0 86 86" fill="none" xmlns="http://www.w3.org/2000/svg">
<path d="M68.4008 50.6205C62.4488 50.6205 57.6055 55.4639 57.6055 61.4158C57.6055 67.3678 62.448 72.2112 68.4008 72.2112C74.3536 72.2112 79.1962 67.3686 79.1962 61.4158C79.1962 55.463 74.3528 50.6205 68.4008 50.6205ZM68.4008 66.7673C65.4489 66.7673 63.0485 64.3669 63.0485 61.415C63.0485 58.4631 65.4489 56.0627 68.4008 56.0627C71.3519 56.0627 73.7523 58.4631 73.7523 61.415C73.7521 64.3669 71.3519 66.7673 68.4008 66.7673Z" fill="white"/>
<path d="M22.0454 50.6205C16.0925 50.6205 11.25 55.4639 11.25 61.4158C11.25 67.3678 16.0925 72.2112 22.0454 72.2112C27.9982 72.2112 32.8407 67.3678 32.8407 61.4158C32.8407 55.4639 27.9983 50.6205 22.0454 50.6205ZM22.0454 66.7673C19.0935 66.7673 16.693 64.3669 16.693 61.415C16.693 58.4631 19.0943 56.0627 22.0454 56.0627C24.9964 56.0627 27.3977 58.4631 27.3977 61.415C27.3977 64.3669 24.9974 66.7673 22.0454 66.7673Z" fill="white"/>
<path d="M85.6268 37.5435L77.8251 24.2081C77.337 23.3734 76.4417 22.861 75.4756 22.861H52.0703V28.304H73.9141L80.5556 39.6555V58.6943H76.4733V64.1373H83.2771C84.7802 64.1373 85.9987 62.919 85.9985 61.4157V38.9178C85.9987 38.4344 85.8707 37.9598 85.6268 37.5435Z" fill="white"/>
<path d="M60.4176 58.694H30.0273V64.137H60.4176V58.694Z" fill="white"/>
<path d="M52.0717 13.7889H2.7216C1.21828 13.7889 0 15.0072 0 16.5104V61.4155C0 62.9186 1.21828 64.1371 2.7216 64.1371H12.8819V58.694H5.44303V19.232H49.3502V61.4155H54.7933V16.5104C54.7933 15.0072 53.575 13.7889 52.0717 13.7889Z" fill="white"/>
<path d="M83.2762 36.3776H52.0703V41.8206H83.2762V36.3776Z" fill="white"/>
<path d="M41.1862 24.5846H25.4013C23.8981 24.5846 22.6797 25.8029 22.6797 27.3062C22.6797 28.8093 23.898 30.0278 25.4013 30.0278H41.1862C42.6893 30.0278 43.9077 28.8095 43.9077 27.3062C43.9077 25.8029 42.6895 24.5846 41.1862 24.5846Z" fill="white"/>
<path d="M41.1871 34.2913H13.5185C12.0153 34.2913 10.7969 35.5095 10.7969 37.0129C10.7969 38.5162 12.0152 39.7345 13.5185 39.7345H41.1873C42.6904 39.7345 43.9089 38.5162 43.9089 37.0129C43.9089 35.5095 42.6904 34.2913 41.1871 34.2913Z" fill="white"/>
<path d="M41.1839 43.9073H33.745C32.2419 43.9073 31.0234 45.1256 31.0234 46.6289C31.0234 48.1321 32.2417 49.3505 33.745 49.3505H41.1839C42.687 49.3505 43.9055 48.1323 43.9055 46.6289C43.9055 45.1256 42.6872 43.9073 41.1839 43.9073Z" fill="white"/>
</svg>
