<svg width="60" height="60" viewBox="0 0 60 60" fill="none" xmlns="http://www.w3.org/2000/svg">
<path d="M47.7211 35.3164C43.5686 35.3164 40.1895 38.6955 40.1895 42.848C40.1895 47.0006 43.568 50.3797 47.7211 50.3797C51.8742 50.3797 55.2527 47.0012 55.2527 42.848C55.2527 38.6949 51.8736 35.3164 47.7211 35.3164ZM47.7211 46.5816C45.6616 46.5816 43.9869 44.9069 43.9869 42.8475C43.9869 40.788 45.6616 39.1133 47.7211 39.1133C49.78 39.1133 51.4547 40.788 51.4547 42.8475C51.4546 44.9069 49.78 46.5816 47.7211 46.5816Z" fill="#2E3F9D"/>
<path d="M15.3793 35.3164C11.2262 35.3164 7.84766 38.6955 7.84766 42.848C7.84766 47.0006 11.2262 50.3797 15.3793 50.3797C19.5324 50.3797 22.9109 47.0006 22.9109 42.848C22.9109 38.6955 19.5325 35.3164 15.3793 35.3164ZM15.3793 46.5816C13.3198 46.5816 11.6451 44.9069 11.6451 42.8475C11.6451 40.788 13.3204 39.1133 15.3793 39.1133C17.4382 39.1133 19.1135 40.788 19.1135 42.8475C19.1135 44.9069 17.4389 46.5816 15.3793 46.5816Z" fill="#2E3F9D"/>
<path d="M59.7406 26.1933L54.2976 16.8895C53.957 16.3072 53.3324 15.9497 52.6584 15.9497H36.3291V19.7472H51.569L56.2026 27.6668V40.9497H53.3545V44.7471H58.1012C59.15 44.7471 60 43.8972 59.9999 42.8483V27.1521C60 26.8149 59.9107 26.4838 59.7406 26.1933Z" fill="#2E3F9D"/>
<path d="M42.1517 40.9492H20.9492V44.7467H42.1517V40.9492Z" fill="#2E3F9D"/>
<path d="M36.3291 9.62012H1.89879C0.849961 9.62012 0 10.4701 0 11.5188V42.8479C0 43.8966 0.849961 44.7467 1.89879 44.7467H8.98734V40.9493H3.79746V13.4176H34.4304V42.8479H38.2279V11.5188C38.2279 10.4701 37.3779 9.62012 36.3291 9.62012Z" fill="#2E3F9D"/>
<path d="M58.1007 25.3799H36.3291V29.1773H58.1007V25.3799Z" fill="#2E3F9D"/>
<path d="M28.7338 17.1519H17.7211C16.6723 17.1519 15.8223 18.0018 15.8223 19.0506C15.8223 20.0994 16.6722 20.9494 17.7211 20.9494H28.7338C29.7825 20.9494 30.6325 20.0995 30.6325 19.0506C30.6325 18.0018 29.7826 17.1519 28.7338 17.1519Z" fill="#2E3F9D"/>
<path d="M28.7337 23.9243H9.43004C8.38133 23.9243 7.53125 24.7743 7.53125 25.8231C7.53125 26.8719 8.38121 27.7219 9.43004 27.7219H28.7339C29.7826 27.7219 30.6327 26.8719 30.6327 25.8231C30.6327 24.7743 29.7826 23.9243 28.7337 23.9243Z" fill="#2E3F9D"/>
<path d="M28.7342 30.6328H23.5443C22.4956 30.6328 21.6455 31.4828 21.6455 32.5316C21.6455 33.5803 22.4955 34.4304 23.5443 34.4304H28.7342C29.7829 34.4304 30.633 33.5804 30.633 32.5316C30.633 31.4828 29.783 30.6328 28.7342 30.6328Z" fill="#2E3F9D"/>
</svg>
