<svg width="20" height="21" viewBox="0 0 20 21" fill="none" xmlns="http://www.w3.org/2000/svg">
<path d="M5.13671 19.4188H2.37081C2.0373 19.4188 1.83608 19.2305 1.74585 19.1182C1.59007 18.9242 1.52972 18.6719 1.58038 18.4256C2.39167 14.4821 5.83074 11.6022 9.80089 11.5088C9.86703 11.5113 9.93332 11.5129 10 11.5129C10.0673 11.5129 10.1341 11.5112 10.2009 11.5087C11.1717 11.5311 12.12 11.7158 13.0226 12.0588C13.4265 12.2124 13.8769 12.0054 14.0286 11.5966C14.1803 11.1879 13.9758 10.7321 13.5718 10.5786C13.4425 10.5294 13.3123 10.4834 13.1814 10.4397C14.4744 9.45823 15.3125 7.89476 15.3125 6.13693C15.3125 3.17262 12.9293 0.760925 10 0.760925C7.07066 0.760925 4.68749 3.17262 4.68749 6.13693C4.68749 7.89635 5.52702 9.46104 6.82199 10.4424C5.63562 10.8376 4.52234 11.4522 3.54804 12.2632C1.76163 13.7502 0.51956 15.8243 0.0506929 18.1034C-0.0962603 18.8175 0.0797554 19.551 0.533623 20.1158C0.985186 20.6777 1.65483 21 2.37081 21H5.13671C5.5682 21 5.91796 20.6461 5.91796 20.2094C5.91796 19.7728 5.5682 19.4188 5.13671 19.4188ZM6.24999 6.13693C6.24999 4.04444 7.93222 2.3421 10 2.3421C12.0678 2.3421 13.75 4.04444 13.75 6.13693C13.75 8.16744 12.1659 9.83048 10.1826 9.92721C10.1218 9.9261 10.0609 9.92515 10 9.92515C9.9389 9.92515 9.87785 9.92606 9.81683 9.92717C7.83382 9.83017 6.24999 8.16724 6.24999 6.13693Z" fill="#FF6B01"/>
<path d="M19.4019 14.383C19.0675 13.6261 18.3142 13.1356 17.481 13.1336H15.0446C15.0428 13.1336 15.0412 13.1336 15.0394 13.1336C14.1605 13.1336 13.3937 13.6578 13.0851 14.47C13.0441 14.5781 12.9939 14.7142 12.9415 14.8729H7.82643C7.61521 14.8729 7.41303 14.9595 7.26588 15.1128L5.92385 16.5117C5.62826 16.8198 5.62974 17.3103 5.92717 17.6165L7.29435 19.0242C7.44123 19.1755 7.64201 19.2607 7.85154 19.2607H10.3906C10.8221 19.2607 11.1719 18.9067 11.1719 18.4701C11.1719 18.0334 10.8221 17.6795 10.3906 17.6795H8.17912L7.57646 17.0589L8.15682 16.4541H13.5276C13.8875 16.4541 14.2008 16.2053 14.2864 15.8515C14.3496 15.5904 14.4289 15.3393 14.5436 15.0374C14.6192 14.8383 14.8091 14.7148 15.0413 14.7148C15.0418 14.7148 15.0423 14.7148 15.0428 14.7148H17.4792C17.7001 14.7153 17.8903 14.8355 17.9755 15.0284C18.1852 15.5032 18.4356 16.2383 18.4375 17.0438C18.4394 17.8553 18.1892 18.6072 17.9789 19.0951C17.8942 19.2919 17.7024 19.4188 17.4883 19.4188C17.4879 19.4188 17.4874 19.4188 17.487 19.4188H15.0212C14.8051 19.4183 14.6026 19.2776 14.5174 19.0687C14.4261 18.8445 14.3469 18.5885 14.2754 18.2861C14.1749 17.8615 13.7532 17.5996 13.3338 17.7012C12.9141 17.8029 12.6554 18.2295 12.7558 18.6541C12.8465 19.0375 12.9503 19.3703 13.073 19.6715C13.4011 20.4765 14.1644 20.9979 15.0194 21H17.4852C17.4869 21 17.4885 21 17.4901 21C18.3242 20.9999 19.0779 20.5007 19.4112 19.7271C19.6812 19.1005 20.0025 18.1257 20 17.0401C19.9975 15.9574 19.6734 14.9976 19.4019 14.383Z" fill="#FF6B01"/>
<path d="M16.8359 17.8376C17.2674 17.8376 17.6172 17.4837 17.6172 17.0471C17.6172 16.6104 17.2674 16.2565 16.8359 16.2565C16.4045 16.2565 16.0547 16.6104 16.0547 17.0471C16.0547 17.4837 16.4045 17.8376 16.8359 17.8376Z" fill="#FF6B01"/>
</svg>
