<svg width="12" height="12" viewBox="0 0 12 12" fill="none" xmlns="http://www.w3.org/2000/svg">
<g clip-path="url(#clip0)">
<path d="M10.7735 1.94305L6.17974 0.035772C6.06466 -0.0119937 5.93531 -0.0120171 5.82026 0.035772L1.22651 1.94305C1.05155 2.0157 0.9375 2.18651 0.9375 2.37596V4.69451C0.9375 7.88701 2.86709 10.7587 5.82286 11.9652C5.93639 12.0115 6.06359 12.0115 6.17714 11.9652C9.13287 10.7588 11.0625 7.88703 11.0625 4.69451V2.37596C11.0625 2.18651 10.9485 2.0157 10.7735 1.94305ZM10.125 4.69451C10.125 7.40846 8.53125 9.90683 6 11.022C3.53639 9.93661 1.875 7.48201 1.875 4.69451V2.6889L6 0.976225L10.125 2.6889V4.69451ZM5.48189 6.27453L7.49667 4.25977C7.67972 4.07673 7.97651 4.0767 8.15958 4.25977C8.34265 4.44284 8.34262 4.73963 8.15955 4.92268L5.81334 7.26889C5.63025 7.45198 5.33346 7.45191 5.15044 7.26889L3.84042 5.95887C3.65735 5.7758 3.65735 5.47901 3.84042 5.29597C4.02349 5.11292 4.32028 5.1129 4.50333 5.29597L5.48189 6.27453Z" fill="white"/>
</g>
<defs>
<clipPath id="clip0">
<rect width="12" height="12" fill="white"/>
</clipPath>
</defs>
</svg>
