<svg width="27" height="27" viewBox="0 0 27 27" fill="none" xmlns="http://www.w3.org/2000/svg">
<path d="M6.30949 5.47468L17.0731 2.53667L16.5031 1.38451C16.1302 0.635602 15.2206 0.326337 14.4716 0.699274L4.83594 5.47468H6.30949Z" fill="#11BE12"/>
<path d="M20.4141 2.62158C20.2807 2.62158 20.1473 2.63977 20.0139 2.67616L17.4852 3.36745L9.7627 5.4747H18.5282H22.3485L21.8756 3.74039C21.6936 3.06425 21.0812 2.62158 20.4141 2.62158Z" fill="#11BE12"/>
<path d="M23.9286 6.53613H23.5829H23.113H22.643H19.0562H5.87603H4.14778H2.69242H2.42257H1.51903C1.03998 6.53613 0.612465 6.75747 0.333521 7.10615C0.206176 7.26685 0.109152 7.4518 0.0545761 7.65494C0.021224 7.78229 0 7.91569 0 8.05213V8.23406V9.9623V24.9434C0 25.7803 0.679169 26.4594 1.516 26.4594H23.9255C24.7624 26.4594 25.4416 25.7803 25.4416 24.9434V20.7138H16.4456C15.0236 20.7138 13.8684 19.5586 13.8684 18.1366V16.7479V16.278V15.808V14.765C13.8684 14.0676 14.1473 13.434 14.5991 12.9701C14.9993 12.5577 15.536 12.2787 16.1363 12.209C16.2364 12.1969 16.3395 12.1908 16.4426 12.1908H24.1802H24.6502H25.1202H25.4416V8.05213C25.4446 7.2153 24.7654 6.53613 23.9286 6.53613Z" fill="#11BE12"/>
<path d="M26.5059 13.6398C26.3543 13.5004 26.1754 13.3942 25.9753 13.3245C25.8206 13.273 25.6569 13.2427 25.4841 13.2427H25.4447H25.4144H24.9444H23.2495H16.4457C15.6088 13.2427 14.9297 13.9218 14.9297 14.7587V15.5136V15.9836V16.4535V18.1333C14.9297 18.9701 15.6088 19.6493 16.4457 19.6493H25.4447H25.4841C25.6569 19.6493 25.8207 19.619 25.9753 19.5674C26.1754 19.5007 26.3543 19.3916 26.5059 19.2521C26.8091 18.9762 27.0001 18.5759 27.0001 18.1333V14.7587C27.0001 14.316 26.8091 13.9157 26.5059 13.6398ZM19.6111 16.7476C19.6111 17.1661 19.2715 17.5056 18.8531 17.5056H18.3498C17.9314 17.5056 17.5918 17.1661 17.5918 16.7476V16.2443C17.5918 16.0018 17.704 15.7865 17.8829 15.65C18.0132 15.55 18.174 15.4863 18.3498 15.4863H18.4771H18.8531C19.2715 15.4863 19.6111 15.8259 19.6111 16.2443V16.7476Z" fill="#11BE12"/>
</svg>
