<svg width="28" height="28" viewBox="0 0 28 28" fill="none" xmlns="http://www.w3.org/2000/svg">
<g clip-path="url(#clip0)">
<path d="M12.2559 16.6227L16.8099 13.9998L12.2559 11.377V16.6227Z" fill="white"/>
<path d="M25.9806 0H2.01938C0.904053 0 0 0.904053 0 2.01938V25.9806C0 27.0959 0.904053 28 2.01938 28H25.9806C27.0959 28 28 27.0959 28 25.9806V2.01938C28 0.904053 27.0959 0 25.9806 0V0ZM22.7479 14.0143C22.7479 14.0143 22.7479 16.8536 22.3877 18.2227C22.1858 18.9721 21.5949 19.563 20.8456 19.7646C19.4764 20.125 14 20.125 14 20.125C14 20.125 8.53787 20.125 7.15445 19.7503C6.40506 19.5486 5.81418 18.9576 5.6123 18.2082C5.25192 16.8536 5.25192 14 5.25192 14C5.25192 14 5.25192 11.1609 5.6123 9.79184C5.81396 9.04245 6.41937 8.43704 7.15445 8.23538C8.52356 7.875 14 7.875 14 7.875C14 7.875 19.4764 7.875 20.8456 8.24969C21.5949 8.45135 22.1858 9.04245 22.3877 9.79184C22.7624 11.1609 22.7479 14.0143 22.7479 14.0143Z" fill="white"/>
</g>
<defs>
<clipPath id="clip0">
<rect width="28" height="28" fill="white"/>
</clipPath>
</defs>
</svg>
